M48
;Layer_Color=9474304
;FILE_FORMAT=2:5
INCH,LZ
;TYPE=PLATED
T1F00S00C0.01500
T3F00S00C0.05906
T4F00S00C0.06693
T5F00S00C0.13386
;TYPE=NON_PLATED
T6F00S00C0.06299
%
T01
X0128654Y0017
X0073Y0151
X0101Y0157
X0104Y0165
Y017
X0135Y015
X0165307Y01515
X0165Y0166
Y0171
X0176109Y0170589
X017613Y0165288
X0177Y016
X0181Y0137
X019
X0199
X0222Y0139
X0232
X0172496Y0120331
X0166Y011
X0177Y0097
X0151Y0095
X0159535Y0085367
X0151Y0121
X0154Y0173
X0148Y0052
X0139Y0056
X0138Y0028
X013
X0154Y0032
X016Y0019
X0182
X0195Y0022
X0203Y0026
X01899Y0066
X0103Y0061
X0104Y004
X0096778Y0038955
X0086495Y0049439
X0108683Y0017431
X0242Y0139
X0272075Y0141
X0272439Y0154
X0236Y0177
X0228
X0154Y0178
X008Y0175
T03
X0024679Y0048996
Y0097888
Y0152525
X0258577Y0046102
T04
X0014679Y0038996
Y0058996
X0034679
Y0038996
Y0087888
Y0107888
X0014679
Y0087888
Y0142525
Y0162525
X0034679
Y0142525
X0248577Y0056102
X0268577
Y0036102
X0248577
T05
X0269189Y0011811
X0011811
X0269189Y0193189
X0011811
T06
X0266811Y0097
M30
