M48
;Layer_Color=9474304
;FILE_FORMAT=2:5
INCH,LZ
;TYPE=PLATED
T1F00S00C0.02800
T3F00S00C0.05906
T4F00S00C0.06693
;TYPE=NON_PLATED
T5F00S00C0.06299
%
T01
X0065Y0146
X0118Y016
X0145Y0152
X0139Y0121
X0108Y01
X0099Y0075
X0104Y004
X014Y003
X0144Y0061
X0193Y0081
X021Y0067
X0217Y0126
X022Y0145
X0178Y0165
X018Y0109
X0264Y0186
X0203Y0189
X0122Y0194
X0064
T03
X0056Y0032
Y0071
Y0119
X0244Y0042
T04
X0046Y0022
Y0042
Y0061
Y0081
X0066
Y0061
Y0042
Y0022
Y0109
X0046
Y0129
X0066
X0234Y0052
Y0032
X0254
Y0052
T05
X0266811Y0097
M30
