G04*
G04 #@! TF.GenerationSoftware,Altium Limited,Altium Designer,21.9.2 (33)*
G04*
G04 Layer_Color=8421504*
%FSLAX25Y25*%
%MOIN*%
G70*
G04*
G04 #@! TF.SameCoordinates,BDB69366-DB8A-4EDD-9E17-6FFE98707952*
G04*
G04*
G04 #@! TF.FilePolarity,Positive*
G04*
G01*
G75*
%ADD15R,0.02559X0.02756*%
%ADD16R,0.03642X0.06693*%
%ADD17R,0.06693X0.03642*%
%ADD18R,0.05512X0.04724*%
%ADD19R,0.04724X0.05512*%
%ADD20R,0.05315X0.03937*%
%ADD21R,0.03937X0.05512*%
%ADD22R,0.12795X0.05512*%
%ADD23O,0.05709X0.02362*%
%ADD24R,0.03937X0.02362*%
%ADD25R,0.04921X0.02362*%
%ADD26O,0.05906X0.02362*%
%ADD27R,0.04921X0.07874*%
%ADD28O,0.05118X0.02362*%
D15*
X248657Y129000D02*
D03*
X243342D02*
D03*
X183343Y25000D02*
D03*
X188657D02*
D03*
D16*
X268000Y141000D02*
D03*
X257272D02*
D03*
X156636Y126000D02*
D03*
X167364D02*
D03*
X268364Y154000D02*
D03*
X257636D02*
D03*
D17*
X166000Y82636D02*
D03*
Y93364D02*
D03*
X175000Y82636D02*
D03*
Y93364D02*
D03*
D18*
X242000Y151347D02*
D03*
Y144653D02*
D03*
X203197Y38890D02*
D03*
Y32197D02*
D03*
X154000Y25693D02*
D03*
Y19000D02*
D03*
X175000Y25346D02*
D03*
Y18654D02*
D03*
X139134Y111173D02*
D03*
Y104480D02*
D03*
X199000Y149346D02*
D03*
Y142654D02*
D03*
X190000Y149346D02*
D03*
Y142654D02*
D03*
X232000Y151347D02*
D03*
Y144653D02*
D03*
D19*
X100347Y151000D02*
D03*
X93654D02*
D03*
X153961Y151500D02*
D03*
X160654D02*
D03*
X115654Y17000D02*
D03*
X122346D02*
D03*
X95346Y45000D02*
D03*
X88653D02*
D03*
X130654Y35000D02*
D03*
X137346D02*
D03*
D20*
X73000Y163087D02*
D03*
Y156000D02*
D03*
X135000Y162000D02*
D03*
Y154913D02*
D03*
X73000Y176543D02*
D03*
Y169457D02*
D03*
X135000Y177748D02*
D03*
Y170661D02*
D03*
X195000Y39543D02*
D03*
Y32457D02*
D03*
X75000Y68543D02*
D03*
Y61457D02*
D03*
X222000Y151543D02*
D03*
Y144457D02*
D03*
X181000Y142457D02*
D03*
Y149543D02*
D03*
X194000Y61543D02*
D03*
Y54457D02*
D03*
X186000Y39543D02*
D03*
Y32457D02*
D03*
X184000Y108000D02*
D03*
Y115087D02*
D03*
Y94457D02*
D03*
Y101543D02*
D03*
D21*
X186945Y160614D02*
D03*
X196000D02*
D03*
X205055D02*
D03*
X222945D02*
D03*
X232000D02*
D03*
X241055D02*
D03*
D22*
X196000Y187386D02*
D03*
X232000D02*
D03*
D23*
X82272Y32500D02*
D03*
Y27500D02*
D03*
Y22500D02*
D03*
Y17500D02*
D03*
X103728Y32500D02*
D03*
Y27500D02*
D03*
Y22500D02*
D03*
Y17500D02*
D03*
X151020Y115165D02*
D03*
Y110165D02*
D03*
Y105165D02*
D03*
Y100165D02*
D03*
X172476Y115165D02*
D03*
Y110165D02*
D03*
Y105165D02*
D03*
Y100165D02*
D03*
D24*
X86587Y53260D02*
D03*
Y60740D02*
D03*
X97413D02*
D03*
Y57000D02*
D03*
Y53260D02*
D03*
D25*
X139276Y44346D02*
D03*
Y48087D02*
D03*
Y51827D02*
D03*
X129433D02*
D03*
Y44346D02*
D03*
D26*
X175614Y36634D02*
D03*
Y41634D02*
D03*
Y46634D02*
D03*
Y51634D02*
D03*
X153961Y36634D02*
D03*
Y41634D02*
D03*
Y46634D02*
D03*
Y51634D02*
D03*
D27*
X163906Y189000D02*
D03*
X152094D02*
D03*
X91094D02*
D03*
X102905D02*
D03*
D28*
X170346Y160350D02*
D03*
Y165350D02*
D03*
Y170350D02*
D03*
Y175350D02*
D03*
X147118Y160350D02*
D03*
Y165350D02*
D03*
Y170350D02*
D03*
Y175350D02*
D03*
X109465Y160350D02*
D03*
Y165350D02*
D03*
Y170350D02*
D03*
Y175350D02*
D03*
X86236Y160350D02*
D03*
Y165350D02*
D03*
Y170350D02*
D03*
Y175350D02*
D03*
M02*
