G04*
G04 #@! TF.GenerationSoftware,Altium Limited,Altium Designer,21.9.2 (33)*
G04*
G04 Layer_Color=65535*
%FSLAX25Y25*%
%MOIN*%
G70*
G04*
G04 #@! TF.SameCoordinates,BDB69366-DB8A-4EDD-9E17-6FFE98707952*
G04*
G04*
G04 #@! TF.FilePolarity,Positive*
G04*
G01*
G75*
%ADD10C,0.00984*%
%ADD11C,0.02362*%
%ADD12C,0.00787*%
%ADD13C,0.00800*%
%ADD14R,0.02165X0.07087*%
D10*
X183303Y160614D02*
G03*
X183303Y160614I-492J0D01*
G01*
X219303D02*
G03*
X219303Y160614I-492J0D01*
G01*
X104220Y14153D02*
G03*
X104220Y14153I-492J0D01*
G01*
X97905Y49913D02*
G03*
X97905Y49913I-492J0D01*
G01*
X140347Y41587D02*
G03*
X140347Y41587I-492J0D01*
G01*
X176106Y33287D02*
G03*
X176106Y33287I-492J0D01*
G01*
X151512Y118512D02*
G03*
X151512Y118512I-492J0D01*
G01*
X147610Y178697D02*
G03*
X147610Y178697I-492J0D01*
G01*
X86728D02*
G03*
X86728Y178697I-492J0D01*
G01*
D11*
X96543Y19094D02*
G03*
X96543Y19094I-1181J0D01*
G01*
X168331Y38228D02*
G03*
X168331Y38228I-1181J0D01*
G01*
X160567Y113571D02*
G03*
X160567Y113571I-1181J0D01*
G01*
X156370Y174150D02*
G03*
X156370Y174150I-1181J0D01*
G01*
X95488D02*
G03*
X95488Y174150I-1181J0D01*
G01*
D12*
X242555Y126146D02*
X249445D01*
X242555Y131854D02*
X249445D01*
X261356Y137457D02*
X263915D01*
X261356Y144543D02*
X263915D01*
X182555Y27854D02*
X189445D01*
X182555Y22146D02*
X189445D01*
X162457Y86721D02*
Y89280D01*
X169543Y86721D02*
Y89280D01*
X171457Y86721D02*
Y89280D01*
X178543Y86721D02*
Y89280D01*
X160721Y129543D02*
X163279D01*
X160721Y122457D02*
X163279D01*
X261720Y150457D02*
X264280D01*
X261720Y157543D02*
X264280D01*
X182811Y164945D02*
X209189D01*
X182811Y183055D02*
X209189D01*
X182811Y164945D02*
Y183055D01*
X209189Y164945D02*
Y183055D01*
X218811Y164945D02*
X245189D01*
X218811Y183055D02*
X245189D01*
X218811Y164945D02*
Y183055D01*
X245189Y164945D02*
Y183055D01*
X86701Y34843D02*
X99299D01*
X86701Y15157D02*
X99299D01*
X86701D02*
Y34843D01*
X99299Y15157D02*
Y34843D01*
X90031Y50898D02*
Y63102D01*
X93968Y50898D02*
Y63102D01*
X90031D02*
X93968D01*
X90031Y50898D02*
X93968D01*
X133272Y42181D02*
X135437D01*
X133272D02*
Y53992D01*
X135437D01*
Y42181D02*
Y53992D01*
X171087Y34291D02*
Y53976D01*
X158488Y34291D02*
Y53976D01*
Y34291D02*
X171087D01*
X158488Y53976D02*
X171087D01*
X155449Y97823D02*
Y117508D01*
X168047Y97823D02*
Y117508D01*
X155449D02*
X168047D01*
X155449Y97823D02*
X168047D01*
X155244Y185457D02*
X160362D01*
X155244Y192543D02*
X160362D01*
X151252Y157614D02*
X166213D01*
X151252Y178087D02*
X166213D01*
Y157614D02*
Y178087D01*
X151252Y157614D02*
Y178087D01*
X94244Y192543D02*
X99362D01*
X94244Y185457D02*
X99362D01*
X90370Y157614D02*
X105331D01*
X90370Y178087D02*
X105331D01*
Y157614D02*
Y178087D01*
X90370Y157614D02*
Y178087D01*
X244426Y123574D02*
X242327D01*
Y122000D01*
X243376D01*
X242327D01*
Y120426D01*
X245475Y123574D02*
Y120426D01*
X247049D01*
X247574Y120950D01*
Y121475D01*
X247049Y122000D01*
X245475D01*
X247049D01*
X247574Y122525D01*
Y123049D01*
X247049Y123574D01*
X245475D01*
X248624Y120426D02*
X249673D01*
X249149D01*
Y123574D01*
X248624Y123049D01*
X262163Y135049D02*
X261639Y135574D01*
X260589D01*
X260064Y135049D01*
Y132950D01*
X260589Y132426D01*
X261639D01*
X262163Y132950D01*
X263213Y132426D02*
X264262D01*
X263738D01*
Y135574D01*
X263213Y135049D01*
X265837D02*
X266361Y135574D01*
X267411D01*
X267936Y135049D01*
Y134525D01*
X267411Y134000D01*
X267936Y133475D01*
Y132950D01*
X267411Y132426D01*
X266361D01*
X265837Y132950D01*
Y133475D01*
X266361Y134000D01*
X265837Y134525D01*
Y135049D01*
X266361Y134000D02*
X267411D01*
X187851Y15801D02*
X189950D01*
Y17376D01*
X188900D01*
X189950D01*
Y18950D01*
X186801Y15801D02*
Y18950D01*
X185227D01*
X184702Y18425D01*
Y17900D01*
X185227Y17376D01*
X186801D01*
X185227D01*
X184702Y16851D01*
Y16326D01*
X185227Y15801D01*
X186801D01*
X181554Y18950D02*
X183653D01*
X181554Y16851D01*
Y16326D01*
X182079Y15801D01*
X183128D01*
X183653Y16326D01*
X263000Y163049D02*
X262475Y163574D01*
X261426D01*
X260901Y163049D01*
Y160951D01*
X261426Y160426D01*
X262475D01*
X263000Y160951D01*
X264050Y160426D02*
X265099D01*
X264574D01*
Y163574D01*
X264050Y163049D01*
X241475Y135049D02*
X240950Y135574D01*
X239901D01*
X239376Y135049D01*
Y132950D01*
X239901Y132426D01*
X240950D01*
X241475Y132950D01*
X244624Y132426D02*
X242525D01*
X244624Y134525D01*
Y135049D01*
X244099Y135574D01*
X243050D01*
X242525Y135049D01*
D13*
X69749Y62084D02*
X66251D01*
Y63834D01*
X66834Y64417D01*
X68000D01*
X68583Y63834D01*
Y62084D01*
Y63251D02*
X69749Y64417D01*
X66251Y67916D02*
Y65583D01*
X68000D01*
X67417Y66749D01*
Y67333D01*
X68000Y67916D01*
X69166D01*
X69749Y67333D01*
Y66166D01*
X69166Y65583D01*
X169166Y23041D02*
X169749Y23624D01*
Y24790D01*
X169166Y25374D01*
X166834D01*
X166251Y24790D01*
Y23624D01*
X166834Y23041D01*
X166251Y21875D02*
Y20708D01*
Y21292D01*
X169749D01*
X169166Y21875D01*
X169749Y16626D02*
X169166Y17793D01*
X168000Y18959D01*
X166834D01*
X166251Y18376D01*
Y17210D01*
X166834Y16626D01*
X167417D01*
X168000Y17210D01*
Y18959D01*
X148166Y24041D02*
X148749Y24624D01*
Y25790D01*
X148166Y26374D01*
X145834D01*
X145251Y25790D01*
Y24624D01*
X145834Y24041D01*
X145251Y22875D02*
Y21708D01*
Y22292D01*
X148749D01*
X148166Y22875D01*
X148749Y17626D02*
Y19959D01*
X147000D01*
X147583Y18793D01*
Y18210D01*
X147000Y17626D01*
X145834D01*
X145251Y18210D01*
Y19376D01*
X145834Y19959D01*
X154494Y92533D02*
X153911Y93116D01*
X152745D01*
X152162Y92533D01*
Y90201D01*
X152745Y89617D01*
X153911D01*
X154494Y90201D01*
X155661Y89617D02*
X156827D01*
X156244D01*
Y93116D01*
X155661Y92533D01*
X158576Y93116D02*
X160909D01*
Y92533D01*
X158576Y90201D01*
Y89617D01*
X174084Y125749D02*
Y122834D01*
X174667Y122251D01*
X175834D01*
X176417Y122834D01*
Y125749D01*
X177583Y122834D02*
X178166Y122251D01*
X179333D01*
X179916Y122834D01*
Y125166D01*
X179333Y125749D01*
X178166D01*
X177583Y125166D01*
Y124583D01*
X178166Y124000D01*
X179916D01*
X76084Y40749D02*
Y37834D01*
X76667Y37251D01*
X77834D01*
X78417Y37834D01*
Y40749D01*
X79583Y40166D02*
X80166Y40749D01*
X81333D01*
X81916Y40166D01*
Y39583D01*
X81333Y39000D01*
X81916Y38417D01*
Y37834D01*
X81333Y37251D01*
X80166D01*
X79583Y37834D01*
Y38417D01*
X80166Y39000D01*
X79583Y39583D01*
Y40166D01*
X80166Y39000D02*
X81333D01*
X90084Y69749D02*
Y66834D01*
X90667Y66251D01*
X91834D01*
X92417Y66834D01*
Y69749D01*
X93583D02*
X95916D01*
Y69166D01*
X93583Y66834D01*
Y66251D01*
X131084Y61749D02*
Y58834D01*
X131667Y58251D01*
X132834D01*
X133417Y58834D01*
Y61749D01*
X136916D02*
X135749Y61166D01*
X134583Y60000D01*
Y58834D01*
X135166Y58251D01*
X136333D01*
X136916Y58834D01*
Y59417D01*
X136333Y60000D01*
X134583D01*
X161084Y60749D02*
Y57834D01*
X161667Y57251D01*
X162834D01*
X163417Y57834D01*
Y60749D01*
X166916D02*
X164583D01*
Y59000D01*
X165749Y59583D01*
X166333D01*
X166916Y59000D01*
Y57834D01*
X166333Y57251D01*
X165166D01*
X164583Y57834D01*
X79084Y184749D02*
Y181834D01*
X79667Y181251D01*
X80834D01*
X81417Y181834D01*
Y184749D01*
X84333Y181251D02*
Y184749D01*
X82583Y183000D01*
X84916D01*
X142084Y155749D02*
Y152834D01*
X142667Y152251D01*
X143834D01*
X144417Y152834D01*
Y155749D01*
X145583Y155166D02*
X146166Y155749D01*
X147333D01*
X147916Y155166D01*
Y154583D01*
X147333Y154000D01*
X146749D01*
X147333D01*
X147916Y153417D01*
Y152834D01*
X147333Y152251D01*
X146166D01*
X145583Y152834D01*
X177084Y189749D02*
Y186834D01*
X177667Y186251D01*
X178834D01*
X179417Y186834D01*
Y189749D01*
X182916Y186251D02*
X180583D01*
X182916Y188583D01*
Y189166D01*
X182333Y189749D01*
X181166D01*
X180583Y189166D01*
X215667Y189749D02*
Y186834D01*
X216251Y186251D01*
X217417D01*
X218000Y186834D01*
Y189749D01*
X219166Y186251D02*
X220333D01*
X219749D01*
Y189749D01*
X219166Y189166D01*
X190626Y96022D02*
Y99521D01*
X192376D01*
X192959Y98938D01*
Y97772D01*
X192376Y97189D01*
X190626D01*
X191793D02*
X192959Y96022D01*
X194125D02*
X195292D01*
X194708D01*
Y99521D01*
X194125Y98938D01*
X197041D02*
X197624Y99521D01*
X198790D01*
X199374Y98938D01*
Y98355D01*
X198790Y97772D01*
X198207D01*
X198790D01*
X199374Y97189D01*
Y96605D01*
X198790Y96022D01*
X197624D01*
X197041Y96605D01*
X188626Y109251D02*
Y112749D01*
X190376D01*
X190959Y112166D01*
Y111000D01*
X190376Y110417D01*
X188626D01*
X189793D02*
X190959Y109251D01*
X192125D02*
X193292D01*
X192708D01*
Y112749D01*
X192125Y112166D01*
X197374Y109251D02*
X195041D01*
X197374Y111583D01*
Y112166D01*
X196790Y112749D01*
X195624D01*
X195041Y112166D01*
X185251Y24790D02*
X188749D01*
Y23041D01*
X188166Y22458D01*
X187000D01*
X186417Y23041D01*
Y24790D01*
Y23624D02*
X185251Y22458D01*
Y21292D02*
Y20125D01*
Y20708D01*
X188749D01*
X188166Y21292D01*
X185251Y18376D02*
Y17210D01*
Y17793D01*
X188749D01*
X188166Y18376D01*
X193251Y25374D02*
X196749D01*
Y23624D01*
X196166Y23041D01*
X195000D01*
X194417Y23624D01*
Y25374D01*
Y24207D02*
X193251Y23041D01*
Y21875D02*
Y20708D01*
Y21292D01*
X196749D01*
X196166Y21875D01*
Y18959D02*
X196749Y18376D01*
Y17210D01*
X196166Y16626D01*
X193834D01*
X193251Y17210D01*
Y18376D01*
X193834Y18959D01*
X196166D01*
X199084Y56251D02*
Y59749D01*
X200834D01*
X201417Y59166D01*
Y58000D01*
X200834Y57417D01*
X199084D01*
X200251D02*
X201417Y56251D01*
X202583Y56834D02*
X203166Y56251D01*
X204333D01*
X204916Y56834D01*
Y59166D01*
X204333Y59749D01*
X203166D01*
X202583Y59166D01*
Y58583D01*
X203166Y58000D01*
X204916D01*
X66749Y157084D02*
X63251D01*
Y158834D01*
X63834Y159417D01*
X65000D01*
X65583Y158834D01*
Y157084D01*
Y158251D02*
X66749Y159417D01*
X63834Y160583D02*
X63251Y161166D01*
Y162333D01*
X63834Y162916D01*
X64417D01*
X65000Y162333D01*
X65583Y162916D01*
X66166D01*
X66749Y162333D01*
Y161166D01*
X66166Y160583D01*
X65583D01*
X65000Y161166D01*
X64417Y160583D01*
X63834D01*
X65000Y161166D02*
Y162333D01*
X130749Y157084D02*
X127251D01*
Y158834D01*
X127834Y159417D01*
X129000D01*
X129583Y158834D01*
Y157084D01*
Y158251D02*
X130749Y159417D01*
X127251Y162916D02*
X127834Y161749D01*
X129000Y160583D01*
X130166D01*
X130749Y161166D01*
Y162333D01*
X130166Y162916D01*
X129583D01*
X129000Y162333D01*
Y160583D01*
X178084Y130251D02*
Y133749D01*
X179834D01*
X180417Y133166D01*
Y132000D01*
X179834Y131417D01*
X178084D01*
X179251D02*
X180417Y130251D01*
X183333D02*
Y133749D01*
X181583Y132000D01*
X183916D01*
X220084Y132251D02*
Y135749D01*
X221834D01*
X222417Y135166D01*
Y134000D01*
X221834Y133417D01*
X220084D01*
X221251D02*
X222417Y132251D01*
X223583Y135166D02*
X224166Y135749D01*
X225333D01*
X225916Y135166D01*
Y134583D01*
X225333Y134000D01*
X224749D01*
X225333D01*
X225916Y133417D01*
Y132834D01*
X225333Y132251D01*
X224166D01*
X223583Y132834D01*
X66749Y171084D02*
X63251D01*
Y172834D01*
X63834Y173417D01*
X65000D01*
X65583Y172834D01*
Y171084D01*
Y172251D02*
X66749Y173417D01*
Y176916D02*
Y174583D01*
X64417Y176916D01*
X63834D01*
X63251Y176333D01*
Y175166D01*
X63834Y174583D01*
X129749Y171667D02*
X126251D01*
Y173417D01*
X126834Y174000D01*
X128000D01*
X128583Y173417D01*
Y171667D01*
Y172834D02*
X129749Y174000D01*
Y175166D02*
Y176333D01*
Y175749D01*
X126251D01*
X126834Y175166D01*
X94084Y200749D02*
Y197251D01*
X95834D01*
X96417Y197834D01*
Y200166D01*
X95834Y200749D01*
X94084D01*
X99916Y197251D02*
X97583D01*
X99916Y199583D01*
Y200166D01*
X99333Y200749D01*
X98166D01*
X97583Y200166D01*
X155667Y200749D02*
Y197251D01*
X157417D01*
X158000Y197834D01*
Y200166D01*
X157417Y200749D01*
X155667D01*
X159166Y197251D02*
X160333D01*
X159749D01*
Y200749D01*
X159166Y200166D01*
X176072Y74356D02*
X176655Y74939D01*
Y76105D01*
X176072Y76688D01*
X173739D01*
X173156Y76105D01*
Y74939D01*
X173739Y74356D01*
X173156Y73190D02*
Y72023D01*
Y72606D01*
X176655D01*
X176072Y73190D01*
X173156Y68524D02*
X176655D01*
X174906Y70274D01*
Y67941D01*
X146959Y129166D02*
X146376Y129749D01*
X145210D01*
X144626Y129166D01*
Y126834D01*
X145210Y126251D01*
X146376D01*
X146959Y126834D01*
X148125Y126251D02*
X149292D01*
X148708D01*
Y129749D01*
X148125Y129166D01*
X151041D02*
X151624Y129749D01*
X152790D01*
X153374Y129166D01*
Y128583D01*
X152790Y128000D01*
X152207D01*
X152790D01*
X153374Y127417D01*
Y126834D01*
X152790Y126251D01*
X151624D01*
X151041Y126834D01*
X134959Y119166D02*
X134376Y119749D01*
X133210D01*
X132626Y119166D01*
Y116834D01*
X133210Y116251D01*
X134376D01*
X134959Y116834D01*
X136125Y116251D02*
X137292D01*
X136708D01*
Y119749D01*
X136125Y119166D01*
X141374Y116251D02*
X139041D01*
X141374Y118583D01*
Y119166D01*
X140790Y119749D01*
X139624D01*
X139041Y119166D01*
X117542Y25166D02*
X116959Y25749D01*
X115793D01*
X115210Y25166D01*
Y22834D01*
X115793Y22251D01*
X116959D01*
X117542Y22834D01*
X118708Y22251D02*
X119875D01*
X119292D01*
Y25749D01*
X118708Y25166D01*
X121624Y22251D02*
X122790D01*
X122207D01*
Y25749D01*
X121624Y25166D01*
X204363Y19868D02*
X204946Y20451D01*
Y21617D01*
X204363Y22200D01*
X202031D01*
X201447Y21617D01*
Y20451D01*
X202031Y19868D01*
X201447Y18701D02*
Y17535D01*
Y18118D01*
X204946D01*
X204363Y18701D01*
Y15786D02*
X204946Y15203D01*
Y14036D01*
X204363Y13453D01*
X202031D01*
X201447Y14036D01*
Y15203D01*
X202031Y15786D01*
X204363D01*
X122417Y35166D02*
X121834Y35749D01*
X120667D01*
X120084Y35166D01*
Y32834D01*
X120667Y32251D01*
X121834D01*
X122417Y32834D01*
X123583D02*
X124166Y32251D01*
X125333D01*
X125916Y32834D01*
Y35166D01*
X125333Y35749D01*
X124166D01*
X123583Y35166D01*
Y34583D01*
X124166Y34000D01*
X125916D01*
X103417Y47166D02*
X102834Y47749D01*
X101667D01*
X101084Y47166D01*
Y44834D01*
X101667Y44251D01*
X102834D01*
X103417Y44834D01*
X104583Y47166D02*
X105166Y47749D01*
X106333D01*
X106916Y47166D01*
Y46583D01*
X106333Y46000D01*
X106916Y45417D01*
Y44834D01*
X106333Y44251D01*
X105166D01*
X104583Y44834D01*
Y45417D01*
X105166Y46000D01*
X104583Y46583D01*
Y47166D01*
X105166Y46000D02*
X106333D01*
X96417Y144166D02*
X95834Y144749D01*
X94667D01*
X94084Y144166D01*
Y141834D01*
X94667Y141251D01*
X95834D01*
X96417Y141834D01*
X97583Y144749D02*
X99916D01*
Y144166D01*
X97583Y141834D01*
Y141251D01*
X232417Y135166D02*
X231834Y135749D01*
X230667D01*
X230084Y135166D01*
Y132834D01*
X230667Y132251D01*
X231834D01*
X232417Y132834D01*
X235916Y135749D02*
X234749Y135166D01*
X233583Y134000D01*
Y132834D01*
X234166Y132251D01*
X235333D01*
X235916Y132834D01*
Y133417D01*
X235333Y134000D01*
X233583D01*
X189417Y133166D02*
X188834Y133749D01*
X187667D01*
X187084Y133166D01*
Y130834D01*
X187667Y130251D01*
X188834D01*
X189417Y130834D01*
X192916Y133749D02*
X190583D01*
Y132000D01*
X191749Y132583D01*
X192333D01*
X192916Y132000D01*
Y130834D01*
X192333Y130251D01*
X191166D01*
X190583Y130834D01*
X157070Y145666D02*
X156487Y146249D01*
X155321D01*
X154738Y145666D01*
Y143334D01*
X155321Y142751D01*
X156487D01*
X157070Y143334D01*
X159986Y142751D02*
Y146249D01*
X158237Y144500D01*
X160569D01*
X199417Y133166D02*
X198834Y133749D01*
X197667D01*
X197084Y133166D01*
Y130834D01*
X197667Y130251D01*
X198834D01*
X199417Y130834D01*
X200583Y133166D02*
X201166Y133749D01*
X202333D01*
X202916Y133166D01*
Y132583D01*
X202333Y132000D01*
X201749D01*
X202333D01*
X202916Y131417D01*
Y130834D01*
X202333Y130251D01*
X201166D01*
X200583Y130834D01*
D14*
X159673Y189000D02*
D03*
X98673D02*
D03*
M02*
