G04*
G04 #@! TF.GenerationSoftware,Altium Limited,Altium Designer,21.9.2 (33)*
G04*
G04 Layer_Physical_Order=2*
G04 Layer_Color=36540*
%FSLAX25Y25*%
%MOIN*%
G70*
G04*
G04 #@! TF.SameCoordinates,BDB69366-DB8A-4EDD-9E17-6FFE98707952*
G04*
G04*
G04 #@! TF.FilePolarity,Positive*
G04*
G01*
G75*
%ADD56C,0.10039*%
%ADD57C,0.19685*%
%ADD59O,0.07874X0.15748*%
%ADD60O,0.15748X0.07874*%
%ADD62C,0.03000*%
G36*
X263918Y202672D02*
X263506Y202462D01*
X262126Y201459D01*
X260919Y200252D01*
X259916Y198872D01*
X259141Y197351D01*
X258613Y195728D01*
X258347Y194042D01*
Y193689D01*
X269189D01*
Y193189D01*
X269689D01*
Y182346D01*
X270042D01*
X271728Y182613D01*
X273351Y183141D01*
X274872Y183916D01*
X276252Y184919D01*
X277459Y186126D01*
X278462Y187506D01*
X279084Y188727D01*
X279584Y188607D01*
Y16393D01*
X279084Y16273D01*
X278462Y17494D01*
X277459Y18874D01*
X276252Y20081D01*
X274872Y21084D01*
X273351Y21859D01*
X271728Y22387D01*
X270042Y22654D01*
X269689D01*
Y11811D01*
X269189D01*
Y11311D01*
X258347D01*
Y10958D01*
X258613Y9272D01*
X259141Y7649D01*
X259916Y6128D01*
X260919Y4748D01*
X262126Y3541D01*
X263340Y2658D01*
X263178Y2158D01*
X17822D01*
X17660Y2658D01*
X18874Y3541D01*
X20081Y4748D01*
X21084Y6128D01*
X21859Y7649D01*
X22387Y9272D01*
X22654Y10958D01*
Y11311D01*
X11811D01*
Y11811D01*
X11311D01*
Y22654D01*
X10958D01*
X9272Y22387D01*
X7649Y21859D01*
X6128Y21084D01*
X4748Y20081D01*
X4046Y19380D01*
X3584Y19571D01*
Y185429D01*
X4046Y185620D01*
X4748Y184919D01*
X6128Y183916D01*
X7649Y183141D01*
X9272Y182613D01*
X10958Y182346D01*
X11311D01*
Y193189D01*
X11811D01*
Y193689D01*
X22654D01*
Y194042D01*
X22387Y195728D01*
X21859Y197351D01*
X21084Y198872D01*
X20081Y200252D01*
X18874Y201459D01*
X17494Y202462D01*
X17082Y202672D01*
X17199Y203158D01*
X263801D01*
X263918Y202672D01*
D02*
G37*
%LPC*%
G36*
X268689Y192689D02*
X258347D01*
Y192336D01*
X258613Y190650D01*
X259141Y189027D01*
X259916Y187506D01*
X260919Y186126D01*
X262126Y184919D01*
X263506Y183916D01*
X265027Y183141D01*
X266650Y182613D01*
X268336Y182346D01*
X268689D01*
Y192689D01*
D02*
G37*
G36*
X22654D02*
X12311D01*
Y182346D01*
X12664D01*
X14350Y182613D01*
X15973Y183141D01*
X17494Y183916D01*
X18874Y184919D01*
X20081Y186126D01*
X21084Y187506D01*
X21859Y189027D01*
X22387Y190650D01*
X22654Y192336D01*
Y192689D01*
D02*
G37*
G36*
X154418Y180100D02*
X153582D01*
X152810Y179780D01*
X152220Y179190D01*
X151900Y178418D01*
Y177582D01*
X152220Y176810D01*
X152810Y176220D01*
X153582Y175900D01*
X154418D01*
X155190Y176220D01*
X155780Y176810D01*
X156100Y177582D01*
Y178418D01*
X155780Y179190D01*
X155190Y179780D01*
X154418Y180100D01*
D02*
G37*
G36*
X236418Y179100D02*
X235582D01*
X234810Y178780D01*
X234220Y178190D01*
X233900Y177418D01*
Y176582D01*
X234220Y175810D01*
X234810Y175220D01*
X235582Y174900D01*
X236418D01*
X237190Y175220D01*
X237780Y175810D01*
X238100Y176582D01*
Y177418D01*
X237780Y178190D01*
X237190Y178780D01*
X236418Y179100D01*
D02*
G37*
G36*
X228418D02*
X227582D01*
X226810Y178780D01*
X226220Y178190D01*
X225900Y177418D01*
Y176582D01*
X226220Y175810D01*
X226810Y175220D01*
X227582Y174900D01*
X228418D01*
X229190Y175220D01*
X229780Y175810D01*
X230100Y176582D01*
Y177418D01*
X229780Y178190D01*
X229190Y178780D01*
X228418Y179100D01*
D02*
G37*
G36*
X263500Y176499D02*
Y174500D01*
X265499D01*
X265119Y175416D01*
X264416Y176119D01*
X263500Y176499D01*
D02*
G37*
G36*
X262500D02*
X261584Y176119D01*
X260881Y175416D01*
X260501Y174500D01*
X262500D01*
Y176499D01*
D02*
G37*
G36*
X80418Y177100D02*
X79582D01*
X78811Y176780D01*
X78220Y176190D01*
X77900Y175418D01*
Y174582D01*
X78220Y173810D01*
X78811Y173220D01*
X79582Y172900D01*
X80418D01*
X81190Y173220D01*
X81780Y173810D01*
X82100Y174582D01*
Y175418D01*
X81780Y176190D01*
X81190Y176780D01*
X80418Y177100D01*
D02*
G37*
G36*
X265499Y173500D02*
X263500D01*
Y171501D01*
X264416Y171881D01*
X265119Y172584D01*
X265499Y173500D01*
D02*
G37*
G36*
X262500D02*
X260501D01*
X260881Y172584D01*
X261584Y171881D01*
X262500Y171501D01*
Y173500D01*
D02*
G37*
G36*
X165500Y173499D02*
Y171500D01*
X167499D01*
X167119Y172416D01*
X166416Y173119D01*
X165500Y173499D01*
D02*
G37*
G36*
X164500D02*
X163584Y173119D01*
X162881Y172416D01*
X162501Y171500D01*
X164500D01*
Y173499D01*
D02*
G37*
G36*
X176609Y173088D02*
Y171089D01*
X178608D01*
X178229Y172005D01*
X177525Y172708D01*
X176609Y173088D01*
D02*
G37*
G36*
X175609D02*
X174693Y172708D01*
X173990Y172005D01*
X173610Y171089D01*
X175609D01*
Y173088D01*
D02*
G37*
G36*
X154418Y175100D02*
X153582D01*
X152810Y174780D01*
X152220Y174190D01*
X151900Y173418D01*
Y172582D01*
X152220Y171810D01*
X152810Y171220D01*
X153582Y170900D01*
X154418D01*
X155190Y171220D01*
X155780Y171810D01*
X156100Y172582D01*
Y173418D01*
X155780Y174190D01*
X155190Y174780D01*
X154418Y175100D01*
D02*
G37*
G36*
X104500Y172499D02*
Y170500D01*
X106499D01*
X106119Y171416D01*
X105416Y172119D01*
X104500Y172499D01*
D02*
G37*
G36*
X103500D02*
X102584Y172119D01*
X101881Y171416D01*
X101501Y170500D01*
X103500D01*
Y172499D01*
D02*
G37*
G36*
X167499Y170500D02*
X162501D01*
X162881Y169584D01*
X163584Y168881D01*
X163899Y168750D01*
Y168250D01*
X163584Y168119D01*
X162881Y167416D01*
X162501Y166500D01*
X167499D01*
X167119Y167416D01*
X166416Y168119D01*
X166101Y168250D01*
Y168750D01*
X166416Y168881D01*
X167119Y169584D01*
X167499Y170500D01*
D02*
G37*
G36*
X178608Y170089D02*
X173610D01*
X173990Y169173D01*
X174693Y168469D01*
X175332Y168205D01*
Y167664D01*
X174714Y167407D01*
X174010Y166704D01*
X173631Y165788D01*
X178629D01*
X178249Y166704D01*
X177546Y167407D01*
X176907Y167672D01*
Y168213D01*
X177525Y168469D01*
X178229Y169173D01*
X178608Y170089D01*
D02*
G37*
G36*
X106499Y169500D02*
X101501D01*
X101881Y168584D01*
X102584Y167881D01*
X102899Y167750D01*
Y167250D01*
X102584Y167119D01*
X101881Y166416D01*
X101501Y165500D01*
X106499D01*
X106119Y166416D01*
X105416Y167119D01*
X105101Y167250D01*
Y167750D01*
X105416Y167881D01*
X106119Y168584D01*
X106499Y169500D01*
D02*
G37*
G36*
X167499Y165500D02*
X165500D01*
Y163501D01*
X166416Y163881D01*
X167119Y164584D01*
X167499Y165500D01*
D02*
G37*
G36*
X164500D02*
X162501D01*
X162881Y164584D01*
X163584Y163881D01*
X164500Y163501D01*
Y165500D01*
D02*
G37*
G36*
X35271Y168545D02*
X35179D01*
Y163025D01*
X40698D01*
Y163118D01*
X40467Y164281D01*
X40013Y165376D01*
X39354Y166362D01*
X38516Y167201D01*
X37530Y167860D01*
X36435Y168313D01*
X35271Y168545D01*
D02*
G37*
G36*
X34179D02*
X34086D01*
X32923Y168313D01*
X31827Y167860D01*
X30841Y167201D01*
X30003Y166362D01*
X29344Y165376D01*
X28890Y164281D01*
X28659Y163118D01*
Y163025D01*
X34179D01*
Y168545D01*
D02*
G37*
G36*
X15271D02*
X15179D01*
Y163025D01*
X20698D01*
Y163118D01*
X20467Y164281D01*
X20013Y165376D01*
X19354Y166362D01*
X18516Y167201D01*
X17530Y167860D01*
X16434Y168313D01*
X15271Y168545D01*
D02*
G37*
G36*
X14179D02*
X14086D01*
X12923Y168313D01*
X11827Y167860D01*
X10841Y167201D01*
X10003Y166362D01*
X9344Y165376D01*
X8890Y164281D01*
X8659Y163118D01*
Y163025D01*
X14179D01*
Y168545D01*
D02*
G37*
G36*
X178629Y164788D02*
X176630D01*
Y162789D01*
X177546Y163169D01*
X178249Y163872D01*
X178629Y164788D01*
D02*
G37*
G36*
X175630D02*
X173631D01*
X174010Y163872D01*
X174714Y163169D01*
X175630Y162789D01*
Y164788D01*
D02*
G37*
G36*
X106499Y164500D02*
X104500D01*
Y162501D01*
X105416Y162881D01*
X106119Y163584D01*
X106499Y164500D01*
D02*
G37*
G36*
X103500D02*
X101501D01*
X101881Y163584D01*
X102584Y162881D01*
X103500Y162501D01*
Y164500D01*
D02*
G37*
G36*
X177418Y162100D02*
X176582D01*
X175810Y161780D01*
X175220Y161190D01*
X174900Y160418D01*
Y159582D01*
X175220Y158810D01*
X175810Y158220D01*
X176582Y157900D01*
X177418D01*
X178190Y158220D01*
X178780Y158810D01*
X179100Y159582D01*
Y160418D01*
X178780Y161190D01*
X178190Y161780D01*
X177418Y162100D01*
D02*
G37*
G36*
X101500Y159499D02*
Y157500D01*
X103499D01*
X103119Y158416D01*
X102416Y159119D01*
X101500Y159499D01*
D02*
G37*
G36*
X100500D02*
X99584Y159119D01*
X98881Y158416D01*
X98501Y157500D01*
X100500D01*
Y159499D01*
D02*
G37*
G36*
X40698Y162025D02*
X35179D01*
Y156505D01*
X35271D01*
X36435Y156737D01*
X37530Y157191D01*
X38516Y157849D01*
X39354Y158688D01*
X40013Y159674D01*
X40467Y160769D01*
X40698Y161932D01*
Y162025D01*
D02*
G37*
G36*
X34179D02*
X28659D01*
Y161932D01*
X28890Y160769D01*
X29344Y159674D01*
X30003Y158688D01*
X30841Y157849D01*
X31827Y157191D01*
X32923Y156737D01*
X34086Y156505D01*
X34179D01*
Y162025D01*
D02*
G37*
G36*
X20698D02*
X15179D01*
Y156505D01*
X15271D01*
X16434Y156737D01*
X17530Y157191D01*
X18516Y157849D01*
X19354Y158688D01*
X20013Y159674D01*
X20467Y160769D01*
X20698Y161932D01*
Y162025D01*
D02*
G37*
G36*
X14179D02*
X8659D01*
Y161932D01*
X8890Y160769D01*
X9344Y159674D01*
X10003Y158688D01*
X10841Y157849D01*
X11827Y157191D01*
X12923Y156737D01*
X14086Y156505D01*
X14179D01*
Y162025D01*
D02*
G37*
G36*
X103499Y156500D02*
X101500D01*
Y154501D01*
X102416Y154881D01*
X103119Y155584D01*
X103499Y156500D01*
D02*
G37*
G36*
X100500D02*
X98501D01*
X98881Y155584D01*
X99584Y154881D01*
X100500Y154501D01*
Y156500D01*
D02*
G37*
G36*
X165807Y153999D02*
Y152000D01*
X167806D01*
X167427Y152916D01*
X166723Y153619D01*
X165807Y153999D01*
D02*
G37*
G36*
X164807D02*
X163891Y153619D01*
X163188Y152916D01*
X162808Y152000D01*
X164807D01*
Y153999D01*
D02*
G37*
G36*
X73500Y153499D02*
Y151500D01*
X75499D01*
X75119Y152416D01*
X74416Y153119D01*
X73500Y153499D01*
D02*
G37*
G36*
X72500D02*
X71584Y153119D01*
X70881Y152416D01*
X70501Y151500D01*
X72500D01*
Y153499D01*
D02*
G37*
G36*
X135500Y152499D02*
Y150500D01*
X137499D01*
X137119Y151416D01*
X136416Y152119D01*
X135500Y152499D01*
D02*
G37*
G36*
X134500D02*
X133584Y152119D01*
X132881Y151416D01*
X132501Y150500D01*
X134500D01*
Y152499D01*
D02*
G37*
G36*
X167806Y151000D02*
X165807D01*
Y149001D01*
X166723Y149381D01*
X167427Y150084D01*
X167806Y151000D01*
D02*
G37*
G36*
X164807D02*
X162808D01*
X163188Y150084D01*
X163891Y149381D01*
X164807Y149001D01*
Y151000D01*
D02*
G37*
G36*
X75499Y150500D02*
X73500D01*
Y148501D01*
X74416Y148881D01*
X75119Y149584D01*
X75499Y150500D01*
D02*
G37*
G36*
X72500D02*
X70501D01*
X70881Y149584D01*
X71584Y148881D01*
X72500Y148501D01*
Y150500D01*
D02*
G37*
G36*
X137499Y149500D02*
X135500D01*
Y147501D01*
X136416Y147881D01*
X137119Y148584D01*
X137499Y149500D01*
D02*
G37*
G36*
X134500D02*
X132501D01*
X132881Y148584D01*
X133584Y147881D01*
X134500Y147501D01*
Y149500D01*
D02*
G37*
G36*
X29708Y157554D02*
X19649D01*
Y147496D01*
X29708D01*
Y157554D01*
D02*
G37*
G36*
X35271Y148545D02*
X35179D01*
Y143025D01*
X40698D01*
Y143118D01*
X40467Y144281D01*
X40013Y145377D01*
X39354Y146362D01*
X38516Y147201D01*
X37530Y147860D01*
X36435Y148313D01*
X35271Y148545D01*
D02*
G37*
G36*
X34179D02*
X34086D01*
X32923Y148313D01*
X31827Y147860D01*
X30841Y147201D01*
X30003Y146362D01*
X29344Y145377D01*
X28890Y144281D01*
X28659Y143118D01*
Y143025D01*
X34179D01*
Y148545D01*
D02*
G37*
G36*
X15271D02*
X15179D01*
Y143025D01*
X20698D01*
Y143118D01*
X20467Y144281D01*
X20013Y145377D01*
X19354Y146362D01*
X18516Y147201D01*
X17530Y147860D01*
X16434Y148313D01*
X15271Y148545D01*
D02*
G37*
G36*
X14179D02*
X14086D01*
X12923Y148313D01*
X11827Y147860D01*
X10841Y147201D01*
X10003Y146362D01*
X9344Y145377D01*
X8890Y144281D01*
X8659Y143118D01*
Y143025D01*
X14179D01*
Y148545D01*
D02*
G37*
G36*
X242500Y141499D02*
Y139500D01*
X244499D01*
X244119Y140416D01*
X243416Y141119D01*
X242500Y141499D01*
D02*
G37*
G36*
X241500D02*
X240584Y141119D01*
X239881Y140416D01*
X239501Y139500D01*
X241500D01*
Y141499D01*
D02*
G37*
G36*
X232500D02*
Y139500D01*
X234499D01*
X234119Y140416D01*
X233416Y141119D01*
X232500Y141499D01*
D02*
G37*
G36*
X231500D02*
X230584Y141119D01*
X229881Y140416D01*
X229501Y139500D01*
X231500D01*
Y141499D01*
D02*
G37*
G36*
X222500D02*
Y139500D01*
X224499D01*
X224119Y140416D01*
X223416Y141119D01*
X222500Y141499D01*
D02*
G37*
G36*
X221500D02*
X220584Y141119D01*
X219881Y140416D01*
X219501Y139500D01*
X221500D01*
Y141499D01*
D02*
G37*
G36*
X199500Y139499D02*
Y137500D01*
X201499D01*
X201119Y138416D01*
X200416Y139119D01*
X199500Y139499D01*
D02*
G37*
G36*
X198500D02*
X197584Y139119D01*
X196881Y138416D01*
X196501Y137500D01*
X198500D01*
Y139499D01*
D02*
G37*
G36*
X190500D02*
Y137500D01*
X192499D01*
X192119Y138416D01*
X191416Y139119D01*
X190500Y139499D01*
D02*
G37*
G36*
X189500D02*
X188584Y139119D01*
X187881Y138416D01*
X187501Y137500D01*
X189500D01*
Y139499D01*
D02*
G37*
G36*
X181500D02*
Y137500D01*
X183499D01*
X183119Y138416D01*
X182416Y139119D01*
X181500Y139499D01*
D02*
G37*
G36*
X180500D02*
X179584Y139119D01*
X178881Y138416D01*
X178501Y137500D01*
X180500D01*
Y139499D01*
D02*
G37*
G36*
X40698Y142025D02*
X35179D01*
Y136505D01*
X35271D01*
X36435Y136737D01*
X37530Y137190D01*
X38516Y137849D01*
X39354Y138688D01*
X40013Y139674D01*
X40467Y140769D01*
X40698Y141932D01*
Y142025D01*
D02*
G37*
G36*
X34179D02*
X28659D01*
Y141932D01*
X28890Y140769D01*
X29344Y139674D01*
X30003Y138688D01*
X30841Y137849D01*
X31827Y137190D01*
X32923Y136737D01*
X34086Y136505D01*
X34179D01*
Y142025D01*
D02*
G37*
G36*
X20698D02*
X15179D01*
Y136505D01*
X15271D01*
X16434Y136737D01*
X17530Y137190D01*
X18516Y137849D01*
X19354Y138688D01*
X20013Y139674D01*
X20467Y140769D01*
X20698Y141932D01*
Y142025D01*
D02*
G37*
G36*
X14179D02*
X8659D01*
Y141932D01*
X8890Y140769D01*
X9344Y139674D01*
X10003Y138688D01*
X10841Y137849D01*
X11827Y137190D01*
X12923Y136737D01*
X14086Y136505D01*
X14179D01*
Y142025D01*
D02*
G37*
G36*
X244499Y138500D02*
X242500D01*
Y136501D01*
X243416Y136881D01*
X244119Y137584D01*
X244499Y138500D01*
D02*
G37*
G36*
X241500D02*
X239501D01*
X239881Y137584D01*
X240584Y136881D01*
X241500Y136501D01*
Y138500D01*
D02*
G37*
G36*
X234499D02*
X232500D01*
Y136501D01*
X233416Y136881D01*
X234119Y137584D01*
X234499Y138500D01*
D02*
G37*
G36*
X231500D02*
X229501D01*
X229881Y137584D01*
X230584Y136881D01*
X231500Y136501D01*
Y138500D01*
D02*
G37*
G36*
X224499D02*
X222500D01*
Y136501D01*
X223416Y136881D01*
X224119Y137584D01*
X224499Y138500D01*
D02*
G37*
G36*
X221500D02*
X219501D01*
X219881Y137584D01*
X220584Y136881D01*
X221500Y136501D01*
Y138500D01*
D02*
G37*
G36*
X201499Y136500D02*
X199500D01*
Y134501D01*
X200416Y134881D01*
X201119Y135584D01*
X201499Y136500D01*
D02*
G37*
G36*
X198500D02*
X196501D01*
X196881Y135584D01*
X197584Y134881D01*
X198500Y134501D01*
Y136500D01*
D02*
G37*
G36*
X192499D02*
X190500D01*
Y134501D01*
X191416Y134881D01*
X192119Y135584D01*
X192499Y136500D01*
D02*
G37*
G36*
X189500D02*
X187501D01*
X187881Y135584D01*
X188584Y134881D01*
X189500Y134501D01*
Y136500D01*
D02*
G37*
G36*
X183499D02*
X181500D01*
Y134501D01*
X182416Y134881D01*
X183119Y135584D01*
X183499Y136500D01*
D02*
G37*
G36*
X180500D02*
X178501D01*
X178881Y135584D01*
X179584Y134881D01*
X180500Y134501D01*
Y136500D01*
D02*
G37*
G36*
X151500Y123499D02*
Y121500D01*
X153499D01*
X153119Y122416D01*
X152416Y123119D01*
X151500Y123499D01*
D02*
G37*
G36*
X150500D02*
X149584Y123119D01*
X148881Y122416D01*
X148501Y121500D01*
X150500D01*
Y123499D01*
D02*
G37*
G36*
X153499Y120500D02*
X151500D01*
Y118501D01*
X152416Y118881D01*
X153119Y119584D01*
X153499Y120500D01*
D02*
G37*
G36*
X150500D02*
X148501D01*
X148881Y119584D01*
X149584Y118881D01*
X150500Y118501D01*
Y120500D01*
D02*
G37*
G36*
X172914Y122431D02*
X172078D01*
X171307Y122111D01*
X170716Y121520D01*
X170396Y120748D01*
Y119913D01*
X170716Y119141D01*
X171307Y118550D01*
X172078Y118231D01*
X172914D01*
X173686Y118550D01*
X174276Y119141D01*
X174596Y119913D01*
Y120748D01*
X174276Y121520D01*
X173686Y122111D01*
X172914Y122431D01*
D02*
G37*
G36*
X262874Y119696D02*
X259437D01*
Y115217D01*
X267788D01*
X267684Y116005D01*
X267186Y117206D01*
X266395Y118238D01*
X265364Y119029D01*
X264163Y119527D01*
X262874Y119696D01*
D02*
G37*
G36*
X258437D02*
X255000D01*
X253711Y119527D01*
X252510Y119029D01*
X251479Y118238D01*
X250688Y117206D01*
X250190Y116005D01*
X250086Y115217D01*
X258437D01*
Y119696D01*
D02*
G37*
G36*
X166500Y112499D02*
Y110500D01*
X168499D01*
X168119Y111416D01*
X167416Y112119D01*
X166500Y112499D01*
D02*
G37*
G36*
X165500D02*
X164584Y112119D01*
X163881Y111416D01*
X163501Y110500D01*
X165500D01*
Y112499D01*
D02*
G37*
G36*
X267788Y114216D02*
X259437D01*
Y109737D01*
X262874D01*
X264163Y109907D01*
X265364Y110404D01*
X266395Y111195D01*
X267186Y112227D01*
X267684Y113428D01*
X267788Y114216D01*
D02*
G37*
G36*
X258437D02*
X250086D01*
X250190Y113428D01*
X250688Y112227D01*
X251479Y111195D01*
X252510Y110404D01*
X253711Y109907D01*
X255000Y109737D01*
X258437D01*
Y114216D01*
D02*
G37*
G36*
X35271Y113907D02*
X35179D01*
Y108388D01*
X40698D01*
Y108481D01*
X40467Y109644D01*
X40013Y110739D01*
X39354Y111725D01*
X38516Y112564D01*
X37530Y113222D01*
X36435Y113676D01*
X35271Y113907D01*
D02*
G37*
G36*
X34179D02*
X34086D01*
X32923Y113676D01*
X31827Y113222D01*
X30841Y112564D01*
X30003Y111725D01*
X29344Y110739D01*
X28890Y109644D01*
X28659Y108481D01*
Y108388D01*
X34179D01*
Y113907D01*
D02*
G37*
G36*
X15271D02*
X15179D01*
Y108388D01*
X20698D01*
Y108481D01*
X20467Y109644D01*
X20013Y110739D01*
X19354Y111725D01*
X18516Y112564D01*
X17530Y113222D01*
X16434Y113676D01*
X15271Y113907D01*
D02*
G37*
G36*
X14179D02*
X14086D01*
X12923Y113676D01*
X11827Y113222D01*
X10841Y112564D01*
X10003Y111725D01*
X9344Y110739D01*
X8890Y109644D01*
X8659Y108481D01*
Y108388D01*
X14179D01*
Y113907D01*
D02*
G37*
G36*
X168499Y109500D02*
X166500D01*
Y107501D01*
X167416Y107881D01*
X168119Y108584D01*
X168499Y109500D01*
D02*
G37*
G36*
X165500D02*
X163501D01*
X163881Y108584D01*
X164584Y107881D01*
X165500Y107501D01*
Y109500D01*
D02*
G37*
G36*
X40698Y107388D02*
X35179D01*
Y101868D01*
X35271D01*
X36435Y102099D01*
X37530Y102553D01*
X38516Y103212D01*
X39354Y104051D01*
X40013Y105036D01*
X40467Y106132D01*
X40698Y107295D01*
Y107388D01*
D02*
G37*
G36*
X34179D02*
X28659D01*
Y107295D01*
X28890Y106132D01*
X29344Y105036D01*
X30003Y104051D01*
X30841Y103212D01*
X31827Y102553D01*
X32923Y102099D01*
X34086Y101868D01*
X34179D01*
Y107388D01*
D02*
G37*
G36*
X20698D02*
X15179D01*
Y101868D01*
X15271D01*
X16434Y102099D01*
X17530Y102553D01*
X18516Y103212D01*
X19354Y104051D01*
X20013Y105036D01*
X20467Y106132D01*
X20698Y107295D01*
Y107388D01*
D02*
G37*
G36*
X14179D02*
X8659D01*
Y107295D01*
X8890Y106132D01*
X9344Y105036D01*
X10003Y104051D01*
X10841Y103212D01*
X11827Y102553D01*
X12923Y102099D01*
X14086Y101868D01*
X14179D01*
Y107388D01*
D02*
G37*
G36*
X255500Y105851D02*
Y97500D01*
X259980D01*
Y100937D01*
X259810Y102226D01*
X259313Y103427D01*
X258521Y104458D01*
X257490Y105250D01*
X256289Y105747D01*
X255500Y105851D01*
D02*
G37*
G36*
X254500Y105851D02*
X253711Y105747D01*
X252510Y105250D01*
X251479Y104458D01*
X250688Y103427D01*
X250190Y102226D01*
X250020Y100937D01*
Y97500D01*
X254500D01*
Y105851D01*
D02*
G37*
G36*
X176418Y98100D02*
X175582D01*
X174810Y97780D01*
X174220Y97189D01*
X173900Y96418D01*
Y95582D01*
X174220Y94810D01*
X174810Y94220D01*
X175582Y93900D01*
X176418D01*
X177190Y94220D01*
X177780Y94810D01*
X178100Y95582D01*
Y96418D01*
X177780Y97189D01*
X177190Y97780D01*
X176418Y98100D01*
D02*
G37*
G36*
X267305Y100750D02*
X266317D01*
X265364Y100494D01*
X264509Y100000D01*
X263811Y99302D01*
X263317Y98447D01*
X263061Y97494D01*
Y96506D01*
X263317Y95553D01*
X263811Y94698D01*
X264509Y94000D01*
X265364Y93506D01*
X266317Y93250D01*
X267305D01*
X268258Y93506D01*
X269113Y94000D01*
X269812Y94698D01*
X270305Y95553D01*
X270561Y96506D01*
Y97494D01*
X270305Y98447D01*
X269812Y99302D01*
X269113Y100000D01*
X268258Y100494D01*
X267305Y100750D01*
D02*
G37*
G36*
X151418Y97100D02*
X150582D01*
X149810Y96780D01*
X149220Y96189D01*
X148900Y95418D01*
Y94582D01*
X149220Y93810D01*
X149810Y93220D01*
X150582Y92900D01*
X151418D01*
X152190Y93220D01*
X152780Y93810D01*
X153100Y94582D01*
Y95418D01*
X152780Y96189D01*
X152190Y96780D01*
X151418Y97100D01*
D02*
G37*
G36*
X29708Y102917D02*
X19649D01*
Y92859D01*
X29708D01*
Y102917D01*
D02*
G37*
G36*
X35271Y93907D02*
X35179D01*
Y88388D01*
X40698D01*
Y88481D01*
X40467Y89644D01*
X40013Y90739D01*
X39354Y91725D01*
X38516Y92564D01*
X37530Y93222D01*
X36435Y93676D01*
X35271Y93907D01*
D02*
G37*
G36*
X34179D02*
X34086D01*
X32923Y93676D01*
X31827Y93222D01*
X30841Y92564D01*
X30003Y91725D01*
X29344Y90739D01*
X28890Y89644D01*
X28659Y88481D01*
Y88388D01*
X34179D01*
Y93907D01*
D02*
G37*
G36*
X15271D02*
X15179D01*
Y88388D01*
X20698D01*
Y88481D01*
X20467Y89644D01*
X20013Y90739D01*
X19354Y91725D01*
X18516Y92564D01*
X17530Y93222D01*
X16434Y93676D01*
X15271Y93907D01*
D02*
G37*
G36*
X14179D02*
X14086D01*
X12923Y93676D01*
X11827Y93222D01*
X10841Y92564D01*
X10003Y91725D01*
X9344Y90739D01*
X8890Y89644D01*
X8659Y88481D01*
Y88388D01*
X14179D01*
Y93907D01*
D02*
G37*
G36*
X259980Y96500D02*
X255500D01*
Y88149D01*
X256289Y88253D01*
X257490Y88750D01*
X258521Y89542D01*
X259313Y90573D01*
X259810Y91774D01*
X259980Y93063D01*
Y96500D01*
D02*
G37*
G36*
X254500D02*
X250020D01*
Y93063D01*
X250190Y91774D01*
X250688Y90573D01*
X251479Y89542D01*
X252510Y88750D01*
X253711Y88253D01*
X254500Y88149D01*
Y96500D01*
D02*
G37*
G36*
X231378Y106502D02*
X230065Y106329D01*
X228842Y105822D01*
X227791Y105016D01*
X226985Y103965D01*
X226478Y102742D01*
X226305Y101429D01*
Y92571D01*
X226478Y91258D01*
X226985Y90035D01*
X227791Y88984D01*
X228842Y88178D01*
X230065Y87671D01*
X231378Y87498D01*
X232691Y87671D01*
X233914Y88178D01*
X234965Y88984D01*
X235771Y90035D01*
X236278Y91258D01*
X236451Y92571D01*
Y101429D01*
X236278Y102742D01*
X235771Y103965D01*
X234965Y105016D01*
X233914Y105822D01*
X232691Y106329D01*
X231378Y106502D01*
D02*
G37*
G36*
X162500Y87499D02*
Y85500D01*
X164499D01*
X164119Y86416D01*
X163416Y87119D01*
X162500Y87499D01*
D02*
G37*
G36*
X161500D02*
X160584Y87119D01*
X159881Y86416D01*
X159501Y85500D01*
X161500D01*
Y87499D01*
D02*
G37*
G36*
X164499Y84500D02*
X162500D01*
Y82501D01*
X163416Y82881D01*
X164119Y83584D01*
X164499Y84500D01*
D02*
G37*
G36*
X161500D02*
X159501D01*
X159881Y83584D01*
X160584Y82881D01*
X161500Y82501D01*
Y84500D01*
D02*
G37*
G36*
X40698Y87388D02*
X35179D01*
Y81868D01*
X35271D01*
X36435Y82099D01*
X37530Y82553D01*
X38516Y83212D01*
X39354Y84051D01*
X40013Y85036D01*
X40467Y86132D01*
X40698Y87295D01*
Y87388D01*
D02*
G37*
G36*
X34179D02*
X28659D01*
Y87295D01*
X28890Y86132D01*
X29344Y85036D01*
X30003Y84051D01*
X30841Y83212D01*
X31827Y82553D01*
X32923Y82099D01*
X34086Y81868D01*
X34179D01*
Y87388D01*
D02*
G37*
G36*
X20698D02*
X15179D01*
Y81868D01*
X15271D01*
X16434Y82099D01*
X17530Y82553D01*
X18516Y83212D01*
X19354Y84051D01*
X20013Y85036D01*
X20467Y86132D01*
X20698Y87295D01*
Y87388D01*
D02*
G37*
G36*
X14179D02*
X8659D01*
Y87295D01*
X8890Y86132D01*
X9344Y85036D01*
X10003Y84051D01*
X10841Y83212D01*
X11827Y82553D01*
X12923Y82099D01*
X14086Y81868D01*
X14179D01*
Y87388D01*
D02*
G37*
G36*
X262874Y84263D02*
X259437D01*
Y79783D01*
X267788D01*
X267684Y80572D01*
X267186Y81773D01*
X266395Y82805D01*
X265364Y83596D01*
X264163Y84093D01*
X262874Y84263D01*
D02*
G37*
G36*
X258437D02*
X255000D01*
X253711Y84093D01*
X252510Y83596D01*
X251479Y82805D01*
X250688Y81773D01*
X250190Y80572D01*
X250086Y79783D01*
X258437D01*
Y84263D01*
D02*
G37*
G36*
X267788Y78784D02*
X259437D01*
Y74304D01*
X262874D01*
X264163Y74474D01*
X265364Y74971D01*
X266395Y75762D01*
X267186Y76794D01*
X267684Y77995D01*
X267788Y78784D01*
D02*
G37*
G36*
X258437D02*
X250086D01*
X250190Y77995D01*
X250688Y76794D01*
X251479Y75762D01*
X252510Y74971D01*
X253711Y74474D01*
X255000Y74304D01*
X258437D01*
Y78784D01*
D02*
G37*
G36*
X194500Y68499D02*
Y66500D01*
X196499D01*
X196119Y67416D01*
X195416Y68119D01*
X194500Y68499D01*
D02*
G37*
G36*
X193500D02*
X192584Y68119D01*
X191881Y67416D01*
X191501Y66500D01*
X193500D01*
Y68499D01*
D02*
G37*
G36*
X196499Y65500D02*
X194500D01*
Y63501D01*
X195416Y63881D01*
X196119Y64584D01*
X196499Y65500D01*
D02*
G37*
G36*
X193500D02*
X191501D01*
X191881Y64584D01*
X192584Y63881D01*
X193500Y63501D01*
Y65500D01*
D02*
G37*
G36*
X103500Y63499D02*
Y61500D01*
X105499D01*
X105119Y62416D01*
X104416Y63119D01*
X103500Y63499D01*
D02*
G37*
G36*
X102500D02*
X101584Y63119D01*
X100881Y62416D01*
X100501Y61500D01*
X102500D01*
Y63499D01*
D02*
G37*
G36*
X35271Y65016D02*
X35179D01*
Y59496D01*
X40698D01*
Y59589D01*
X40467Y60752D01*
X40013Y61847D01*
X39354Y62833D01*
X38516Y63672D01*
X37530Y64331D01*
X36435Y64784D01*
X35271Y65016D01*
D02*
G37*
G36*
X34179D02*
X34086D01*
X32923Y64784D01*
X31827Y64331D01*
X30841Y63672D01*
X30003Y62833D01*
X29344Y61847D01*
X28890Y60752D01*
X28659Y59589D01*
Y59496D01*
X34179D01*
Y65016D01*
D02*
G37*
G36*
X15271D02*
X15179D01*
Y59496D01*
X20698D01*
Y59589D01*
X20467Y60752D01*
X20013Y61847D01*
X19354Y62833D01*
X18516Y63672D01*
X17530Y64331D01*
X16434Y64784D01*
X15271Y65016D01*
D02*
G37*
G36*
X14179D02*
X14086D01*
X12923Y64784D01*
X11827Y64331D01*
X10841Y63672D01*
X10003Y62833D01*
X9344Y61847D01*
X8890Y60752D01*
X8659Y59589D01*
Y59496D01*
X14179D01*
Y65016D01*
D02*
G37*
G36*
X105499Y60500D02*
X103500D01*
Y58501D01*
X104416Y58881D01*
X105119Y59584D01*
X105499Y60500D01*
D02*
G37*
G36*
X102500D02*
X100501D01*
X100881Y59584D01*
X101584Y58881D01*
X102500Y58501D01*
Y60500D01*
D02*
G37*
G36*
X249170Y62122D02*
X249077D01*
Y56602D01*
X254596D01*
Y56695D01*
X254365Y57858D01*
X253911Y58954D01*
X253253Y59940D01*
X252414Y60778D01*
X251428Y61437D01*
X250333Y61891D01*
X249170Y62122D01*
D02*
G37*
G36*
X269170D02*
X269077D01*
Y56602D01*
X274596D01*
Y56695D01*
X274365Y57858D01*
X273911Y58954D01*
X273253Y59940D01*
X272414Y60778D01*
X271428Y61437D01*
X270333Y61891D01*
X269170Y62122D01*
D02*
G37*
G36*
X248077D02*
X247984D01*
X246821Y61891D01*
X245725Y61437D01*
X244739Y60778D01*
X243901Y59940D01*
X243242Y58954D01*
X242788Y57858D01*
X242557Y56695D01*
Y56602D01*
X248077D01*
Y62122D01*
D02*
G37*
G36*
X268077D02*
X267984D01*
X266821Y61891D01*
X265725Y61437D01*
X264739Y60778D01*
X263901Y59940D01*
X263242Y58954D01*
X262788Y57858D01*
X262557Y56695D01*
Y56602D01*
X268077D01*
Y62122D01*
D02*
G37*
G36*
X139500Y58499D02*
Y56500D01*
X141499D01*
X141119Y57416D01*
X140416Y58119D01*
X139500Y58499D01*
D02*
G37*
G36*
X138500D02*
X137584Y58119D01*
X136881Y57416D01*
X136501Y56500D01*
X138500D01*
Y58499D01*
D02*
G37*
G36*
X141499Y55500D02*
X139500D01*
Y53501D01*
X140416Y53881D01*
X141119Y54584D01*
X141499Y55500D01*
D02*
G37*
G36*
X138500D02*
X136501D01*
X136881Y54584D01*
X137584Y53881D01*
X138500Y53501D01*
Y55500D01*
D02*
G37*
G36*
X40698Y58496D02*
X35179D01*
Y52976D01*
X35271D01*
X36435Y53207D01*
X37530Y53661D01*
X38516Y54320D01*
X39354Y55159D01*
X40013Y56144D01*
X40467Y57240D01*
X40698Y58403D01*
Y58496D01*
D02*
G37*
G36*
X34179D02*
X28659D01*
Y58403D01*
X28890Y57240D01*
X29344Y56144D01*
X30003Y55159D01*
X30841Y54320D01*
X31827Y53661D01*
X32923Y53207D01*
X34086Y52976D01*
X34179D01*
Y58496D01*
D02*
G37*
G36*
X20698D02*
X15179D01*
Y52976D01*
X15271D01*
X16434Y53207D01*
X17530Y53661D01*
X18516Y54320D01*
X19354Y55159D01*
X20013Y56144D01*
X20467Y57240D01*
X20698Y58403D01*
Y58496D01*
D02*
G37*
G36*
X14179D02*
X8659D01*
Y58403D01*
X8890Y57240D01*
X9344Y56144D01*
X10003Y55159D01*
X10841Y54320D01*
X11827Y53661D01*
X12923Y53207D01*
X14086Y52976D01*
X14179D01*
Y58496D01*
D02*
G37*
G36*
X148500Y54499D02*
Y52500D01*
X150499D01*
X150119Y53416D01*
X149416Y54119D01*
X148500Y54499D01*
D02*
G37*
G36*
X147500D02*
X146584Y54119D01*
X145881Y53416D01*
X145501Y52500D01*
X147500D01*
Y54499D01*
D02*
G37*
G36*
X274596Y55602D02*
X269077D01*
Y50083D01*
X269170D01*
X270333Y50314D01*
X271428Y50768D01*
X272414Y51427D01*
X273253Y52265D01*
X273911Y53251D01*
X274365Y54347D01*
X274596Y55510D01*
Y55602D01*
D02*
G37*
G36*
X268077D02*
X262557D01*
Y55510D01*
X262788Y54347D01*
X263242Y53251D01*
X263901Y52265D01*
X264739Y51427D01*
X265725Y50768D01*
X266821Y50314D01*
X267984Y50083D01*
X268077D01*
Y55602D01*
D02*
G37*
G36*
X254596D02*
X249077D01*
Y50083D01*
X249170D01*
X250333Y50314D01*
X251428Y50768D01*
X252414Y51427D01*
X253253Y52265D01*
X253911Y53251D01*
X254365Y54347D01*
X254596Y55510D01*
Y55602D01*
D02*
G37*
G36*
X248077D02*
X242557D01*
Y55510D01*
X242788Y54347D01*
X243242Y53251D01*
X243901Y52265D01*
X244739Y51427D01*
X245725Y50768D01*
X246821Y50314D01*
X247984Y50083D01*
X248077D01*
Y55602D01*
D02*
G37*
G36*
X150499Y51500D02*
X148500D01*
Y49501D01*
X149416Y49881D01*
X150119Y50584D01*
X150499Y51500D01*
D02*
G37*
G36*
X147500D02*
X145501D01*
X145881Y50584D01*
X146584Y49881D01*
X147500Y49501D01*
Y51500D01*
D02*
G37*
G36*
X86913Y51539D02*
X86077D01*
X85305Y51219D01*
X84715Y50628D01*
X84395Y49856D01*
Y49021D01*
X84715Y48249D01*
X85305Y47658D01*
X86077Y47339D01*
X86913D01*
X87684Y47658D01*
X88275Y48249D01*
X88595Y49021D01*
Y49856D01*
X88275Y50628D01*
X87684Y51219D01*
X86913Y51539D01*
D02*
G37*
G36*
X29708Y54025D02*
X19649D01*
Y43967D01*
X29708D01*
Y54025D01*
D02*
G37*
G36*
X263606Y51131D02*
X253548D01*
Y41073D01*
X263606D01*
Y51131D01*
D02*
G37*
G36*
X104500Y42499D02*
Y40500D01*
X106499D01*
X106119Y41416D01*
X105416Y42119D01*
X104500Y42499D01*
D02*
G37*
G36*
X103500D02*
X102584Y42119D01*
X101881Y41416D01*
X101501Y40500D01*
X103500D01*
Y42499D01*
D02*
G37*
G36*
X35271Y45016D02*
X35179D01*
Y39496D01*
X40698D01*
Y39589D01*
X40467Y40752D01*
X40013Y41847D01*
X39354Y42833D01*
X38516Y43672D01*
X37530Y44330D01*
X36435Y44784D01*
X35271Y45016D01*
D02*
G37*
G36*
X34179D02*
X34086D01*
X32923Y44784D01*
X31827Y44330D01*
X30841Y43672D01*
X30003Y42833D01*
X29344Y41847D01*
X28890Y40752D01*
X28659Y39589D01*
Y39496D01*
X34179D01*
Y45016D01*
D02*
G37*
G36*
X15271D02*
X15179D01*
Y39496D01*
X20698D01*
Y39589D01*
X20467Y40752D01*
X20013Y41847D01*
X19354Y42833D01*
X18516Y43672D01*
X17530Y44330D01*
X16434Y44784D01*
X15271Y45016D01*
D02*
G37*
G36*
X14179D02*
X14086D01*
X12923Y44784D01*
X11827Y44330D01*
X10841Y43672D01*
X10003Y42833D01*
X9344Y41847D01*
X8890Y40752D01*
X8659Y39589D01*
Y39496D01*
X14179D01*
Y45016D01*
D02*
G37*
G36*
X97278Y41454D02*
Y39455D01*
X99277D01*
X98897Y40372D01*
X98194Y41075D01*
X97278Y41454D01*
D02*
G37*
G36*
X96278D02*
X95362Y41075D01*
X94658Y40372D01*
X94279Y39455D01*
X96278D01*
Y41454D01*
D02*
G37*
G36*
X106499Y39500D02*
X104500D01*
Y37501D01*
X105416Y37881D01*
X106119Y38584D01*
X106499Y39500D01*
D02*
G37*
G36*
X103500D02*
X101501D01*
X101881Y38584D01*
X102584Y37881D01*
X103500Y37501D01*
Y39500D01*
D02*
G37*
G36*
X249170Y42122D02*
X249077D01*
Y36602D01*
X254596D01*
Y36695D01*
X254365Y37858D01*
X253911Y38954D01*
X253253Y39940D01*
X252414Y40778D01*
X251428Y41437D01*
X250333Y41891D01*
X249170Y42122D01*
D02*
G37*
G36*
X269170D02*
X269077D01*
Y36602D01*
X274596D01*
Y36695D01*
X274365Y37858D01*
X273911Y38954D01*
X273253Y39940D01*
X272414Y40778D01*
X271428Y41437D01*
X270333Y41891D01*
X269170Y42122D01*
D02*
G37*
G36*
X248077D02*
X247984D01*
X246821Y41891D01*
X245725Y41437D01*
X244739Y40778D01*
X243901Y39940D01*
X243242Y38954D01*
X242788Y37858D01*
X242557Y36695D01*
Y36602D01*
X248077D01*
Y42122D01*
D02*
G37*
G36*
X268077D02*
X267984D01*
X266821Y41891D01*
X265725Y41437D01*
X264739Y40778D01*
X263901Y39940D01*
X263242Y38954D01*
X262788Y37858D01*
X262557Y36695D01*
Y36602D01*
X268077D01*
Y42122D01*
D02*
G37*
G36*
X99277Y38455D02*
X97278D01*
Y36457D01*
X98194Y36836D01*
X98897Y37539D01*
X99277Y38455D01*
D02*
G37*
G36*
X96278D02*
X94279D01*
X94658Y37539D01*
X95362Y36836D01*
X96278Y36457D01*
Y38455D01*
D02*
G37*
G36*
X40698Y38496D02*
X35179D01*
Y32976D01*
X35271D01*
X36435Y33207D01*
X37530Y33661D01*
X38516Y34320D01*
X39354Y35159D01*
X40013Y36145D01*
X40467Y37240D01*
X40698Y38403D01*
Y38496D01*
D02*
G37*
G36*
X34179D02*
X28659D01*
Y38403D01*
X28890Y37240D01*
X29344Y36145D01*
X30003Y35159D01*
X30841Y34320D01*
X31827Y33661D01*
X32923Y33207D01*
X34086Y32976D01*
X34179D01*
Y38496D01*
D02*
G37*
G36*
X20698D02*
X15179D01*
Y32976D01*
X15271D01*
X16434Y33207D01*
X17530Y33661D01*
X18516Y34320D01*
X19354Y35159D01*
X20013Y36145D01*
X20467Y37240D01*
X20698Y38403D01*
Y38496D01*
D02*
G37*
G36*
X14179D02*
X8659D01*
Y38403D01*
X8890Y37240D01*
X9344Y36145D01*
X10003Y35159D01*
X10841Y34320D01*
X11827Y33661D01*
X12923Y33207D01*
X14086Y32976D01*
X14179D01*
Y38496D01*
D02*
G37*
G36*
X274596Y35602D02*
X269077D01*
Y30083D01*
X269170D01*
X270333Y30314D01*
X271428Y30768D01*
X272414Y31427D01*
X273253Y32265D01*
X273911Y33251D01*
X274365Y34347D01*
X274596Y35509D01*
Y35602D01*
D02*
G37*
G36*
X268077D02*
X262557D01*
Y35509D01*
X262788Y34347D01*
X263242Y33251D01*
X263901Y32265D01*
X264739Y31427D01*
X265725Y30768D01*
X266821Y30314D01*
X267984Y30083D01*
X268077D01*
Y35602D01*
D02*
G37*
G36*
X254596D02*
X249077D01*
Y30083D01*
X249170D01*
X250333Y30314D01*
X251428Y30768D01*
X252414Y31427D01*
X253253Y32265D01*
X253911Y33251D01*
X254365Y34347D01*
X254596Y35509D01*
Y35602D01*
D02*
G37*
G36*
X248077D02*
X242557D01*
Y35509D01*
X242788Y34347D01*
X243242Y33251D01*
X243901Y32265D01*
X244739Y31427D01*
X245725Y30768D01*
X246821Y30314D01*
X247984Y30083D01*
X248077D01*
Y35602D01*
D02*
G37*
G36*
X177418Y34100D02*
X176582D01*
X175810Y33780D01*
X175220Y33190D01*
X174900Y32418D01*
Y31582D01*
X175220Y30810D01*
X175810Y30220D01*
X176582Y29900D01*
X177418D01*
X178190Y30220D01*
X178780Y30810D01*
X179100Y31582D01*
Y32418D01*
X178780Y33190D01*
X178190Y33780D01*
X177418Y34100D01*
D02*
G37*
G36*
X154418D02*
X153582D01*
X152810Y33780D01*
X152220Y33190D01*
X151900Y32418D01*
Y31582D01*
X152220Y30810D01*
X152810Y30220D01*
X153582Y29900D01*
X154418D01*
X155190Y30220D01*
X155780Y30810D01*
X156100Y31582D01*
Y32418D01*
X155780Y33190D01*
X155190Y33780D01*
X154418Y34100D01*
D02*
G37*
G36*
X138500Y30499D02*
Y28500D01*
X140499D01*
X140119Y29416D01*
X139416Y30119D01*
X138500Y30499D01*
D02*
G37*
G36*
X137500D02*
X136584Y30119D01*
X135881Y29416D01*
X135501Y28500D01*
X137500D01*
Y30499D01*
D02*
G37*
G36*
X203500Y28499D02*
Y26500D01*
X205499D01*
X205119Y27416D01*
X204416Y28119D01*
X203500Y28499D01*
D02*
G37*
G36*
X202500D02*
X201584Y28119D01*
X200881Y27416D01*
X200501Y26500D01*
X202500D01*
Y28499D01*
D02*
G37*
G36*
X130418Y30100D02*
X129582D01*
X128810Y29780D01*
X128220Y29190D01*
X127900Y28418D01*
Y27582D01*
X128220Y26810D01*
X128810Y26220D01*
X129582Y25900D01*
X130418D01*
X131190Y26220D01*
X131780Y26810D01*
X132100Y27582D01*
Y28418D01*
X131780Y29190D01*
X131190Y29780D01*
X130418Y30100D01*
D02*
G37*
G36*
X140499Y27500D02*
X138500D01*
Y25501D01*
X139416Y25881D01*
X140119Y26584D01*
X140499Y27500D01*
D02*
G37*
G36*
X137500D02*
X135501D01*
X135881Y26584D01*
X136584Y25881D01*
X137500Y25501D01*
Y27500D01*
D02*
G37*
G36*
X205499Y25500D02*
X203500D01*
Y23501D01*
X204416Y23881D01*
X205119Y24584D01*
X205499Y25500D01*
D02*
G37*
G36*
X202500D02*
X200501D01*
X200881Y24584D01*
X201584Y23881D01*
X202500Y23501D01*
Y25500D01*
D02*
G37*
G36*
X182500Y21499D02*
Y19500D01*
X184499D01*
X184119Y20416D01*
X183416Y21119D01*
X182500Y21499D01*
D02*
G37*
G36*
X181500D02*
X180584Y21119D01*
X179881Y20416D01*
X179501Y19500D01*
X181500D01*
Y21499D01*
D02*
G37*
G36*
X160500D02*
Y19500D01*
X162499D01*
X162119Y20416D01*
X161416Y21119D01*
X160500Y21499D01*
D02*
G37*
G36*
X159500D02*
X158584Y21119D01*
X157881Y20416D01*
X157501Y19500D01*
X159500D01*
Y21499D01*
D02*
G37*
G36*
X129154Y19499D02*
Y17500D01*
X131152D01*
X130773Y18416D01*
X130070Y19119D01*
X129154Y19499D01*
D02*
G37*
G36*
X128154D02*
X127237Y19119D01*
X126534Y18416D01*
X126155Y17500D01*
X128154D01*
Y19499D01*
D02*
G37*
G36*
X184499Y18500D02*
X182500D01*
Y16501D01*
X183416Y16881D01*
X184119Y17584D01*
X184499Y18500D01*
D02*
G37*
G36*
X181500D02*
X179501D01*
X179881Y17584D01*
X180584Y16881D01*
X181500Y16501D01*
Y18500D01*
D02*
G37*
G36*
X162499D02*
X160500D01*
Y16501D01*
X161416Y16881D01*
X162119Y17584D01*
X162499Y18500D01*
D02*
G37*
G36*
X159500D02*
X157501D01*
X157881Y17584D01*
X158584Y16881D01*
X159500Y16501D01*
Y18500D01*
D02*
G37*
G36*
X109101Y19531D02*
X108265D01*
X107493Y19211D01*
X106903Y18621D01*
X106583Y17849D01*
Y17013D01*
X106903Y16242D01*
X107493Y15651D01*
X108265Y15331D01*
X109101D01*
X109873Y15651D01*
X110463Y16242D01*
X110783Y17013D01*
Y17849D01*
X110463Y18621D01*
X109873Y19211D01*
X109101Y19531D01*
D02*
G37*
G36*
X131152Y16500D02*
X129154D01*
Y14501D01*
X130070Y14881D01*
X130773Y15584D01*
X131152Y16500D01*
D02*
G37*
G36*
X128154D02*
X126155D01*
X126534Y15584D01*
X127237Y14881D01*
X128154Y14501D01*
Y16500D01*
D02*
G37*
G36*
X268689Y22654D02*
X268336D01*
X266650Y22387D01*
X265027Y21859D01*
X263506Y21084D01*
X262126Y20081D01*
X260919Y18874D01*
X259916Y17494D01*
X259141Y15973D01*
X258613Y14350D01*
X258347Y12664D01*
Y12311D01*
X268689D01*
Y22654D01*
D02*
G37*
G36*
X12664D02*
X12311D01*
Y12311D01*
X22654D01*
Y12664D01*
X22387Y14350D01*
X21859Y15973D01*
X21084Y17494D01*
X20081Y18874D01*
X18874Y20081D01*
X17494Y21084D01*
X15973Y21859D01*
X14350Y22387D01*
X12664Y22654D01*
D02*
G37*
%LPD*%
D56*
X268577Y36102D02*
D03*
Y56102D02*
D03*
X248577D02*
D03*
Y36102D02*
D03*
X14679Y162525D02*
D03*
Y142525D02*
D03*
X34679D02*
D03*
Y162525D02*
D03*
Y107888D02*
D03*
Y87888D02*
D03*
X14679D02*
D03*
Y107888D02*
D03*
Y58996D02*
D03*
Y38996D02*
D03*
X34679D02*
D03*
Y58996D02*
D03*
D57*
X11811Y193189D02*
D03*
Y11811D02*
D03*
X269189Y193189D02*
D03*
Y11811D02*
D03*
D59*
X255000Y97000D02*
D03*
D60*
X258937Y79283D02*
D03*
Y114716D02*
D03*
D62*
X177000Y97000D02*
D03*
X195000Y22000D02*
D03*
X189900Y66000D02*
D03*
X272075Y141000D02*
D03*
X272439Y154000D02*
D03*
X199000Y137000D02*
D03*
X222000Y139000D02*
D03*
X232000D02*
D03*
X139000Y56000D02*
D03*
X135000Y150000D02*
D03*
X190000Y137000D02*
D03*
X181000D02*
D03*
X242000Y139000D02*
D03*
X182000Y19000D02*
D03*
X203000Y26000D02*
D03*
X148000Y52000D02*
D03*
X103000Y61000D02*
D03*
X138000Y28000D02*
D03*
X165307Y151500D02*
D03*
X166000Y110000D02*
D03*
X128654Y17000D02*
D03*
X159535Y85367D02*
D03*
X151000Y121000D02*
D03*
X96778Y38955D02*
D03*
X160000Y19000D02*
D03*
X101000Y157000D02*
D03*
X73000Y151000D02*
D03*
X104000Y170000D02*
D03*
Y165000D02*
D03*
X165000Y166000D02*
D03*
Y171000D02*
D03*
X176109Y170589D02*
D03*
X104000Y40000D02*
D03*
X176130Y165288D02*
D03*
M02*
