G04*
G04 #@! TF.GenerationSoftware,Altium Limited,Altium Designer,21.9.2 (33)*
G04*
G04 Layer_Color=32768*
%FSLAX25Y25*%
%MOIN*%
G70*
G04*
G04 #@! TF.SameCoordinates,5B497BFC-61BE-4FA5-8299-24AFF7FDC4DC*
G04*
G04*
G04 #@! TF.FilePolarity,Positive*
G04*
G01*
G75*
%ADD66C,0.00394*%
%ADD68C,0.00197*%
D66*
X-44101Y30039D02*
X43635D01*
Y67953D01*
X-44101D02*
X43635D01*
X-44101Y30039D02*
Y67953D01*
X239620Y65059D02*
X327356D01*
X239620Y27146D02*
Y65059D01*
Y27146D02*
X327356D01*
Y65059D01*
X242000Y146031D02*
Y149969D01*
X240032Y148000D02*
X243969D01*
X203197Y33575D02*
Y37512D01*
X201228Y35543D02*
X205165D01*
X95031Y151000D02*
X98968D01*
X97000Y149031D02*
Y152969D01*
X155339Y151500D02*
X159276D01*
X157307Y149531D02*
Y153469D01*
X71031Y159543D02*
X74968D01*
X73000Y157575D02*
Y161512D01*
X133031Y158457D02*
X136969D01*
X135000Y156488D02*
Y160425D01*
X71031Y173000D02*
X74968D01*
X73000Y171031D02*
Y174969D01*
X133031Y174205D02*
X136969D01*
X135000Y172236D02*
Y176173D01*
X193032Y36000D02*
X196968D01*
X195000Y34032D02*
Y37969D01*
X73032Y65000D02*
X76968D01*
X75000Y63032D02*
Y66969D01*
X220031Y148000D02*
X223969D01*
X222000Y146031D02*
Y149969D01*
X181000Y144032D02*
Y147968D01*
X179032Y146000D02*
X182968D01*
X192032Y58000D02*
X195968D01*
X194000Y56032D02*
Y59969D01*
X186000Y34032D02*
Y37969D01*
X184031Y36000D02*
X187969D01*
X182032Y111543D02*
X185968D01*
X184000Y109575D02*
Y113512D01*
Y96031D02*
Y99968D01*
X182032Y98000D02*
X185968D01*
X-44101Y133568D02*
X43635D01*
Y171482D01*
X-44101D02*
X43635D01*
X-44101Y133568D02*
Y171482D01*
Y78931D02*
Y116844D01*
X43635D01*
Y78931D02*
Y116844D01*
X-44101Y78931D02*
X43635D01*
X196000Y172031D02*
Y175969D01*
X194032Y174000D02*
X197968D01*
X232000Y172031D02*
Y175969D01*
X230031Y174000D02*
X233968D01*
X93000Y23031D02*
Y26969D01*
X91031Y25000D02*
X94968D01*
X92000Y55032D02*
Y58969D01*
X90031Y57000D02*
X93968D01*
X162819Y44134D02*
X166756D01*
X164787Y42165D02*
Y46102D01*
X159780Y107665D02*
X163716D01*
X161748Y105697D02*
Y109634D01*
X156032Y189000D02*
X159968D01*
X158000Y187031D02*
Y190969D01*
X158732Y165882D02*
Y169819D01*
X156764Y167850D02*
X160701D01*
X97000Y187031D02*
Y190969D01*
X95031Y189000D02*
X98968D01*
X97850Y165882D02*
Y169819D01*
X95882Y167850D02*
X99819D01*
X152032Y22346D02*
X155968D01*
X154000Y20378D02*
Y24315D01*
X173031Y22000D02*
X176969D01*
X175000Y20031D02*
Y23968D01*
X117032Y17000D02*
X120968D01*
X119000Y15032D02*
Y18969D01*
X90031Y45000D02*
X93968D01*
X92000Y43031D02*
Y46968D01*
X132032Y35000D02*
X135968D01*
X134000Y33031D02*
Y36968D01*
X139134Y105858D02*
Y109795D01*
X137165Y107827D02*
X141102D01*
X199000Y144032D02*
Y147968D01*
X197031Y146000D02*
X200969D01*
X190000Y144032D02*
Y147968D01*
X188031Y146000D02*
X191969D01*
X232000Y146031D02*
Y149969D01*
X230031Y148000D02*
X233968D01*
D68*
X238260Y154693D02*
X245740D01*
X238260Y141307D02*
X245740D01*
Y154693D01*
X238260Y141307D02*
Y154693D01*
X199457Y42236D02*
X206937D01*
X199457Y28850D02*
X206937D01*
Y42236D01*
X199457Y28850D02*
Y42236D01*
X103693Y147260D02*
Y154740D01*
X90307Y147260D02*
Y154740D01*
Y147260D02*
X103693D01*
X90307Y154740D02*
X103693D01*
X150614Y147760D02*
Y155240D01*
X164000Y147760D02*
Y155240D01*
X150614D02*
X164000D01*
X150614Y147760D02*
X164000D01*
X76740Y153047D02*
Y166039D01*
X69260Y153047D02*
Y166039D01*
X76740D01*
X69260Y153047D02*
X76740D01*
X138740Y151961D02*
Y164953D01*
X131260Y151961D02*
Y164953D01*
X138740D01*
X131260Y151961D02*
X138740D01*
X76740Y166504D02*
Y179496D01*
X69260Y166504D02*
Y179496D01*
X76740D01*
X69260Y166504D02*
X76740D01*
X138740Y167709D02*
Y180701D01*
X131260Y167709D02*
Y180701D01*
X138740D01*
X131260Y167709D02*
X138740D01*
X198740Y29504D02*
Y42496D01*
X191260Y29504D02*
Y42496D01*
X198740D01*
X191260Y29504D02*
X198740D01*
X78740Y58504D02*
Y71496D01*
X71260Y58504D02*
Y71496D01*
X78740D01*
X71260Y58504D02*
X78740D01*
X225740Y141504D02*
Y154496D01*
X218260Y141504D02*
Y154496D01*
X225740D01*
X218260Y141504D02*
X225740D01*
X177260Y139504D02*
X184740D01*
X177260Y152496D02*
X184740D01*
X177260Y139504D02*
Y152496D01*
X184740Y139504D02*
Y152496D01*
X197740Y51504D02*
Y64496D01*
X190260Y51504D02*
Y64496D01*
X197740D01*
X190260Y51504D02*
X197740D01*
X182260Y42496D02*
X189740D01*
X182260Y29504D02*
X189740D01*
Y42496D01*
X182260Y29504D02*
Y42496D01*
X180260Y105047D02*
Y118039D01*
X187740Y105047D02*
Y118039D01*
X180260Y105047D02*
X187740D01*
X180260Y118039D02*
X187740D01*
X180260Y91504D02*
X187740D01*
X180260Y104496D02*
X187740D01*
X180260Y91504D02*
Y104496D01*
X187740Y91504D02*
Y104496D01*
X181827Y156874D02*
X210173D01*
X181827Y191126D02*
X210173D01*
X181827Y156874D02*
Y191126D01*
X210173Y156874D02*
Y191126D01*
X217827Y156874D02*
X246173D01*
X217827Y191126D02*
X246173D01*
X217827Y156874D02*
Y191126D01*
X246173Y156874D02*
Y191126D01*
X78433Y35827D02*
X107567D01*
X78433Y14173D02*
X107567D01*
X78433D02*
Y35827D01*
X107567Y14173D02*
Y35827D01*
X83732Y64087D02*
X100268D01*
X83732Y49913D02*
X100268D01*
X83732D02*
Y64087D01*
X100268Y49913D02*
Y64087D01*
X125988Y41197D02*
X142720D01*
X125988D02*
Y54976D01*
X142720D01*
Y41197D02*
Y54976D01*
X179453Y33307D02*
Y54961D01*
X150122Y33307D02*
Y54961D01*
Y33307D02*
X179453D01*
X150122Y54961D02*
X179453D01*
X147181Y96839D02*
Y118492D01*
X176315Y96839D02*
Y118492D01*
X147181D02*
X176315D01*
X147181Y96839D02*
X176315D01*
X167842Y184079D02*
Y193921D01*
X148158Y184079D02*
Y193921D01*
Y184079D02*
X167842D01*
X148158Y193921D02*
X167842D01*
X143575Y156630D02*
X173890D01*
X143575Y179071D02*
X173890D01*
Y156630D02*
Y179071D01*
X143575Y156630D02*
Y179071D01*
X87157Y193921D02*
X106843D01*
X87157Y184079D02*
X106843D01*
X87157D02*
Y193921D01*
X106843Y184079D02*
Y193921D01*
X82693Y156630D02*
X113008D01*
X82693Y179071D02*
X113008D01*
Y156630D02*
Y179071D01*
X82693Y156630D02*
Y179071D01*
X226457Y76331D02*
Y87354D01*
Y76331D02*
X250079D01*
Y73968D02*
Y76331D01*
Y73968D02*
X268583D01*
Y76331D01*
X279606D01*
Y117669D01*
X267795D02*
X279606D01*
X267795D02*
Y119835D01*
X250079D02*
X267795D01*
X250079Y117669D02*
Y119835D01*
X226457Y117669D02*
X250079D01*
X226457Y105858D02*
Y117669D01*
X225866Y105858D02*
X226457D01*
X225866Y87354D02*
Y105858D01*
Y87354D02*
X226457D01*
X157740Y15653D02*
Y29039D01*
X150260Y15653D02*
Y29039D01*
X157740D01*
X150260Y15653D02*
X157740D01*
X178740Y15307D02*
Y28693D01*
X171260Y15307D02*
Y28693D01*
X178740D01*
X171260Y15307D02*
X178740D01*
X112307Y13260D02*
Y20740D01*
X125693Y13260D02*
Y20740D01*
X112307D02*
X125693D01*
X112307Y13260D02*
X125693D01*
X98693Y41260D02*
Y48740D01*
X85307Y41260D02*
Y48740D01*
Y41260D02*
X98693D01*
X85307Y48740D02*
X98693D01*
X127307Y31260D02*
Y38740D01*
X140693Y31260D02*
Y38740D01*
X127307D02*
X140693D01*
X127307Y31260D02*
X140693D01*
X135394Y114520D02*
X142874D01*
X135394Y101134D02*
X142874D01*
Y114520D01*
X135394Y101134D02*
Y114520D01*
X195260Y152693D02*
X202740D01*
X195260Y139307D02*
X202740D01*
Y152693D01*
X195260Y139307D02*
Y152693D01*
X186260D02*
X193740D01*
X186260Y139307D02*
X193740D01*
Y152693D01*
X186260Y139307D02*
Y152693D01*
X228260Y154693D02*
X235740D01*
X228260Y141307D02*
X235740D01*
Y154693D01*
X228260Y141307D02*
Y154693D01*
M02*
