G04*
G04 #@! TF.GenerationSoftware,Altium Limited,Altium Designer,21.9.2 (33)*
G04*
G04 Layer_Physical_Order=4*
G04 Layer_Color=16711680*
%FSLAX25Y25*%
%MOIN*%
G70*
G04*
G04 #@! TF.SameCoordinates,F86B88AB-77F1-441A-86F4-9EF021290F2A*
G04*
G04*
G04 #@! TF.FilePolarity,Positive*
G04*
G01*
G75*
%ADD55R,0.08858X0.08858*%
%ADD56C,0.10039*%
%ADD57C,0.19685*%
%ADD58O,0.08858X0.17717*%
%ADD59O,0.07874X0.15748*%
%ADD60O,0.15748X0.07874*%
%ADD61C,0.06299*%
%ADD62C,0.03000*%
G36*
X263607Y202514D02*
X263506Y202462D01*
X262126Y201459D01*
X260919Y200252D01*
X259916Y198872D01*
X259141Y197351D01*
X258613Y195728D01*
X258347Y194042D01*
Y193689D01*
X269189D01*
Y193189D01*
X269689D01*
Y182346D01*
X270042D01*
X271728Y182613D01*
X273351Y183141D01*
X274872Y183916D01*
X276252Y184919D01*
X277459Y186126D01*
X278462Y187506D01*
X278514Y187607D01*
X279000Y187491D01*
Y17509D01*
X278514Y17393D01*
X278462Y17494D01*
X277459Y18874D01*
X276252Y20081D01*
X274872Y21084D01*
X273351Y21859D01*
X271728Y22387D01*
X270042Y22654D01*
X269689D01*
Y11811D01*
X269189D01*
Y11311D01*
X258347D01*
Y10958D01*
X258613Y9272D01*
X259141Y7649D01*
X259916Y6128D01*
X260919Y4748D01*
X262126Y3541D01*
X263506Y2538D01*
X263607Y2486D01*
X263491Y2000D01*
X17509D01*
X17393Y2486D01*
X17494Y2538D01*
X18874Y3541D01*
X20081Y4748D01*
X21084Y6128D01*
X21859Y7649D01*
X22387Y9272D01*
X22654Y10958D01*
Y11311D01*
X11811D01*
Y11811D01*
X11311D01*
Y22654D01*
X10958D01*
X9272Y22387D01*
X7649Y21859D01*
X6128Y21084D01*
X4748Y20081D01*
X3541Y18874D01*
X3475Y18785D01*
X3000Y18939D01*
Y186061D01*
X3475Y186215D01*
X3541Y186126D01*
X4748Y184919D01*
X6128Y183916D01*
X7649Y183141D01*
X9272Y182613D01*
X10958Y182346D01*
X11311D01*
Y193189D01*
X11811D01*
Y193689D01*
X22654D01*
Y194042D01*
X22387Y195728D01*
X21859Y197351D01*
X21084Y198872D01*
X20081Y200252D01*
X18874Y201459D01*
X17494Y202462D01*
X17393Y202514D01*
X17509Y203000D01*
X263491D01*
X263607Y202514D01*
D02*
G37*
%LPC*%
G36*
X268689Y192689D02*
X258347D01*
Y192336D01*
X258613Y190650D01*
X259141Y189027D01*
X259916Y187506D01*
X260919Y186126D01*
X262126Y184919D01*
X263506Y183916D01*
X265027Y183141D01*
X266650Y182613D01*
X268336Y182346D01*
X268689D01*
Y192689D01*
D02*
G37*
G36*
X22654D02*
X12311D01*
Y182346D01*
X12664D01*
X14350Y182613D01*
X15973Y183141D01*
X17494Y183916D01*
X18874Y184919D01*
X20081Y186126D01*
X21084Y187506D01*
X21859Y189027D01*
X22387Y190650D01*
X22654Y192336D01*
Y192689D01*
D02*
G37*
G36*
X236461Y180500D02*
X235539D01*
X234649Y180262D01*
X233851Y179801D01*
X233199Y179149D01*
X232738Y178351D01*
X232500Y177461D01*
Y176539D01*
X232738Y175649D01*
X233199Y174851D01*
X233851Y174199D01*
X234649Y173739D01*
X235539Y173500D01*
X236461D01*
X237351Y173739D01*
X238149Y174199D01*
X238801Y174851D01*
X239262Y175649D01*
X239500Y176539D01*
Y177461D01*
X239262Y178351D01*
X238801Y179149D01*
X238149Y179801D01*
X237351Y180262D01*
X236461Y180500D01*
D02*
G37*
G36*
X228461D02*
X227539D01*
X226649Y180262D01*
X225851Y179801D01*
X225199Y179149D01*
X224739Y178351D01*
X224500Y177461D01*
Y176539D01*
X224739Y175649D01*
X225199Y174851D01*
X225851Y174199D01*
X226649Y173739D01*
X227539Y173500D01*
X228461D01*
X229351Y173739D01*
X230149Y174199D01*
X230801Y174851D01*
X231261Y175649D01*
X231500Y176539D01*
Y177461D01*
X231261Y178351D01*
X230801Y179149D01*
X230149Y179801D01*
X229351Y180262D01*
X228461Y180500D01*
D02*
G37*
G36*
X165500Y173499D02*
Y171500D01*
X167499D01*
X167119Y172416D01*
X166416Y173119D01*
X165500Y173499D01*
D02*
G37*
G36*
X164500D02*
X163584Y173119D01*
X162881Y172416D01*
X162501Y171500D01*
X164500D01*
Y173499D01*
D02*
G37*
G36*
X80461Y178500D02*
X79539D01*
X78649Y178261D01*
X77851Y177801D01*
X77199Y177149D01*
X76739Y176351D01*
X76500Y175461D01*
Y174539D01*
X76739Y173649D01*
X77199Y172851D01*
X77851Y172199D01*
X78649Y171739D01*
X79539Y171500D01*
X80461D01*
X81351Y171739D01*
X82149Y172199D01*
X82801Y172851D01*
X83262Y173649D01*
X83500Y174539D01*
Y175461D01*
X83262Y176351D01*
X82801Y177149D01*
X82149Y177801D01*
X81351Y178261D01*
X80461Y178500D01*
D02*
G37*
G36*
X176609Y173088D02*
Y171089D01*
X178608D01*
X178229Y172005D01*
X177525Y172708D01*
X176609Y173088D01*
D02*
G37*
G36*
X175609D02*
X174693Y172708D01*
X173990Y172005D01*
X173610Y171089D01*
X175609D01*
Y173088D01*
D02*
G37*
G36*
X104500Y172499D02*
Y170500D01*
X106499D01*
X106119Y171416D01*
X105416Y172119D01*
X104500Y172499D01*
D02*
G37*
G36*
X103500D02*
X102584Y172119D01*
X101881Y171416D01*
X101501Y170500D01*
X103500D01*
Y172499D01*
D02*
G37*
G36*
X154461Y181500D02*
X153539D01*
X152649Y181262D01*
X151851Y180801D01*
X151199Y180149D01*
X150739Y179351D01*
X150500Y178461D01*
Y177539D01*
X150739Y176649D01*
X151199Y175851D01*
X151550Y175500D01*
X151199Y175149D01*
X150739Y174351D01*
X150500Y173461D01*
Y172539D01*
X150739Y171649D01*
X151199Y170851D01*
X151851Y170199D01*
X152649Y169738D01*
X153539Y169500D01*
X154461D01*
X155351Y169738D01*
X156149Y170199D01*
X156801Y170851D01*
X157262Y171649D01*
X157500Y172539D01*
Y173461D01*
X157262Y174351D01*
X156801Y175149D01*
X156450Y175500D01*
X156801Y175851D01*
X157262Y176649D01*
X157500Y177539D01*
Y178461D01*
X157262Y179351D01*
X156801Y180149D01*
X156149Y180801D01*
X155351Y181262D01*
X154461Y181500D01*
D02*
G37*
G36*
X167499Y170500D02*
X162501D01*
X162881Y169584D01*
X163584Y168881D01*
X163899Y168750D01*
Y168250D01*
X163584Y168119D01*
X162881Y167416D01*
X162501Y166500D01*
X167499D01*
X167119Y167416D01*
X166416Y168119D01*
X166101Y168250D01*
Y168750D01*
X166416Y168881D01*
X167119Y169584D01*
X167499Y170500D01*
D02*
G37*
G36*
X178608Y170089D02*
X173610D01*
X173990Y169173D01*
X174693Y168469D01*
X175332Y168205D01*
Y167664D01*
X174714Y167407D01*
X174010Y166704D01*
X173631Y165788D01*
X178629D01*
X178249Y166704D01*
X177546Y167407D01*
X176907Y167672D01*
Y168213D01*
X177525Y168469D01*
X178229Y169173D01*
X178608Y170089D01*
D02*
G37*
G36*
X106499Y169500D02*
X101501D01*
X101881Y168584D01*
X102584Y167881D01*
X102899Y167750D01*
Y167250D01*
X102584Y167119D01*
X101881Y166416D01*
X101501Y165500D01*
X106499D01*
X106119Y166416D01*
X105416Y167119D01*
X105101Y167250D01*
Y167750D01*
X105416Y167881D01*
X106119Y168584D01*
X106499Y169500D01*
D02*
G37*
G36*
X167499Y165500D02*
X165500D01*
Y163501D01*
X166416Y163881D01*
X167119Y164584D01*
X167499Y165500D01*
D02*
G37*
G36*
X164500D02*
X162501D01*
X162881Y164584D01*
X163584Y163881D01*
X164500Y163501D01*
Y165500D01*
D02*
G37*
G36*
X35271Y168545D02*
X35179D01*
Y163025D01*
X40698D01*
Y163118D01*
X40467Y164281D01*
X40013Y165376D01*
X39354Y166362D01*
X38516Y167201D01*
X37530Y167860D01*
X36435Y168313D01*
X35271Y168545D01*
D02*
G37*
G36*
X34179D02*
X34086D01*
X32923Y168313D01*
X31827Y167860D01*
X30841Y167201D01*
X30003Y166362D01*
X29344Y165376D01*
X28890Y164281D01*
X28659Y163118D01*
Y163025D01*
X34179D01*
Y168545D01*
D02*
G37*
G36*
X15271D02*
X15179D01*
Y163025D01*
X20698D01*
Y163118D01*
X20467Y164281D01*
X20013Y165376D01*
X19354Y166362D01*
X18516Y167201D01*
X17530Y167860D01*
X16434Y168313D01*
X15271Y168545D01*
D02*
G37*
G36*
X14179D02*
X14086D01*
X12923Y168313D01*
X11827Y167860D01*
X10841Y167201D01*
X10003Y166362D01*
X9344Y165376D01*
X8890Y164281D01*
X8659Y163118D01*
Y163025D01*
X14179D01*
Y168545D01*
D02*
G37*
G36*
X106499Y164500D02*
X104500D01*
Y162501D01*
X105416Y162881D01*
X106119Y163584D01*
X106499Y164500D01*
D02*
G37*
G36*
X103500D02*
X101501D01*
X101881Y163584D01*
X102584Y162881D01*
X103500Y162501D01*
Y164500D01*
D02*
G37*
G36*
X34179Y162025D02*
X28659D01*
Y161932D01*
X28890Y160769D01*
X29344Y159674D01*
X29530Y159395D01*
X29294Y158954D01*
X20063D01*
X19827Y159395D01*
X20013Y159674D01*
X20467Y160769D01*
X20698Y161932D01*
Y162025D01*
X15179D01*
Y156505D01*
X15271D01*
X16434Y156737D01*
X17530Y157191D01*
X17808Y157377D01*
X18249Y157141D01*
Y147909D01*
X17808Y147674D01*
X17530Y147860D01*
X16434Y148313D01*
X15271Y148545D01*
X15179D01*
Y143025D01*
X20698D01*
Y143118D01*
X20467Y144281D01*
X20013Y145377D01*
X19827Y145655D01*
X20063Y146096D01*
X29294D01*
X29530Y145655D01*
X29344Y145377D01*
X28890Y144281D01*
X28659Y143118D01*
Y143025D01*
X34179D01*
Y148545D01*
X34086D01*
X32923Y148313D01*
X31827Y147860D01*
X31549Y147674D01*
X31108Y147909D01*
Y157141D01*
X31549Y157377D01*
X31827Y157191D01*
X32923Y156737D01*
X34086Y156505D01*
X34179D01*
Y162025D01*
D02*
G37*
G36*
X101500Y159499D02*
Y157500D01*
X103499D01*
X103119Y158416D01*
X102416Y159119D01*
X101500Y159499D01*
D02*
G37*
G36*
X100500D02*
X99584Y159119D01*
X98881Y158416D01*
X98501Y157500D01*
X100500D01*
Y159499D01*
D02*
G37*
G36*
X40698Y162025D02*
X35179D01*
Y156505D01*
X35271D01*
X36435Y156737D01*
X37530Y157191D01*
X38516Y157849D01*
X39354Y158688D01*
X40013Y159674D01*
X40467Y160769D01*
X40698Y161932D01*
Y162025D01*
D02*
G37*
G36*
X14179D02*
X8659D01*
Y161932D01*
X8890Y160769D01*
X9344Y159674D01*
X10003Y158688D01*
X10841Y157849D01*
X11827Y157191D01*
X12923Y156737D01*
X14086Y156505D01*
X14179D01*
Y162025D01*
D02*
G37*
G36*
X178629Y164788D02*
X173631D01*
X174010Y163872D01*
X174631Y163251D01*
X174710Y163090D01*
X174688Y162638D01*
X174199Y162149D01*
X173739Y161351D01*
X173500Y160461D01*
Y159539D01*
X173739Y158649D01*
X174199Y157851D01*
X174851Y157199D01*
X175649Y156738D01*
X176539Y156500D01*
X177461D01*
X178351Y156738D01*
X179149Y157199D01*
X179801Y157851D01*
X180262Y158649D01*
X180500Y159539D01*
Y160461D01*
X180262Y161351D01*
X179801Y162149D01*
X179149Y162801D01*
X178351Y163261D01*
X178272Y163283D01*
X178143Y163766D01*
X178249Y163872D01*
X178629Y164788D01*
D02*
G37*
G36*
X103499Y156500D02*
X101500D01*
Y154501D01*
X102416Y154881D01*
X103119Y155584D01*
X103499Y156500D01*
D02*
G37*
G36*
X100500D02*
X98501D01*
X98881Y155584D01*
X99584Y154881D01*
X100500Y154501D01*
Y156500D01*
D02*
G37*
G36*
X272939Y156499D02*
Y154500D01*
X274938D01*
X274558Y155416D01*
X273855Y156119D01*
X272939Y156499D01*
D02*
G37*
G36*
X271939D02*
X271023Y156119D01*
X270320Y155416D01*
X269940Y154500D01*
X271939D01*
Y156499D01*
D02*
G37*
G36*
X165807Y153999D02*
Y152000D01*
X167806D01*
X167427Y152916D01*
X166723Y153619D01*
X165807Y153999D01*
D02*
G37*
G36*
X164807D02*
X163891Y153619D01*
X163188Y152916D01*
X162808Y152000D01*
X164807D01*
Y153999D01*
D02*
G37*
G36*
X274938Y153500D02*
X272939D01*
Y151501D01*
X273855Y151881D01*
X274558Y152584D01*
X274938Y153500D01*
D02*
G37*
G36*
X271939D02*
X269940D01*
X270320Y152584D01*
X271023Y151881D01*
X271939Y151501D01*
Y153500D01*
D02*
G37*
G36*
X73500Y153499D02*
Y151500D01*
X75499D01*
X75119Y152416D01*
X74416Y153119D01*
X73500Y153499D01*
D02*
G37*
G36*
X72500D02*
X71584Y153119D01*
X70881Y152416D01*
X70501Y151500D01*
X72500D01*
Y153499D01*
D02*
G37*
G36*
X135500Y152499D02*
Y150500D01*
X137499D01*
X137119Y151416D01*
X136416Y152119D01*
X135500Y152499D01*
D02*
G37*
G36*
X134500D02*
X133584Y152119D01*
X132881Y151416D01*
X132501Y150500D01*
X134500D01*
Y152499D01*
D02*
G37*
G36*
X167806Y151000D02*
X165807D01*
Y149001D01*
X166723Y149381D01*
X167427Y150084D01*
X167806Y151000D01*
D02*
G37*
G36*
X164807D02*
X162808D01*
X163188Y150084D01*
X163891Y149381D01*
X164807Y149001D01*
Y151000D01*
D02*
G37*
G36*
X75499Y150500D02*
X73500D01*
Y148501D01*
X74416Y148881D01*
X75119Y149584D01*
X75499Y150500D01*
D02*
G37*
G36*
X72500D02*
X70501D01*
X70881Y149584D01*
X71584Y148881D01*
X72500Y148501D01*
Y150500D01*
D02*
G37*
G36*
X137499Y149500D02*
X135500D01*
Y147501D01*
X136416Y147881D01*
X137119Y148584D01*
X137499Y149500D01*
D02*
G37*
G36*
X134500D02*
X132501D01*
X132881Y148584D01*
X133584Y147881D01*
X134500Y147501D01*
Y149500D01*
D02*
G37*
G36*
X35271Y148545D02*
X35179D01*
Y143025D01*
X40698D01*
Y143118D01*
X40467Y144281D01*
X40013Y145377D01*
X39354Y146362D01*
X38516Y147201D01*
X37530Y147860D01*
X36435Y148313D01*
X35271Y148545D01*
D02*
G37*
G36*
X14179D02*
X14086D01*
X12923Y148313D01*
X11827Y147860D01*
X10841Y147201D01*
X10003Y146362D01*
X9344Y145377D01*
X8890Y144281D01*
X8659Y143118D01*
Y143025D01*
X14179D01*
Y148545D01*
D02*
G37*
G36*
X272575Y143499D02*
Y141500D01*
X274574D01*
X274194Y142416D01*
X273491Y143119D01*
X272575Y143499D01*
D02*
G37*
G36*
X271575D02*
X270659Y143119D01*
X269955Y142416D01*
X269576Y141500D01*
X271575D01*
Y143499D01*
D02*
G37*
G36*
X242500Y141499D02*
Y139500D01*
X244499D01*
X244119Y140416D01*
X243416Y141119D01*
X242500Y141499D01*
D02*
G37*
G36*
X241500D02*
X240584Y141119D01*
X239881Y140416D01*
X239501Y139500D01*
X241500D01*
Y141499D01*
D02*
G37*
G36*
X232500D02*
Y139500D01*
X234499D01*
X234119Y140416D01*
X233416Y141119D01*
X232500Y141499D01*
D02*
G37*
G36*
X231500D02*
X230584Y141119D01*
X229881Y140416D01*
X229501Y139500D01*
X231500D01*
Y141499D01*
D02*
G37*
G36*
X222500D02*
Y139500D01*
X224499D01*
X224119Y140416D01*
X223416Y141119D01*
X222500Y141499D01*
D02*
G37*
G36*
X221500D02*
X220584Y141119D01*
X219881Y140416D01*
X219501Y139500D01*
X221500D01*
Y141499D01*
D02*
G37*
G36*
X274574Y140500D02*
X272575D01*
Y138501D01*
X273491Y138881D01*
X274194Y139584D01*
X274574Y140500D01*
D02*
G37*
G36*
X271575D02*
X269576D01*
X269955Y139584D01*
X270659Y138881D01*
X271575Y138501D01*
Y140500D01*
D02*
G37*
G36*
X199500Y139499D02*
Y137500D01*
X201499D01*
X201119Y138416D01*
X200416Y139119D01*
X199500Y139499D01*
D02*
G37*
G36*
X198500D02*
X197584Y139119D01*
X196881Y138416D01*
X196501Y137500D01*
X198500D01*
Y139499D01*
D02*
G37*
G36*
X190500D02*
Y137500D01*
X192499D01*
X192119Y138416D01*
X191416Y139119D01*
X190500Y139499D01*
D02*
G37*
G36*
X189500D02*
X188584Y139119D01*
X187881Y138416D01*
X187501Y137500D01*
X189500D01*
Y139499D01*
D02*
G37*
G36*
X181500D02*
Y137500D01*
X183499D01*
X183119Y138416D01*
X182416Y139119D01*
X181500Y139499D01*
D02*
G37*
G36*
X180500D02*
X179584Y139119D01*
X178881Y138416D01*
X178501Y137500D01*
X180500D01*
Y139499D01*
D02*
G37*
G36*
X40698Y142025D02*
X35179D01*
Y136505D01*
X35271D01*
X36435Y136737D01*
X37530Y137190D01*
X38516Y137849D01*
X39354Y138688D01*
X40013Y139674D01*
X40467Y140769D01*
X40698Y141932D01*
Y142025D01*
D02*
G37*
G36*
X34179D02*
X28659D01*
Y141932D01*
X28890Y140769D01*
X29344Y139674D01*
X30003Y138688D01*
X30841Y137849D01*
X31827Y137190D01*
X32923Y136737D01*
X34086Y136505D01*
X34179D01*
Y142025D01*
D02*
G37*
G36*
X20698D02*
X15179D01*
Y136505D01*
X15271D01*
X16434Y136737D01*
X17530Y137190D01*
X18516Y137849D01*
X19354Y138688D01*
X20013Y139674D01*
X20467Y140769D01*
X20698Y141932D01*
Y142025D01*
D02*
G37*
G36*
X14179D02*
X8659D01*
Y141932D01*
X8890Y140769D01*
X9344Y139674D01*
X10003Y138688D01*
X10841Y137849D01*
X11827Y137190D01*
X12923Y136737D01*
X14086Y136505D01*
X14179D01*
Y142025D01*
D02*
G37*
G36*
X244499Y138500D02*
X242500D01*
Y136501D01*
X243416Y136881D01*
X244119Y137584D01*
X244499Y138500D01*
D02*
G37*
G36*
X241500D02*
X239501D01*
X239881Y137584D01*
X240584Y136881D01*
X241500Y136501D01*
Y138500D01*
D02*
G37*
G36*
X234499D02*
X232500D01*
Y136501D01*
X233416Y136881D01*
X234119Y137584D01*
X234499Y138500D01*
D02*
G37*
G36*
X231500D02*
X229501D01*
X229881Y137584D01*
X230584Y136881D01*
X231500Y136501D01*
Y138500D01*
D02*
G37*
G36*
X224499D02*
X222500D01*
Y136501D01*
X223416Y136881D01*
X224119Y137584D01*
X224499Y138500D01*
D02*
G37*
G36*
X221500D02*
X219501D01*
X219881Y137584D01*
X220584Y136881D01*
X221500Y136501D01*
Y138500D01*
D02*
G37*
G36*
X201499Y136500D02*
X199500D01*
Y134501D01*
X200416Y134881D01*
X201119Y135584D01*
X201499Y136500D01*
D02*
G37*
G36*
X198500D02*
X196501D01*
X196881Y135584D01*
X197584Y134881D01*
X198500Y134501D01*
Y136500D01*
D02*
G37*
G36*
X192499D02*
X190500D01*
Y134501D01*
X191416Y134881D01*
X192119Y135584D01*
X192499Y136500D01*
D02*
G37*
G36*
X189500D02*
X187501D01*
X187881Y135584D01*
X188584Y134881D01*
X189500Y134501D01*
Y136500D01*
D02*
G37*
G36*
X183499D02*
X181500D01*
Y134501D01*
X182416Y134881D01*
X183119Y135584D01*
X183499Y136500D01*
D02*
G37*
G36*
X180500D02*
X178501D01*
X178881Y135584D01*
X179584Y134881D01*
X180500Y134501D01*
Y136500D01*
D02*
G37*
G36*
X151500Y123499D02*
Y121500D01*
X153499D01*
X153119Y122416D01*
X152416Y123119D01*
X151500Y123499D01*
D02*
G37*
G36*
X150500D02*
X149584Y123119D01*
X148881Y122416D01*
X148501Y121500D01*
X150500D01*
Y123499D01*
D02*
G37*
G36*
X153499Y120500D02*
X151500D01*
Y118501D01*
X152416Y118881D01*
X153119Y119584D01*
X153499Y120500D01*
D02*
G37*
G36*
X150500D02*
X148501D01*
X148881Y119584D01*
X149584Y118881D01*
X150500Y118501D01*
Y120500D01*
D02*
G37*
G36*
X172957Y123831D02*
X172035D01*
X171145Y123592D01*
X170347Y123131D01*
X169695Y122480D01*
X169235Y121682D01*
X168996Y120791D01*
Y119870D01*
X169235Y118980D01*
X169695Y118182D01*
X170347Y117530D01*
X171145Y117069D01*
X172035Y116831D01*
X172957D01*
X173847Y117069D01*
X174645Y117530D01*
X175297Y118182D01*
X175758Y118980D01*
X175996Y119870D01*
Y120791D01*
X175758Y121682D01*
X175297Y122480D01*
X174645Y123131D01*
X173847Y123592D01*
X172957Y123831D01*
D02*
G37*
G36*
X262874Y119696D02*
X259437D01*
Y115217D01*
X267788D01*
X267684Y116005D01*
X267186Y117206D01*
X266395Y118238D01*
X265364Y119029D01*
X264163Y119527D01*
X262874Y119696D01*
D02*
G37*
G36*
X258437D02*
X255000D01*
X253711Y119527D01*
X252510Y119029D01*
X251479Y118238D01*
X250688Y117206D01*
X250190Y116005D01*
X250086Y115217D01*
X258437D01*
Y119696D01*
D02*
G37*
G36*
X166500Y112499D02*
Y110500D01*
X168499D01*
X168119Y111416D01*
X167416Y112119D01*
X166500Y112499D01*
D02*
G37*
G36*
X165500D02*
X164584Y112119D01*
X163881Y111416D01*
X163501Y110500D01*
X165500D01*
Y112499D01*
D02*
G37*
G36*
X267788Y114216D02*
X259437D01*
Y109737D01*
X262874D01*
X264163Y109907D01*
X265364Y110404D01*
X266395Y111195D01*
X267186Y112227D01*
X267684Y113428D01*
X267788Y114216D01*
D02*
G37*
G36*
X258437D02*
X250086D01*
X250190Y113428D01*
X250688Y112227D01*
X251479Y111195D01*
X252510Y110404D01*
X253711Y109907D01*
X255000Y109737D01*
X258437D01*
Y114216D01*
D02*
G37*
G36*
X35271Y113907D02*
X35179D01*
Y108388D01*
X40698D01*
Y108481D01*
X40467Y109644D01*
X40013Y110739D01*
X39354Y111725D01*
X38516Y112564D01*
X37530Y113222D01*
X36435Y113676D01*
X35271Y113907D01*
D02*
G37*
G36*
X34179D02*
X34086D01*
X32923Y113676D01*
X31827Y113222D01*
X30841Y112564D01*
X30003Y111725D01*
X29344Y110739D01*
X28890Y109644D01*
X28659Y108481D01*
Y108388D01*
X34179D01*
Y113907D01*
D02*
G37*
G36*
X15271D02*
X15179D01*
Y108388D01*
X20698D01*
Y108481D01*
X20467Y109644D01*
X20013Y110739D01*
X19354Y111725D01*
X18516Y112564D01*
X17530Y113222D01*
X16434Y113676D01*
X15271Y113907D01*
D02*
G37*
G36*
X14179D02*
X14086D01*
X12923Y113676D01*
X11827Y113222D01*
X10841Y112564D01*
X10003Y111725D01*
X9344Y110739D01*
X8890Y109644D01*
X8659Y108481D01*
Y108388D01*
X14179D01*
Y113907D01*
D02*
G37*
G36*
X168499Y109500D02*
X166500D01*
Y107501D01*
X167416Y107881D01*
X168119Y108584D01*
X168499Y109500D01*
D02*
G37*
G36*
X165500D02*
X163501D01*
X163881Y108584D01*
X164584Y107881D01*
X165500Y107501D01*
Y109500D01*
D02*
G37*
G36*
X34179Y107388D02*
X28659D01*
Y107295D01*
X28890Y106132D01*
X29344Y105036D01*
X29530Y104758D01*
X29294Y104317D01*
X20063D01*
X19827Y104758D01*
X20013Y105036D01*
X20467Y106132D01*
X20698Y107295D01*
Y107388D01*
X15179D01*
Y101868D01*
X15271D01*
X16434Y102099D01*
X17530Y102553D01*
X17808Y102739D01*
X18249Y102504D01*
Y93272D01*
X17808Y93036D01*
X17530Y93222D01*
X16434Y93676D01*
X15271Y93907D01*
X15179D01*
Y88388D01*
X20698D01*
Y88481D01*
X20467Y89644D01*
X20013Y90739D01*
X19827Y91018D01*
X20063Y91459D01*
X29294D01*
X29530Y91018D01*
X29344Y90739D01*
X28890Y89644D01*
X28659Y88481D01*
Y88388D01*
X34179D01*
Y93907D01*
X34086D01*
X32923Y93676D01*
X31827Y93222D01*
X31549Y93036D01*
X31108Y93272D01*
Y102504D01*
X31549Y102739D01*
X31827Y102553D01*
X32923Y102099D01*
X34086Y101868D01*
X34179D01*
Y107388D01*
D02*
G37*
G36*
X40698D02*
X35179D01*
Y101868D01*
X35271D01*
X36435Y102099D01*
X37530Y102553D01*
X38516Y103212D01*
X39354Y104051D01*
X40013Y105036D01*
X40467Y106132D01*
X40698Y107295D01*
Y107388D01*
D02*
G37*
G36*
X14179D02*
X8659D01*
Y107295D01*
X8890Y106132D01*
X9344Y105036D01*
X10003Y104051D01*
X10841Y103212D01*
X11827Y102553D01*
X12923Y102099D01*
X14086Y101868D01*
X14179D01*
Y107388D01*
D02*
G37*
G36*
X255500Y105851D02*
Y97500D01*
X259980D01*
Y100937D01*
X259810Y102226D01*
X259313Y103427D01*
X258521Y104458D01*
X257490Y105250D01*
X256289Y105747D01*
X255500Y105851D01*
D02*
G37*
G36*
X254500Y105851D02*
X253711Y105747D01*
X252510Y105250D01*
X251479Y104458D01*
X250688Y103427D01*
X250190Y102226D01*
X250020Y100937D01*
Y97500D01*
X254500D01*
Y105851D01*
D02*
G37*
G36*
X177461Y100500D02*
X176539D01*
X175649Y100261D01*
X174851Y99801D01*
X174199Y99149D01*
X173739Y98351D01*
X173500Y97461D01*
Y96539D01*
X173739Y95649D01*
X174199Y94851D01*
X174851Y94199D01*
X175649Y93739D01*
X176539Y93500D01*
X177461D01*
X178351Y93739D01*
X179149Y94199D01*
X179801Y94851D01*
X180262Y95649D01*
X180500Y96539D01*
Y97461D01*
X180262Y98351D01*
X179801Y99149D01*
X179149Y99801D01*
X178351Y100261D01*
X177461Y100500D01*
D02*
G37*
G36*
X267489Y102150D02*
X266133D01*
X264823Y101799D01*
X263649Y101121D01*
X262690Y100162D01*
X262012Y98988D01*
X261661Y97678D01*
Y96322D01*
X262012Y95012D01*
X262690Y93838D01*
X263649Y92879D01*
X264823Y92201D01*
X266133Y91850D01*
X267489D01*
X268799Y92201D01*
X269973Y92879D01*
X270932Y93838D01*
X271610Y95012D01*
X271961Y96322D01*
Y97678D01*
X271610Y98988D01*
X270932Y100162D01*
X269973Y101121D01*
X268799Y101799D01*
X267489Y102150D01*
D02*
G37*
G36*
X151461Y98500D02*
X150539D01*
X149649Y98261D01*
X148851Y97801D01*
X148199Y97149D01*
X147739Y96351D01*
X147500Y95461D01*
Y94539D01*
X147739Y93649D01*
X148199Y92851D01*
X148851Y92199D01*
X149649Y91738D01*
X150539Y91500D01*
X151461D01*
X152351Y91738D01*
X153149Y92199D01*
X153801Y92851D01*
X154262Y93649D01*
X154500Y94539D01*
Y95461D01*
X154262Y96351D01*
X153801Y97149D01*
X153149Y97801D01*
X152351Y98261D01*
X151461Y98500D01*
D02*
G37*
G36*
X35271Y93907D02*
X35179D01*
Y88388D01*
X40698D01*
Y88481D01*
X40467Y89644D01*
X40013Y90739D01*
X39354Y91725D01*
X38516Y92564D01*
X37530Y93222D01*
X36435Y93676D01*
X35271Y93907D01*
D02*
G37*
G36*
X14179D02*
X14086D01*
X12923Y93676D01*
X11827Y93222D01*
X10841Y92564D01*
X10003Y91725D01*
X9344Y90739D01*
X8890Y89644D01*
X8659Y88481D01*
Y88388D01*
X14179D01*
Y93907D01*
D02*
G37*
G36*
X259980Y96500D02*
X255500D01*
Y88149D01*
X256289Y88253D01*
X257490Y88750D01*
X258521Y89542D01*
X259313Y90573D01*
X259810Y91774D01*
X259980Y93063D01*
Y96500D01*
D02*
G37*
G36*
X254500D02*
X250020D01*
Y93063D01*
X250190Y91774D01*
X250688Y90573D01*
X251479Y89542D01*
X252510Y88750D01*
X253711Y88253D01*
X254500Y88149D01*
Y96500D01*
D02*
G37*
G36*
X231378Y107889D02*
X230118Y107765D01*
X228906Y107398D01*
X227789Y106801D01*
X226810Y105997D01*
X226007Y105018D01*
X225410Y103901D01*
X225042Y102690D01*
X224918Y101429D01*
Y92571D01*
X225042Y91311D01*
X225410Y90099D01*
X226007Y88982D01*
X226810Y88003D01*
X227789Y87199D01*
X228906Y86602D01*
X230118Y86235D01*
X231378Y86111D01*
X232638Y86235D01*
X233850Y86602D01*
X234967Y87199D01*
X235946Y88003D01*
X236749Y88982D01*
X237346Y90099D01*
X237714Y91311D01*
X237838Y92571D01*
Y101429D01*
X237714Y102690D01*
X237346Y103901D01*
X236749Y105018D01*
X235946Y105997D01*
X234967Y106801D01*
X233850Y107398D01*
X232638Y107765D01*
X231378Y107889D01*
D02*
G37*
G36*
X40698Y87388D02*
X35179D01*
Y81868D01*
X35271D01*
X36435Y82099D01*
X37530Y82553D01*
X38516Y83212D01*
X39354Y84051D01*
X40013Y85036D01*
X40467Y86132D01*
X40698Y87295D01*
Y87388D01*
D02*
G37*
G36*
X34179D02*
X28659D01*
Y87295D01*
X28890Y86132D01*
X29344Y85036D01*
X30003Y84051D01*
X30841Y83212D01*
X31827Y82553D01*
X32923Y82099D01*
X34086Y81868D01*
X34179D01*
Y87388D01*
D02*
G37*
G36*
X20698D02*
X15179D01*
Y81868D01*
X15271D01*
X16434Y82099D01*
X17530Y82553D01*
X18516Y83212D01*
X19354Y84051D01*
X20013Y85036D01*
X20467Y86132D01*
X20698Y87295D01*
Y87388D01*
D02*
G37*
G36*
X14179D02*
X8659D01*
Y87295D01*
X8890Y86132D01*
X9344Y85036D01*
X10003Y84051D01*
X10841Y83212D01*
X11827Y82553D01*
X12923Y82099D01*
X14086Y81868D01*
X14179D01*
Y87388D01*
D02*
G37*
G36*
X262874Y84263D02*
X259437D01*
Y79783D01*
X267788D01*
X267684Y80572D01*
X267186Y81773D01*
X266395Y82805D01*
X265364Y83596D01*
X264163Y84093D01*
X262874Y84263D01*
D02*
G37*
G36*
X258437D02*
X255000D01*
X253711Y84093D01*
X252510Y83596D01*
X251479Y82805D01*
X250688Y81773D01*
X250190Y80572D01*
X250086Y79783D01*
X258437D01*
Y84263D01*
D02*
G37*
G36*
X175500Y81499D02*
Y79500D01*
X177499D01*
X177119Y80416D01*
X176416Y81119D01*
X175500Y81499D01*
D02*
G37*
G36*
X174500D02*
X173584Y81119D01*
X172881Y80416D01*
X172501Y79500D01*
X174500D01*
Y81499D01*
D02*
G37*
G36*
X166500D02*
Y79500D01*
X168499D01*
X168119Y80416D01*
X167416Y81119D01*
X166500Y81499D01*
D02*
G37*
G36*
X165500D02*
X164584Y81119D01*
X163881Y80416D01*
X163501Y79500D01*
X165500D01*
Y81499D01*
D02*
G37*
G36*
X177499Y78500D02*
X175500D01*
Y76501D01*
X176416Y76881D01*
X177119Y77584D01*
X177499Y78500D01*
D02*
G37*
G36*
X174500D02*
X172501D01*
X172881Y77584D01*
X173584Y76881D01*
X174500Y76501D01*
Y78500D01*
D02*
G37*
G36*
X168499D02*
X166500D01*
Y76501D01*
X167416Y76881D01*
X168119Y77584D01*
X168499Y78500D01*
D02*
G37*
G36*
X165500D02*
X163501D01*
X163881Y77584D01*
X164584Y76881D01*
X165500Y76501D01*
Y78500D01*
D02*
G37*
G36*
X267788Y78784D02*
X259437D01*
Y74304D01*
X262874D01*
X264163Y74474D01*
X265364Y74971D01*
X266395Y75762D01*
X267186Y76794D01*
X267684Y77995D01*
X267788Y78784D01*
D02*
G37*
G36*
X258437D02*
X250086D01*
X250190Y77995D01*
X250688Y76794D01*
X251479Y75762D01*
X252510Y74971D01*
X253711Y74474D01*
X255000Y74304D01*
X258437D01*
Y78784D01*
D02*
G37*
G36*
X194500Y68499D02*
Y66500D01*
X196499D01*
X196119Y67416D01*
X195416Y68119D01*
X194500Y68499D01*
D02*
G37*
G36*
X193500D02*
X192584Y68119D01*
X191881Y67416D01*
X191501Y66500D01*
X193500D01*
Y68499D01*
D02*
G37*
G36*
X196499Y65500D02*
X194500D01*
Y63501D01*
X195416Y63881D01*
X196119Y64584D01*
X196499Y65500D01*
D02*
G37*
G36*
X193500D02*
X191501D01*
X191881Y64584D01*
X192584Y63881D01*
X193500Y63501D01*
Y65500D01*
D02*
G37*
G36*
X103500Y63499D02*
Y61500D01*
X105499D01*
X105119Y62416D01*
X104416Y63119D01*
X103500Y63499D01*
D02*
G37*
G36*
X102500D02*
X101584Y63119D01*
X100881Y62416D01*
X100501Y61500D01*
X102500D01*
Y63499D01*
D02*
G37*
G36*
X35271Y65016D02*
X35179D01*
Y59496D01*
X40698D01*
Y59589D01*
X40467Y60752D01*
X40013Y61847D01*
X39354Y62833D01*
X38516Y63672D01*
X37530Y64331D01*
X36435Y64784D01*
X35271Y65016D01*
D02*
G37*
G36*
X34179D02*
X34086D01*
X32923Y64784D01*
X31827Y64331D01*
X30841Y63672D01*
X30003Y62833D01*
X29344Y61847D01*
X28890Y60752D01*
X28659Y59589D01*
Y59496D01*
X34179D01*
Y65016D01*
D02*
G37*
G36*
X15271D02*
X15179D01*
Y59496D01*
X20698D01*
Y59589D01*
X20467Y60752D01*
X20013Y61847D01*
X19354Y62833D01*
X18516Y63672D01*
X17530Y64331D01*
X16434Y64784D01*
X15271Y65016D01*
D02*
G37*
G36*
X14179D02*
X14086D01*
X12923Y64784D01*
X11827Y64331D01*
X10841Y63672D01*
X10003Y62833D01*
X9344Y61847D01*
X8890Y60752D01*
X8659Y59589D01*
Y59496D01*
X14179D01*
Y65016D01*
D02*
G37*
G36*
X105499Y60500D02*
X103500D01*
Y58501D01*
X104416Y58881D01*
X105119Y59584D01*
X105499Y60500D01*
D02*
G37*
G36*
X102500D02*
X100501D01*
X100881Y59584D01*
X101584Y58881D01*
X102500Y58501D01*
Y60500D01*
D02*
G37*
G36*
X249170Y62122D02*
X249077D01*
Y56602D01*
X254596D01*
Y56695D01*
X254365Y57858D01*
X253911Y58954D01*
X253253Y59940D01*
X252414Y60778D01*
X251428Y61437D01*
X250333Y61891D01*
X249170Y62122D01*
D02*
G37*
G36*
X269170D02*
X269077D01*
Y56602D01*
X274596D01*
Y56695D01*
X274365Y57858D01*
X273911Y58954D01*
X273253Y59940D01*
X272414Y60778D01*
X271428Y61437D01*
X270333Y61891D01*
X269170Y62122D01*
D02*
G37*
G36*
X248077D02*
X247984D01*
X246821Y61891D01*
X245725Y61437D01*
X244739Y60778D01*
X243901Y59940D01*
X243242Y58954D01*
X242788Y57858D01*
X242557Y56695D01*
Y56602D01*
X248077D01*
Y62122D01*
D02*
G37*
G36*
X268077D02*
X267984D01*
X266821Y61891D01*
X265725Y61437D01*
X264739Y60778D01*
X263901Y59940D01*
X263242Y58954D01*
X262788Y57858D01*
X262557Y56695D01*
Y56602D01*
X268077D01*
Y62122D01*
D02*
G37*
G36*
X139500Y58499D02*
Y56500D01*
X141499D01*
X141119Y57416D01*
X140416Y58119D01*
X139500Y58499D01*
D02*
G37*
G36*
X138500D02*
X137584Y58119D01*
X136881Y57416D01*
X136501Y56500D01*
X138500D01*
Y58499D01*
D02*
G37*
G36*
X34179Y58496D02*
X28659D01*
Y58403D01*
X28890Y57240D01*
X29344Y56144D01*
X29530Y55866D01*
X29294Y55425D01*
X20063D01*
X19827Y55866D01*
X20013Y56144D01*
X20467Y57240D01*
X20698Y58403D01*
Y58496D01*
X15179D01*
Y52976D01*
X15271D01*
X16434Y53207D01*
X17530Y53661D01*
X17808Y53847D01*
X18249Y53612D01*
Y44380D01*
X17808Y44144D01*
X17530Y44330D01*
X16434Y44784D01*
X15271Y45016D01*
X15179D01*
Y39496D01*
X20698D01*
Y39589D01*
X20467Y40752D01*
X20013Y41847D01*
X19827Y42126D01*
X20063Y42567D01*
X29294D01*
X29530Y42126D01*
X29344Y41847D01*
X28890Y40752D01*
X28659Y39589D01*
Y39496D01*
X34179D01*
Y45016D01*
X34086D01*
X32923Y44784D01*
X31827Y44330D01*
X31549Y44144D01*
X31108Y44380D01*
Y53612D01*
X31549Y53847D01*
X31827Y53661D01*
X32923Y53207D01*
X34086Y52976D01*
X34179D01*
Y58496D01*
D02*
G37*
G36*
X141499Y55500D02*
X139500D01*
Y53501D01*
X140416Y53881D01*
X141119Y54584D01*
X141499Y55500D01*
D02*
G37*
G36*
X138500D02*
X136501D01*
X136881Y54584D01*
X137584Y53881D01*
X138500Y53501D01*
Y55500D01*
D02*
G37*
G36*
X40698Y58496D02*
X35179D01*
Y52976D01*
X35271D01*
X36435Y53207D01*
X37530Y53661D01*
X38516Y54320D01*
X39354Y55159D01*
X40013Y56144D01*
X40467Y57240D01*
X40698Y58403D01*
Y58496D01*
D02*
G37*
G36*
X14179D02*
X8659D01*
Y58403D01*
X8890Y57240D01*
X9344Y56144D01*
X10003Y55159D01*
X10841Y54320D01*
X11827Y53661D01*
X12923Y53207D01*
X14086Y52976D01*
X14179D01*
Y58496D01*
D02*
G37*
G36*
X148500Y54499D02*
Y52500D01*
X150499D01*
X150119Y53416D01*
X149416Y54119D01*
X148500Y54499D01*
D02*
G37*
G36*
X147500D02*
X146584Y54119D01*
X145881Y53416D01*
X145501Y52500D01*
X147500D01*
Y54499D01*
D02*
G37*
G36*
X274596Y55602D02*
X269077D01*
Y50083D01*
X269170D01*
X270333Y50314D01*
X271428Y50768D01*
X272414Y51427D01*
X273253Y52265D01*
X273911Y53251D01*
X274365Y54347D01*
X274596Y55510D01*
Y55602D01*
D02*
G37*
G36*
X254596D02*
X249077D01*
Y50083D01*
X249170D01*
X250333Y50314D01*
X251428Y50768D01*
X251707Y50954D01*
X252148Y50718D01*
Y41486D01*
X251707Y41251D01*
X251428Y41437D01*
X250333Y41891D01*
X249170Y42122D01*
X249077D01*
Y36602D01*
X254596D01*
Y36695D01*
X254365Y37858D01*
X253911Y38954D01*
X253725Y39232D01*
X253961Y39673D01*
X263193D01*
X263428Y39232D01*
X263242Y38954D01*
X262788Y37858D01*
X262557Y36695D01*
Y36602D01*
X268077D01*
Y42122D01*
X267984D01*
X266821Y41891D01*
X265725Y41437D01*
X265447Y41251D01*
X265006Y41486D01*
Y50718D01*
X265447Y50954D01*
X265725Y50768D01*
X266821Y50314D01*
X267984Y50083D01*
X268077D01*
Y55602D01*
X262557D01*
Y55510D01*
X262788Y54347D01*
X263242Y53251D01*
X263428Y52973D01*
X263193Y52531D01*
X253961D01*
X253725Y52973D01*
X253911Y53251D01*
X254365Y54347D01*
X254596Y55510D01*
Y55602D01*
D02*
G37*
G36*
X248077D02*
X242557D01*
Y55510D01*
X242788Y54347D01*
X243242Y53251D01*
X243901Y52265D01*
X244739Y51427D01*
X245725Y50768D01*
X246821Y50314D01*
X247984Y50083D01*
X248077D01*
Y55602D01*
D02*
G37*
G36*
X150499Y51500D02*
X148500D01*
Y49501D01*
X149416Y49881D01*
X150119Y50584D01*
X150499Y51500D01*
D02*
G37*
G36*
X147500D02*
X145501D01*
X145881Y50584D01*
X146584Y49881D01*
X147500Y49501D01*
Y51500D01*
D02*
G37*
G36*
X86956Y52939D02*
X86034D01*
X85144Y52700D01*
X84346Y52239D01*
X83694Y51588D01*
X83233Y50790D01*
X82995Y49899D01*
Y48978D01*
X83233Y48088D01*
X83694Y47290D01*
X84346Y46638D01*
X85144Y46177D01*
X86034Y45939D01*
X86956D01*
X87846Y46177D01*
X88644Y46638D01*
X89296Y47290D01*
X89756Y48088D01*
X89995Y48978D01*
Y49899D01*
X89756Y50790D01*
X89296Y51588D01*
X88644Y52239D01*
X87846Y52700D01*
X86956Y52939D01*
D02*
G37*
G36*
X104500Y42499D02*
Y40500D01*
X106499D01*
X106119Y41416D01*
X105416Y42119D01*
X104500Y42499D01*
D02*
G37*
G36*
X103500D02*
X102584Y42119D01*
X101881Y41416D01*
X101501Y40500D01*
X103500D01*
Y42499D01*
D02*
G37*
G36*
X35271Y45016D02*
X35179D01*
Y39496D01*
X40698D01*
Y39589D01*
X40467Y40752D01*
X40013Y41847D01*
X39354Y42833D01*
X38516Y43672D01*
X37530Y44330D01*
X36435Y44784D01*
X35271Y45016D01*
D02*
G37*
G36*
X14179D02*
X14086D01*
X12923Y44784D01*
X11827Y44330D01*
X10841Y43672D01*
X10003Y42833D01*
X9344Y41847D01*
X8890Y40752D01*
X8659Y39589D01*
Y39496D01*
X14179D01*
Y45016D01*
D02*
G37*
G36*
X97278Y41454D02*
Y39455D01*
X99277D01*
X98897Y40372D01*
X98194Y41075D01*
X97278Y41454D01*
D02*
G37*
G36*
X96278D02*
X95362Y41075D01*
X94658Y40372D01*
X94279Y39455D01*
X96278D01*
Y41454D01*
D02*
G37*
G36*
X106499Y39500D02*
X104500D01*
Y37501D01*
X105416Y37881D01*
X106119Y38584D01*
X106499Y39500D01*
D02*
G37*
G36*
X103500D02*
X101501D01*
X101881Y38584D01*
X102584Y37881D01*
X103500Y37501D01*
Y39500D01*
D02*
G37*
G36*
X269170Y42122D02*
X269077D01*
Y36602D01*
X274596D01*
Y36695D01*
X274365Y37858D01*
X273911Y38954D01*
X273253Y39940D01*
X272414Y40778D01*
X271428Y41437D01*
X270333Y41891D01*
X269170Y42122D01*
D02*
G37*
G36*
X248077D02*
X247984D01*
X246821Y41891D01*
X245725Y41437D01*
X244739Y40778D01*
X243901Y39940D01*
X243242Y38954D01*
X242788Y37858D01*
X242557Y36695D01*
Y36602D01*
X248077D01*
Y42122D01*
D02*
G37*
G36*
X99277Y38455D02*
X97278D01*
Y36457D01*
X98194Y36836D01*
X98897Y37539D01*
X99277Y38455D01*
D02*
G37*
G36*
X96278D02*
X94279D01*
X94658Y37539D01*
X95362Y36836D01*
X96278Y36457D01*
Y38455D01*
D02*
G37*
G36*
X40698Y38496D02*
X35179D01*
Y32976D01*
X35271D01*
X36435Y33207D01*
X37530Y33661D01*
X38516Y34320D01*
X39354Y35159D01*
X40013Y36145D01*
X40467Y37240D01*
X40698Y38403D01*
Y38496D01*
D02*
G37*
G36*
X34179D02*
X28659D01*
Y38403D01*
X28890Y37240D01*
X29344Y36145D01*
X30003Y35159D01*
X30841Y34320D01*
X31827Y33661D01*
X32923Y33207D01*
X34086Y32976D01*
X34179D01*
Y38496D01*
D02*
G37*
G36*
X20698D02*
X15179D01*
Y32976D01*
X15271D01*
X16434Y33207D01*
X17530Y33661D01*
X18516Y34320D01*
X19354Y35159D01*
X20013Y36145D01*
X20467Y37240D01*
X20698Y38403D01*
Y38496D01*
D02*
G37*
G36*
X14179D02*
X8659D01*
Y38403D01*
X8890Y37240D01*
X9344Y36145D01*
X10003Y35159D01*
X10841Y34320D01*
X11827Y33661D01*
X12923Y33207D01*
X14086Y32976D01*
X14179D01*
Y38496D01*
D02*
G37*
G36*
X274596Y35602D02*
X269077D01*
Y30083D01*
X269170D01*
X270333Y30314D01*
X271428Y30768D01*
X272414Y31427D01*
X273253Y32265D01*
X273911Y33251D01*
X274365Y34347D01*
X274596Y35509D01*
Y35602D01*
D02*
G37*
G36*
X268077D02*
X262557D01*
Y35509D01*
X262788Y34347D01*
X263242Y33251D01*
X263901Y32265D01*
X264739Y31427D01*
X265725Y30768D01*
X266821Y30314D01*
X267984Y30083D01*
X268077D01*
Y35602D01*
D02*
G37*
G36*
X254596D02*
X249077D01*
Y30083D01*
X249170D01*
X250333Y30314D01*
X251428Y30768D01*
X252414Y31427D01*
X253253Y32265D01*
X253911Y33251D01*
X254365Y34347D01*
X254596Y35509D01*
Y35602D01*
D02*
G37*
G36*
X248077D02*
X242557D01*
Y35509D01*
X242788Y34347D01*
X243242Y33251D01*
X243901Y32265D01*
X244739Y31427D01*
X245725Y30768D01*
X246821Y30314D01*
X247984Y30083D01*
X248077D01*
Y35602D01*
D02*
G37*
G36*
X154461Y35500D02*
X153539D01*
X152649Y35261D01*
X151851Y34801D01*
X151199Y34149D01*
X150739Y33351D01*
X150500Y32461D01*
Y31539D01*
X150739Y30649D01*
X151199Y29851D01*
X151851Y29199D01*
X152649Y28738D01*
X153539Y28500D01*
X154461D01*
X155351Y28738D01*
X156149Y29199D01*
X156801Y29851D01*
X157262Y30649D01*
X157500Y31539D01*
Y32461D01*
X157262Y33351D01*
X156801Y34149D01*
X156149Y34801D01*
X155351Y35261D01*
X154461Y35500D01*
D02*
G37*
G36*
X138500Y30499D02*
Y28500D01*
X140499D01*
X140119Y29416D01*
X139416Y30119D01*
X138500Y30499D01*
D02*
G37*
G36*
X137500D02*
X136584Y30119D01*
X135881Y29416D01*
X135501Y28500D01*
X137500D01*
Y30499D01*
D02*
G37*
G36*
X140499Y27500D02*
X138500D01*
Y25501D01*
X139416Y25881D01*
X140119Y26584D01*
X140499Y27500D01*
D02*
G37*
G36*
X137500D02*
X135501D01*
X135881Y26584D01*
X136584Y25881D01*
X137500Y25501D01*
Y27500D01*
D02*
G37*
G36*
X205106Y26893D02*
Y24894D01*
X207105D01*
X206726Y25810D01*
X206022Y26513D01*
X205106Y26893D01*
D02*
G37*
G36*
X204106D02*
X203190Y26513D01*
X202487Y25810D01*
X202107Y24894D01*
X204106D01*
Y26893D01*
D02*
G37*
G36*
X130461Y31500D02*
X129539D01*
X128649Y31262D01*
X127851Y30801D01*
X127199Y30149D01*
X126739Y29351D01*
X126500Y28461D01*
Y27539D01*
X126739Y26649D01*
X127199Y25851D01*
X127851Y25199D01*
X128649Y24738D01*
X129539Y24500D01*
X130461D01*
X131351Y24738D01*
X132149Y25199D01*
X132801Y25851D01*
X133262Y26649D01*
X133500Y27539D01*
Y28461D01*
X133262Y29351D01*
X132801Y30149D01*
X132149Y30801D01*
X131351Y31262D01*
X130461Y31500D01*
D02*
G37*
G36*
X207105Y23894D02*
X205106D01*
Y21895D01*
X206022Y22274D01*
X206726Y22978D01*
X207105Y23894D01*
D02*
G37*
G36*
X204106D02*
X202107D01*
X202487Y22978D01*
X203190Y22274D01*
X204106Y21895D01*
Y23894D01*
D02*
G37*
G36*
X182500Y21499D02*
Y19500D01*
X184499D01*
X184119Y20416D01*
X183416Y21119D01*
X182500Y21499D01*
D02*
G37*
G36*
X181500D02*
X180584Y21119D01*
X179881Y20416D01*
X179501Y19500D01*
X181500D01*
Y21499D01*
D02*
G37*
G36*
X160500D02*
Y19500D01*
X162499D01*
X162119Y20416D01*
X161416Y21119D01*
X160500Y21499D01*
D02*
G37*
G36*
X159500D02*
X158584Y21119D01*
X157881Y20416D01*
X157501Y19500D01*
X159500D01*
Y21499D01*
D02*
G37*
G36*
X195461Y25500D02*
X194539D01*
X193649Y25262D01*
X192851Y24801D01*
X192199Y24149D01*
X191738Y23351D01*
X191500Y22461D01*
Y21539D01*
X191738Y20649D01*
X192199Y19851D01*
X192851Y19199D01*
X193649Y18738D01*
X194539Y18500D01*
X195461D01*
X196351Y18738D01*
X197149Y19199D01*
X197801Y19851D01*
X198261Y20649D01*
X198500Y21539D01*
Y22461D01*
X198261Y23351D01*
X197801Y24149D01*
X197149Y24801D01*
X196351Y25262D01*
X195461Y25500D01*
D02*
G37*
G36*
X129154Y19499D02*
Y17500D01*
X131152D01*
X130773Y18416D01*
X130070Y19119D01*
X129154Y19499D01*
D02*
G37*
G36*
X128154D02*
X127237Y19119D01*
X126534Y18416D01*
X126155Y17500D01*
X128154D01*
Y19499D01*
D02*
G37*
G36*
X184499Y18500D02*
X182500D01*
Y16501D01*
X183416Y16881D01*
X184119Y17584D01*
X184499Y18500D01*
D02*
G37*
G36*
X181500D02*
X179501D01*
X179881Y17584D01*
X180584Y16881D01*
X181500Y16501D01*
Y18500D01*
D02*
G37*
G36*
X162499D02*
X160500D01*
Y16501D01*
X161416Y16881D01*
X162119Y17584D01*
X162499Y18500D01*
D02*
G37*
G36*
X159500D02*
X157501D01*
X157881Y17584D01*
X158584Y16881D01*
X159500Y16501D01*
Y18500D01*
D02*
G37*
G36*
X131152Y16500D02*
X129154D01*
Y14501D01*
X130070Y14881D01*
X130773Y15584D01*
X131152Y16500D01*
D02*
G37*
G36*
X128154D02*
X126155D01*
X126534Y15584D01*
X127237Y14881D01*
X128154Y14501D01*
Y16500D01*
D02*
G37*
G36*
X109144Y20931D02*
X108222D01*
X107332Y20693D01*
X106534Y20232D01*
X105882Y19580D01*
X105422Y18782D01*
X105183Y17892D01*
Y16970D01*
X105422Y16080D01*
X105882Y15282D01*
X106534Y14630D01*
X107332Y14170D01*
X108222Y13931D01*
X109144D01*
X110034Y14170D01*
X110832Y14630D01*
X111484Y15282D01*
X111945Y16080D01*
X112183Y16970D01*
Y17892D01*
X111945Y18782D01*
X111484Y19580D01*
X110832Y20232D01*
X110034Y20693D01*
X109144Y20931D01*
D02*
G37*
G36*
X268689Y22654D02*
X268336D01*
X266650Y22387D01*
X265027Y21859D01*
X263506Y21084D01*
X262126Y20081D01*
X260919Y18874D01*
X259916Y17494D01*
X259141Y15973D01*
X258613Y14350D01*
X258347Y12664D01*
Y12311D01*
X268689D01*
Y22654D01*
D02*
G37*
G36*
X12664D02*
X12311D01*
Y12311D01*
X22654D01*
Y12664D01*
X22387Y14350D01*
X21859Y15973D01*
X21084Y17494D01*
X20081Y18874D01*
X18874Y20081D01*
X17494Y21084D01*
X15973Y21859D01*
X14350Y22387D01*
X12664Y22654D01*
D02*
G37*
%LPD*%
D55*
X24679Y48996D02*
D03*
X258577Y46102D02*
D03*
X24679Y152525D02*
D03*
Y97888D02*
D03*
D56*
X14679Y58996D02*
D03*
Y38996D02*
D03*
X34679D02*
D03*
Y58996D02*
D03*
X268577Y36102D02*
D03*
Y56102D02*
D03*
X248577D02*
D03*
Y36102D02*
D03*
X14679Y162525D02*
D03*
Y142525D02*
D03*
X34679D02*
D03*
Y162525D02*
D03*
Y107888D02*
D03*
Y87888D02*
D03*
X14679D02*
D03*
Y107888D02*
D03*
D57*
X11811Y193189D02*
D03*
Y11811D02*
D03*
X269189Y193189D02*
D03*
Y11811D02*
D03*
D58*
X231378Y97000D02*
D03*
D59*
X255000D02*
D03*
D60*
X258937Y79283D02*
D03*
Y114716D02*
D03*
D61*
X266811Y97000D02*
D03*
D62*
X175000Y79000D02*
D03*
X166000D02*
D03*
X194000Y66000D02*
D03*
X204606Y24394D02*
D03*
X177000Y97000D02*
D03*
X195000Y22000D02*
D03*
X272075Y141000D02*
D03*
X272439Y154000D02*
D03*
X199000Y137000D02*
D03*
X222000Y139000D02*
D03*
X232000D02*
D03*
X139000Y56000D02*
D03*
X135000Y150000D02*
D03*
X190000Y137000D02*
D03*
X181000D02*
D03*
X242000Y139000D02*
D03*
X182000Y19000D02*
D03*
X148000Y52000D02*
D03*
X236000Y177000D02*
D03*
X228000D02*
D03*
X154000Y32000D02*
D03*
X103000Y61000D02*
D03*
X80000Y175000D02*
D03*
X86495Y49439D02*
D03*
X138000Y28000D02*
D03*
X151000Y95000D02*
D03*
X165307Y151500D02*
D03*
X177000Y160000D02*
D03*
X166000Y110000D02*
D03*
X154000Y173000D02*
D03*
X128654Y17000D02*
D03*
X154000Y178000D02*
D03*
X130000Y28000D02*
D03*
X108683Y17431D02*
D03*
X172496Y120331D02*
D03*
X151000Y121000D02*
D03*
X96778Y38955D02*
D03*
X160000Y19000D02*
D03*
X101000Y157000D02*
D03*
X73000Y151000D02*
D03*
X104000Y170000D02*
D03*
Y165000D02*
D03*
X165000Y166000D02*
D03*
Y171000D02*
D03*
X176109Y170589D02*
D03*
X104000Y40000D02*
D03*
X176130Y165288D02*
D03*
M02*
