G04*
G04 #@! TF.GenerationSoftware,Altium Limited,Altium Designer,21.9.2 (33)*
G04*
G04 Layer_Physical_Order=1*
G04 Layer_Color=255*
%FSLAX25Y25*%
%MOIN*%
G70*
G04*
G04 #@! TF.SameCoordinates,F86B88AB-77F1-441A-86F4-9EF021290F2A*
G04*
G04*
G04 #@! TF.FilePolarity,Positive*
G04*
G01*
G75*
%ADD15R,0.02559X0.02756*%
%ADD16R,0.03642X0.06693*%
%ADD17R,0.06693X0.03642*%
%ADD18R,0.05512X0.04724*%
%ADD19R,0.04724X0.05512*%
%ADD20R,0.05315X0.03937*%
%ADD21R,0.03937X0.05512*%
%ADD22R,0.12795X0.05512*%
%ADD23O,0.05709X0.02362*%
%ADD24R,0.03937X0.02362*%
%ADD25R,0.04921X0.02362*%
%ADD26O,0.05906X0.02362*%
%ADD27R,0.04921X0.07874*%
%ADD28O,0.05118X0.02362*%
%ADD48C,0.03000*%
%ADD49C,0.02200*%
%ADD50C,0.01500*%
%ADD51C,0.02000*%
%ADD52C,0.08000*%
%ADD53C,0.02500*%
%ADD54C,0.01000*%
%ADD55R,0.08858X0.08858*%
%ADD56C,0.10039*%
%ADD57C,0.19685*%
%ADD58O,0.08858X0.17717*%
%ADD59O,0.07874X0.15748*%
%ADD60O,0.15748X0.07874*%
%ADD61C,0.06299*%
%ADD62C,0.03000*%
G36*
X155961Y194165D02*
X155555Y193937D01*
X155461Y193937D01*
X152594D01*
Y189000D01*
X152094D01*
D01*
X152594D01*
Y184063D01*
X155461D01*
X155555Y184063D01*
X155961Y183835D01*
Y180228D01*
X155499Y180037D01*
X155416Y180119D01*
X154500Y180499D01*
Y178000D01*
X154000D01*
Y177500D01*
X151501D01*
X151881Y176584D01*
X152584Y175881D01*
X152899Y175750D01*
Y175250D01*
X152584Y175119D01*
X151881Y174416D01*
X151501Y173500D01*
X154000D01*
Y173000D01*
X154500D01*
Y170501D01*
X155416Y170881D01*
X155499Y170963D01*
X155961Y170772D01*
Y156256D01*
X156060Y155756D01*
X155707Y155256D01*
X154461D01*
Y151500D01*
Y147744D01*
X155707D01*
X156060Y147244D01*
X155961Y146744D01*
Y132000D01*
X97000D01*
Y146244D01*
X104709D01*
Y155756D01*
X104701D01*
X104396Y156153D01*
X104500Y156539D01*
Y157461D01*
X104262Y158351D01*
X103801Y159149D01*
X103149Y159801D01*
X102351Y160261D01*
X101461Y160500D01*
X100539D01*
X99649Y160261D01*
X98851Y159801D01*
X98199Y159149D01*
X97738Y158351D01*
X97500Y157461D01*
Y156629D01*
X97298Y156391D01*
X97067Y156222D01*
X97000Y156239D01*
Y203000D01*
X155961D01*
Y194165D01*
D02*
G37*
G36*
X255000Y176000D02*
X240000D01*
Y166539D01*
X239879Y166527D01*
X238748Y166184D01*
X237706Y165627D01*
X237392Y165370D01*
X237087D01*
Y165119D01*
X236792Y164877D01*
X236042Y163964D01*
X235485Y162921D01*
X235469Y162867D01*
X234968Y162941D01*
Y164370D01*
X232500D01*
Y160614D01*
Y156858D01*
X234968D01*
Y158287D01*
X235469Y158361D01*
X235485Y158307D01*
X236042Y157265D01*
X236792Y156351D01*
X236885Y156275D01*
X237087Y155858D01*
D01*
X237244Y155412D01*
Y149044D01*
X236756Y149016D01*
X236744Y149016D01*
X235756D01*
Y150847D01*
X228244D01*
Y149016D01*
X227244D01*
Y140291D01*
X228470D01*
Y139000D01*
X228500Y138771D01*
Y138539D01*
X228560Y138316D01*
X228590Y138086D01*
X228679Y137873D01*
X228738Y137649D01*
X228854Y137449D01*
X228943Y137235D01*
X229084Y137051D01*
X229199Y136851D01*
X229363Y136687D01*
X229504Y136504D01*
X229687Y136363D01*
X229851Y136199D01*
X230051Y136084D01*
X230235Y135943D01*
X230449Y135854D01*
X230649Y135739D01*
X230873Y135679D01*
X231086Y135590D01*
X231316Y135560D01*
X231539Y135500D01*
X231771D01*
X232000Y135470D01*
X232229Y135500D01*
X232461D01*
X232684Y135560D01*
X232914Y135590D01*
X233127Y135679D01*
X233351Y135739D01*
X233551Y135854D01*
X233765Y135943D01*
X233949Y136084D01*
X234149Y136199D01*
X234313Y136363D01*
X234496Y136504D01*
X234637Y136687D01*
X234801Y136851D01*
X234916Y137051D01*
X235057Y137235D01*
X235146Y137449D01*
X235262Y137649D01*
X235321Y137873D01*
X235410Y138086D01*
X235440Y138316D01*
X235500Y138539D01*
Y138771D01*
X235530Y139000D01*
Y140291D01*
X236744D01*
X236756Y140291D01*
X237244D01*
X237256Y140291D01*
X238470D01*
Y139000D01*
X238500Y138771D01*
Y138539D01*
X238560Y138316D01*
X238590Y138086D01*
X238679Y137873D01*
X238738Y137649D01*
X238854Y137449D01*
X238943Y137235D01*
X239084Y137051D01*
X239199Y136851D01*
X239363Y136687D01*
X239504Y136504D01*
X239687Y136363D01*
X239851Y136199D01*
X240051Y136084D01*
X240235Y135943D01*
X240449Y135854D01*
X240649Y135739D01*
X240873Y135679D01*
X241086Y135590D01*
X241316Y135560D01*
X241539Y135500D01*
X241771D01*
X242000Y135470D01*
X242229Y135500D01*
X242461D01*
X242684Y135560D01*
X242914Y135590D01*
X243127Y135679D01*
X243351Y135739D01*
X243551Y135854D01*
X243765Y135943D01*
X243949Y136084D01*
X244149Y136199D01*
X244313Y136363D01*
X244496Y136504D01*
X244500Y136509D01*
X245000Y136339D01*
Y132378D01*
X240063D01*
Y132026D01*
X234000D01*
X233803Y132000D01*
X215000D01*
X215000Y161000D01*
X208000Y168000D01*
Y203000D01*
X255000D01*
Y176000D01*
D02*
G37*
G36*
X205961Y168000D02*
X206116Y167220D01*
X206558Y166558D01*
X207000Y166116D01*
Y165370D01*
X201087D01*
Y155858D01*
X209024D01*
Y157084D01*
X210614D01*
X211528Y157204D01*
X212379Y157557D01*
X212512Y157659D01*
X212961Y157438D01*
X212961Y132000D01*
X158000D01*
Y146744D01*
X165016D01*
Y148000D01*
X165768D01*
X166658Y148239D01*
X167456Y148699D01*
X168108Y149351D01*
X168569Y150149D01*
X168807Y151039D01*
Y151961D01*
X168569Y152851D01*
X168108Y153649D01*
X167456Y154301D01*
X166658Y154762D01*
X165768Y155000D01*
X165016D01*
Y156256D01*
X158000D01*
Y203000D01*
X205961D01*
Y168000D01*
D02*
G37*
G36*
X94961Y194165D02*
X94555Y193937D01*
X94461Y193937D01*
X91594D01*
Y189000D01*
Y184063D01*
X94461D01*
X94555Y184063D01*
X94961Y183835D01*
Y156239D01*
X94990Y156093D01*
X94982Y155945D01*
X95067Y155707D01*
X95116Y155459D01*
X95199Y155335D01*
X95227Y155256D01*
X95117Y154985D01*
X94971Y154756D01*
X94153D01*
Y151000D01*
X93654D01*
D01*
X94153D01*
Y147244D01*
X94707D01*
X95060Y146744D01*
X94961Y146244D01*
Y132000D01*
X49000D01*
Y165000D01*
X41252D01*
X40899Y165850D01*
X40131Y167000D01*
X39153Y167978D01*
X38004Y168746D01*
X36726Y169275D01*
X35370Y169545D01*
X33987D01*
X32631Y169275D01*
X31354Y168746D01*
X30204Y167978D01*
X29226Y167000D01*
X28500Y165913D01*
X28307Y165914D01*
X28000Y166046D01*
Y203000D01*
X94961D01*
Y194165D01*
D02*
G37*
%LPC*%
G36*
X151594Y193937D02*
X148634D01*
Y189500D01*
X151594D01*
Y193937D01*
D02*
G37*
G36*
X106366D02*
X103405D01*
Y189500D01*
X106366D01*
Y193937D01*
D02*
G37*
G36*
X102406D02*
X99445D01*
Y189500D01*
X102406D01*
Y193937D01*
D02*
G37*
G36*
X106366Y188500D02*
X103405D01*
Y184063D01*
X106366D01*
Y188500D01*
D02*
G37*
G36*
X102406D02*
X99445D01*
Y184063D01*
X102406D01*
Y188500D01*
D02*
G37*
G36*
X151594Y188500D02*
X148634D01*
Y184063D01*
X151594D01*
Y188500D01*
D02*
G37*
G36*
X153500Y180499D02*
X152584Y180119D01*
X151881Y179416D01*
X151501Y178500D01*
X153500D01*
Y180499D01*
D02*
G37*
G36*
X138657Y180717D02*
X135500D01*
Y178248D01*
X138657D01*
Y180717D01*
D02*
G37*
G36*
X134500D02*
X131342D01*
Y178248D01*
X134500D01*
Y180717D01*
D02*
G37*
G36*
X148496Y177574D02*
X147618D01*
Y175850D01*
X150620D01*
X150551Y176201D01*
X150069Y176923D01*
X149347Y177405D01*
X148496Y177574D01*
D02*
G37*
G36*
X146618D02*
X145740D01*
X144889Y177405D01*
X144168Y176923D01*
X143686Y176201D01*
X143616Y175850D01*
X146618D01*
Y177574D01*
D02*
G37*
G36*
X110843D02*
X109965D01*
Y175850D01*
X112967D01*
X112897Y176201D01*
X112415Y176923D01*
X111694Y177405D01*
X110843Y177574D01*
D02*
G37*
G36*
X108965D02*
X108087D01*
X107236Y177405D01*
X106514Y176923D01*
X106032Y176201D01*
X105962Y175850D01*
X108965D01*
Y177574D01*
D02*
G37*
G36*
X112967Y174850D02*
X109465D01*
X105962D01*
X106032Y174499D01*
X106514Y173778D01*
X106660Y173680D01*
X106611Y173183D01*
X106482Y173129D01*
X106183Y172899D01*
X105978D01*
X105351Y173261D01*
X104461Y173500D01*
X103539D01*
X102649Y173261D01*
X101851Y172801D01*
X101199Y172149D01*
X100739Y171351D01*
X100500Y170461D01*
Y169539D01*
X100739Y168649D01*
X101199Y167851D01*
X101550Y167500D01*
X101199Y167149D01*
X100739Y166351D01*
X100500Y165461D01*
Y164539D01*
X100739Y163649D01*
X101199Y162851D01*
X101851Y162199D01*
X102649Y161739D01*
X103539Y161500D01*
X104461D01*
X105351Y161739D01*
X106065Y162151D01*
X106327Y161974D01*
X106447Y161823D01*
X106032Y161201D01*
X105962Y160850D01*
X109465D01*
X112967D01*
X112897Y161201D01*
X112415Y161923D01*
X112269Y162021D01*
X112318Y162518D01*
X112447Y162572D01*
X113111Y163082D01*
X113621Y163746D01*
X113942Y164520D01*
X114051Y165350D01*
X113942Y166181D01*
X113621Y166955D01*
X113192Y167514D01*
X113144Y167850D01*
X113192Y168187D01*
X113621Y168746D01*
X113942Y169520D01*
X114051Y170350D01*
X113942Y171181D01*
X113621Y171955D01*
X113111Y172619D01*
X112447Y173129D01*
X112318Y173183D01*
X112269Y173680D01*
X112415Y173778D01*
X112897Y174499D01*
X112967Y174850D01*
D02*
G37*
G36*
X138657Y177248D02*
X135000D01*
X131342D01*
X131342Y174779D01*
X130904Y174630D01*
X130342D01*
Y166693D01*
X132226D01*
Y165969D01*
X130342D01*
Y158031D01*
Y150945D01*
X131219D01*
X131523Y150548D01*
X131500Y150461D01*
Y149539D01*
X131738Y148649D01*
X132199Y147851D01*
X132851Y147199D01*
X133649Y146739D01*
X134539Y146500D01*
X135461D01*
X136351Y146739D01*
X137149Y147199D01*
X137801Y147851D01*
X138261Y148649D01*
X138500Y149539D01*
Y150461D01*
X138477Y150548D01*
X138781Y150945D01*
X139657D01*
Y158031D01*
Y165969D01*
X137774D01*
Y166693D01*
X139657D01*
Y167577D01*
X142874D01*
X143095Y167128D01*
X142962Y166955D01*
X142641Y166181D01*
X142532Y165350D01*
X142641Y164520D01*
X142962Y163746D01*
X143471Y163082D01*
Y162619D01*
X142962Y161955D01*
X142641Y161181D01*
X142532Y160350D01*
X142641Y159520D01*
X142962Y158746D01*
X143471Y158082D01*
X144136Y157572D01*
X144910Y157251D01*
X145740Y157142D01*
X148496D01*
X149327Y157251D01*
X150100Y157572D01*
X150765Y158082D01*
X151275Y158746D01*
X151595Y159520D01*
X151705Y160350D01*
X151595Y161181D01*
X151275Y161955D01*
X150765Y162619D01*
Y163082D01*
X151275Y163746D01*
X151595Y164520D01*
X151705Y165350D01*
X151595Y166181D01*
X151275Y166955D01*
X150765Y167619D01*
Y168082D01*
X151275Y168746D01*
X151595Y169520D01*
X151705Y170350D01*
X151598Y171159D01*
X151630Y171197D01*
X152040Y171425D01*
X152584Y170881D01*
X153500Y170501D01*
Y172500D01*
X151501D01*
X151518Y172459D01*
X151082Y172206D01*
X150765Y172619D01*
X150100Y173129D01*
X149971Y173183D01*
X149922Y173680D01*
X150069Y173778D01*
X150551Y174499D01*
X150620Y174850D01*
X147118D01*
X143616D01*
X143686Y174499D01*
X144168Y173778D01*
X144314Y173680D01*
X144265Y173183D01*
X144136Y173129D01*
X144129Y173124D01*
X139657D01*
Y174630D01*
X139095D01*
X138657Y174779D01*
X138657Y175130D01*
Y177248D01*
D02*
G37*
G36*
X112967Y159850D02*
X109965D01*
Y158127D01*
X110843D01*
X111694Y158296D01*
X112415Y158778D01*
X112897Y159499D01*
X112967Y159850D01*
D02*
G37*
G36*
X108965D02*
X105962D01*
X106032Y159499D01*
X106514Y158778D01*
X107236Y158296D01*
X108087Y158127D01*
X108965D01*
Y159850D01*
D02*
G37*
G36*
X153461Y155256D02*
X150599D01*
Y152000D01*
X153461D01*
Y155256D01*
D02*
G37*
G36*
Y151000D02*
X150599D01*
Y147744D01*
X153461D01*
Y151000D01*
D02*
G37*
G36*
X236500Y179499D02*
Y177500D01*
X238499D01*
X238119Y178416D01*
X237416Y179119D01*
X236500Y179499D01*
D02*
G37*
G36*
X235500D02*
X234584Y179119D01*
X233881Y178416D01*
X233501Y177500D01*
X235500D01*
Y179499D01*
D02*
G37*
G36*
X228500D02*
Y177500D01*
X230499D01*
X230119Y178416D01*
X229416Y179119D01*
X228500Y179499D01*
D02*
G37*
G36*
X227500D02*
X226584Y179119D01*
X225881Y178416D01*
X225501Y177500D01*
X227500D01*
Y179499D01*
D02*
G37*
G36*
X238499Y176500D02*
X236500D01*
Y174501D01*
X237416Y174881D01*
X238119Y175584D01*
X238499Y176500D01*
D02*
G37*
G36*
X235500D02*
X233501D01*
X233881Y175584D01*
X234584Y174881D01*
X235500Y174501D01*
Y176500D01*
D02*
G37*
G36*
X230499D02*
X228500D01*
Y174501D01*
X229416Y174881D01*
X230119Y175584D01*
X230499Y176500D01*
D02*
G37*
G36*
X227500D02*
X225501D01*
X225881Y175584D01*
X226584Y174881D01*
X227500Y174501D01*
Y176500D01*
D02*
G37*
G36*
X231500Y164370D02*
X229031D01*
Y161114D01*
X231500D01*
Y164370D01*
D02*
G37*
G36*
Y160114D02*
X229031D01*
Y156858D01*
X231500D01*
Y160114D01*
D02*
G37*
G36*
X235756Y154709D02*
X232500D01*
Y151847D01*
X235756D01*
Y154709D01*
D02*
G37*
G36*
X231500D02*
X228244D01*
Y151847D01*
X231500D01*
Y154709D01*
D02*
G37*
G36*
X226913Y165370D02*
X218976D01*
Y155858D01*
X218620Y155512D01*
X217342D01*
Y147575D01*
Y140488D01*
X218470D01*
Y139000D01*
X218500Y138771D01*
Y138539D01*
X218560Y138316D01*
X218590Y138086D01*
X218679Y137873D01*
X218739Y137649D01*
X218854Y137449D01*
X218943Y137235D01*
X219084Y137051D01*
X219199Y136851D01*
X219363Y136687D01*
X219504Y136504D01*
X219687Y136363D01*
X219851Y136199D01*
X220051Y136084D01*
X220235Y135943D01*
X220449Y135854D01*
X220649Y135739D01*
X220873Y135679D01*
X221086Y135590D01*
X221316Y135560D01*
X221539Y135500D01*
X221771D01*
X222000Y135470D01*
X222229Y135500D01*
X222461D01*
X222684Y135560D01*
X222914Y135590D01*
X223127Y135679D01*
X223351Y135739D01*
X223551Y135854D01*
X223765Y135943D01*
X223949Y136084D01*
X224149Y136199D01*
X224313Y136363D01*
X224496Y136504D01*
X224637Y136687D01*
X224801Y136851D01*
X224916Y137051D01*
X225057Y137235D01*
X225146Y137449D01*
X225261Y137649D01*
X225321Y137873D01*
X225410Y138086D01*
X225440Y138316D01*
X225500Y138539D01*
Y138771D01*
X225530Y139000D01*
Y140488D01*
X226658D01*
Y147575D01*
Y155512D01*
X226913Y155858D01*
X226913D01*
Y165370D01*
D02*
G37*
G36*
X167366Y193937D02*
X164406D01*
Y189500D01*
X167366D01*
Y193937D01*
D02*
G37*
G36*
X163406D02*
X160445D01*
Y189500D01*
X163406D01*
Y193937D01*
D02*
G37*
G36*
X167366Y188500D02*
X164406D01*
Y184063D01*
X167366D01*
Y188500D01*
D02*
G37*
G36*
X163406D02*
X160445D01*
Y184063D01*
X163406D01*
Y188500D01*
D02*
G37*
G36*
X171724Y177574D02*
X170846D01*
Y175850D01*
X173849D01*
X173779Y176201D01*
X173297Y176923D01*
X172575Y177405D01*
X171724Y177574D01*
D02*
G37*
G36*
X169846D02*
X168968D01*
X168117Y177405D01*
X167396Y176923D01*
X166914Y176201D01*
X166844Y175850D01*
X169846D01*
Y177574D01*
D02*
G37*
G36*
X173849Y174850D02*
X170346D01*
X166844D01*
X166911Y174516D01*
X166869Y174456D01*
X166547Y174148D01*
X166351Y174261D01*
X165461Y174500D01*
X164539D01*
X163649Y174261D01*
X162851Y173801D01*
X162199Y173149D01*
X161739Y172351D01*
X161500Y171461D01*
Y170539D01*
X161739Y169649D01*
X162199Y168851D01*
X162550Y168500D01*
X162199Y168149D01*
X161739Y167351D01*
X161500Y166461D01*
Y165539D01*
X161739Y164649D01*
X162199Y163851D01*
X162851Y163199D01*
X163649Y162739D01*
X164539Y162500D01*
X164692D01*
X164866Y162428D01*
X165650Y162325D01*
X167109D01*
X167214Y162177D01*
X167330Y161825D01*
X166914Y161201D01*
X166844Y160850D01*
X170346D01*
X173849D01*
X173779Y161201D01*
X173383Y161793D01*
X173574Y162293D01*
X174317D01*
X174779Y162026D01*
X174857Y162005D01*
X174987Y161522D01*
X174881Y161416D01*
X174501Y160500D01*
X179499D01*
X179119Y161416D01*
X178499Y162037D01*
X178420Y162198D01*
X178442Y162650D01*
X178930Y163139D01*
X179391Y163937D01*
X179630Y164827D01*
Y165749D01*
X179391Y166639D01*
X178930Y167437D01*
X178419Y167948D01*
X178910Y168440D01*
X179371Y169238D01*
X179609Y170128D01*
Y171049D01*
X179371Y171940D01*
X179332Y172006D01*
X179063Y172656D01*
X178582Y173283D01*
X177956Y173764D01*
X177226Y174066D01*
X176443Y174169D01*
X175830Y174089D01*
X175649D01*
X174759Y173850D01*
X173960Y173389D01*
X173594Y173475D01*
X173413Y173952D01*
X173779Y174499D01*
X173849Y174850D01*
D02*
G37*
G36*
X198969Y164370D02*
X196500D01*
Y161114D01*
X198969D01*
Y164370D01*
D02*
G37*
G36*
X195500D02*
X193032D01*
Y161114D01*
X195500D01*
Y164370D01*
D02*
G37*
G36*
X173849Y159850D02*
X170846D01*
Y158127D01*
X171724D01*
X172575Y158296D01*
X173297Y158778D01*
X173779Y159499D01*
X173849Y159850D01*
D02*
G37*
G36*
X169846D02*
X166844D01*
X166914Y159499D01*
X167396Y158778D01*
X168117Y158296D01*
X168968Y158127D01*
X169846D01*
Y159850D01*
D02*
G37*
G36*
X179499Y159500D02*
X177500D01*
Y157501D01*
X178416Y157881D01*
X179119Y158584D01*
X179499Y159500D01*
D02*
G37*
G36*
X176500D02*
X174501D01*
X174881Y158584D01*
X175584Y157881D01*
X176500Y157501D01*
Y159500D01*
D02*
G37*
G36*
X198969Y160114D02*
X196500D01*
Y156858D01*
X198969D01*
Y160114D01*
D02*
G37*
G36*
X195500D02*
X193032D01*
Y156858D01*
X195500D01*
Y160114D01*
D02*
G37*
G36*
X202756Y152709D02*
X199500D01*
Y149846D01*
X202756D01*
Y152709D01*
D02*
G37*
G36*
X190913Y165370D02*
X182976D01*
Y155858D01*
X184171D01*
Y153512D01*
X176342D01*
Y145575D01*
Y138488D01*
X177262D01*
X177641Y137988D01*
X177500Y137461D01*
Y136539D01*
X177738Y135649D01*
X178199Y134851D01*
X178851Y134199D01*
X179649Y133739D01*
X180539Y133500D01*
X181461D01*
X182351Y133739D01*
X183149Y134199D01*
X183801Y134851D01*
X184262Y135649D01*
X184500Y136539D01*
Y137461D01*
X184359Y137988D01*
X184738Y138488D01*
X185244D01*
Y138291D01*
X186470D01*
Y137000D01*
X186500Y136771D01*
Y136539D01*
X186560Y136316D01*
X186590Y136086D01*
X186679Y135873D01*
X186739Y135649D01*
X186854Y135449D01*
X186943Y135235D01*
X187084Y135051D01*
X187199Y134851D01*
X187363Y134687D01*
X187504Y134504D01*
X187687Y134363D01*
X187851Y134199D01*
X188051Y134084D01*
X188235Y133943D01*
X188449Y133854D01*
X188649Y133739D01*
X188873Y133679D01*
X189086Y133590D01*
X189316Y133560D01*
X189539Y133500D01*
X189771D01*
X190000Y133470D01*
X190229Y133500D01*
X190461D01*
X190684Y133560D01*
X190914Y133590D01*
X191127Y133679D01*
X191351Y133739D01*
X191551Y133854D01*
X191765Y133943D01*
X191949Y134084D01*
X192149Y134199D01*
X192313Y134363D01*
X192496Y134504D01*
X192637Y134687D01*
X192801Y134851D01*
X192916Y135051D01*
X193057Y135235D01*
X193146Y135449D01*
X193262Y135649D01*
X193321Y135873D01*
X193410Y136086D01*
X193440Y136316D01*
X193500Y136539D01*
Y136771D01*
X193530Y137000D01*
Y138291D01*
X195312D01*
X195616Y137895D01*
X195500Y137461D01*
Y136539D01*
X195738Y135649D01*
X196199Y134851D01*
X196851Y134199D01*
X197649Y133739D01*
X198539Y133500D01*
X199461D01*
X200351Y133739D01*
X201149Y134199D01*
X201801Y134851D01*
X202261Y135649D01*
X202500Y136539D01*
Y137461D01*
X202384Y137895D01*
X202688Y138291D01*
X203756D01*
Y147016D01*
X202756D01*
Y148846D01*
X199000D01*
Y149346D01*
X198500D01*
Y152709D01*
X195244D01*
Y152709D01*
X194756Y152737D01*
Y153709D01*
X189719D01*
Y155858D01*
X190913D01*
Y165370D01*
D02*
G37*
G36*
X90595Y193937D02*
X87634D01*
Y189500D01*
X90595D01*
Y193937D01*
D02*
G37*
G36*
Y188500D02*
X87634D01*
Y184063D01*
X90595D01*
Y188500D01*
D02*
G37*
G36*
X76657Y179512D02*
X73500D01*
Y177043D01*
X76657D01*
Y179512D01*
D02*
G37*
G36*
X72500D02*
X69342D01*
Y177043D01*
X72500D01*
Y179512D01*
D02*
G37*
G36*
X85736Y177574D02*
X84858D01*
X84007Y177405D01*
X83286Y176923D01*
X82804Y176201D01*
X82786Y176113D01*
X82266Y176062D01*
X82119Y176416D01*
X81416Y177119D01*
X80500Y177499D01*
Y175000D01*
X80000D01*
Y174500D01*
X77501D01*
X77756Y173884D01*
X77405Y173425D01*
X77292Y173425D01*
X77096D01*
X76657Y173575D01*
X76657Y173925D01*
Y176043D01*
X73000D01*
X69342D01*
X69342Y173575D01*
X68905Y173425D01*
X68343D01*
Y165488D01*
Y159118D01*
Y152032D01*
X69242D01*
X69547Y151635D01*
X69500Y151461D01*
Y150539D01*
X69739Y149649D01*
X70199Y148851D01*
X70851Y148199D01*
X71649Y147739D01*
X72539Y147500D01*
X73461D01*
X74351Y147739D01*
X75149Y148199D01*
X75801Y148851D01*
X76262Y149649D01*
X76500Y150539D01*
Y151461D01*
X76453Y151635D01*
X76758Y152032D01*
X77658D01*
Y159118D01*
Y165488D01*
Y166640D01*
X78878D01*
X79596Y166735D01*
X80265Y167012D01*
X80840Y167453D01*
X80964Y167577D01*
X81992D01*
X82213Y167128D01*
X82080Y166955D01*
X81759Y166181D01*
X81650Y165350D01*
X81759Y164520D01*
X82080Y163746D01*
X82590Y163082D01*
Y162619D01*
X82080Y161955D01*
X81759Y161181D01*
X81650Y160350D01*
X81759Y159520D01*
X82080Y158746D01*
X82590Y158082D01*
X83254Y157572D01*
X84028Y157251D01*
X84858Y157142D01*
X87614D01*
X88445Y157251D01*
X89218Y157572D01*
X89883Y158082D01*
X90393Y158746D01*
X90713Y159520D01*
X90823Y160350D01*
X90713Y161181D01*
X90393Y161955D01*
X89883Y162619D01*
Y163082D01*
X90393Y163746D01*
X90713Y164520D01*
X90823Y165350D01*
X90713Y166181D01*
X90393Y166955D01*
X89883Y167619D01*
Y168082D01*
X90393Y168746D01*
X90713Y169520D01*
X90823Y170350D01*
X90713Y171181D01*
X90393Y171955D01*
X89883Y172619D01*
X89218Y173129D01*
X89089Y173183D01*
X89040Y173680D01*
X89187Y173778D01*
X89669Y174499D01*
X89739Y174850D01*
X86236D01*
Y175350D01*
X85736D01*
Y177574D01*
D02*
G37*
G36*
X87614D02*
X86736D01*
Y175850D01*
X89739D01*
X89669Y176201D01*
X89187Y176923D01*
X88465Y177405D01*
X87614Y177574D01*
D02*
G37*
G36*
X79500Y177499D02*
X78584Y177119D01*
X77881Y176416D01*
X77501Y175500D01*
X79500D01*
Y177499D01*
D02*
G37*
G36*
X93154Y154756D02*
X90291D01*
Y151500D01*
X93154D01*
Y154756D01*
D02*
G37*
G36*
Y150500D02*
X90291D01*
Y147244D01*
X93154D01*
Y150500D01*
D02*
G37*
%LPD*%
D15*
X248657Y129000D02*
D03*
X243342D02*
D03*
X183343Y25000D02*
D03*
X188657D02*
D03*
D16*
X268000Y141000D02*
D03*
X257272D02*
D03*
X156636Y126000D02*
D03*
X167364D02*
D03*
X268364Y154000D02*
D03*
X257636D02*
D03*
D17*
X166000Y82636D02*
D03*
Y93364D02*
D03*
X175000Y82636D02*
D03*
Y93364D02*
D03*
D18*
X242000Y151347D02*
D03*
Y144653D02*
D03*
X203197Y38890D02*
D03*
Y32197D02*
D03*
X154000Y25693D02*
D03*
Y19000D02*
D03*
X175000Y25346D02*
D03*
Y18654D02*
D03*
X139134Y111173D02*
D03*
Y104480D02*
D03*
X199000Y149346D02*
D03*
Y142654D02*
D03*
X190000Y149346D02*
D03*
Y142654D02*
D03*
X232000Y151347D02*
D03*
Y144653D02*
D03*
D19*
X100347Y151000D02*
D03*
X93654D02*
D03*
X153961Y151500D02*
D03*
X160654D02*
D03*
X115654Y17000D02*
D03*
X122346D02*
D03*
X95346Y45000D02*
D03*
X88653D02*
D03*
X130654Y35000D02*
D03*
X137346D02*
D03*
D20*
X73000Y163087D02*
D03*
Y156000D02*
D03*
X135000Y162000D02*
D03*
Y154913D02*
D03*
X73000Y176543D02*
D03*
Y169457D02*
D03*
X135000Y177748D02*
D03*
Y170661D02*
D03*
X195000Y39543D02*
D03*
Y32457D02*
D03*
X75000Y68543D02*
D03*
Y61457D02*
D03*
X222000Y151543D02*
D03*
Y144457D02*
D03*
X181000Y142457D02*
D03*
Y149543D02*
D03*
X194000Y61543D02*
D03*
Y54457D02*
D03*
X186000Y39543D02*
D03*
Y32457D02*
D03*
X184000Y108000D02*
D03*
Y115087D02*
D03*
Y94457D02*
D03*
Y101543D02*
D03*
D21*
X186945Y160614D02*
D03*
X196000D02*
D03*
X205055D02*
D03*
X222945D02*
D03*
X232000D02*
D03*
X241055D02*
D03*
D22*
X196000Y187386D02*
D03*
X232000D02*
D03*
D23*
X82272Y32500D02*
D03*
Y27500D02*
D03*
Y22500D02*
D03*
Y17500D02*
D03*
X103728Y32500D02*
D03*
Y27500D02*
D03*
Y22500D02*
D03*
Y17500D02*
D03*
X151020Y115165D02*
D03*
Y110165D02*
D03*
Y105165D02*
D03*
Y100165D02*
D03*
X172476Y115165D02*
D03*
Y110165D02*
D03*
Y105165D02*
D03*
Y100165D02*
D03*
D24*
X86587Y53260D02*
D03*
Y60740D02*
D03*
X97413D02*
D03*
Y57000D02*
D03*
Y53260D02*
D03*
D25*
X139276Y44346D02*
D03*
Y48087D02*
D03*
Y51827D02*
D03*
X129433D02*
D03*
Y44346D02*
D03*
D26*
X175614Y36634D02*
D03*
Y41634D02*
D03*
Y46634D02*
D03*
Y51634D02*
D03*
X153961Y36634D02*
D03*
Y41634D02*
D03*
Y46634D02*
D03*
Y51634D02*
D03*
D27*
X163906Y189000D02*
D03*
X152094D02*
D03*
X91094D02*
D03*
X102905D02*
D03*
D28*
X170346Y160350D02*
D03*
Y165350D02*
D03*
Y170350D02*
D03*
Y175350D02*
D03*
X147118Y160350D02*
D03*
Y165350D02*
D03*
Y170350D02*
D03*
Y175350D02*
D03*
X109465Y160350D02*
D03*
Y165350D02*
D03*
Y170350D02*
D03*
Y175350D02*
D03*
X86236Y160350D02*
D03*
Y165350D02*
D03*
Y170350D02*
D03*
Y175350D02*
D03*
D48*
X215803Y170803D02*
X229847D01*
X214000Y164000D02*
Y169000D01*
X215803Y170803D01*
X268364Y154000D02*
X272439D01*
X268000Y141000D02*
X272075D01*
X222000Y139000D02*
Y144457D01*
X232000Y139000D02*
Y144653D01*
X190000Y137000D02*
Y142654D01*
X242000Y139000D02*
Y144653D01*
X232000Y151347D02*
Y160614D01*
Y168650D01*
X229847Y170803D02*
X232000Y168650D01*
X210614Y160614D02*
X214000Y164000D01*
X205055Y160614D02*
X210614D01*
D49*
X175000Y79000D02*
Y82636D01*
X166000Y79000D02*
Y82636D01*
X156899Y124671D02*
X157357Y125129D01*
X156899Y123246D02*
Y124671D01*
X154807Y121153D02*
X156899Y123246D01*
X176000Y94085D02*
X177000D01*
X176847Y97153D02*
Y97424D01*
X177000Y94085D02*
Y97000D01*
X174106Y100165D02*
X176847Y97424D01*
Y97153D02*
X177000Y97000D01*
X172476Y100165D02*
X174106D01*
X175000Y93364D02*
X175364Y93728D01*
X168491Y93023D02*
X175000D01*
X175704D01*
X176983Y93753D02*
X183296D01*
X184000Y94457D01*
X168465Y92997D02*
X168491Y93023D01*
X188657Y25000D02*
X192000D01*
X195000Y22000D01*
X151000Y115185D02*
X151010Y115195D01*
Y120990D01*
X151000Y121000D02*
X151010Y120990D01*
X151153Y121153D02*
X154807D01*
X151000Y121000D02*
X151153Y121153D01*
D50*
X195000Y39543D02*
X202543D01*
X186000Y39572D02*
X194972D01*
X202543Y39543D02*
X203197Y38890D01*
X182428Y39572D02*
X186000D01*
X175614Y41634D02*
X180366D01*
X182428Y39572D01*
X203000Y26406D02*
Y32000D01*
Y26406D02*
X204606Y24800D01*
Y24394D02*
Y24800D01*
X148000Y51730D02*
X153864D01*
X199000Y137000D02*
Y142654D01*
X145000Y44000D02*
X147366Y41634D01*
X153961D01*
X145000Y44000D02*
Y47000D01*
X135000Y150000D02*
Y154913D01*
X181000Y142457D02*
X189803D01*
X190000Y142654D01*
X181000Y137000D02*
Y142457D01*
Y149543D02*
X189409D01*
X189606Y149346D01*
X187744Y151209D02*
X189409Y149543D01*
X186945Y152402D02*
X187744Y151602D01*
X186945Y152402D02*
Y160614D01*
X189606Y149346D02*
X190000D01*
X187744Y151209D02*
Y151602D01*
X241055Y152291D02*
X242000Y151347D01*
X184000Y101543D02*
Y108000D01*
X175347Y19000D02*
X182000D01*
X65000Y124000D02*
X75000Y114000D01*
Y68543D02*
Y114000D01*
X97413Y60740D02*
X102740D01*
X180000Y108000D02*
X184000D01*
X177165Y105165D02*
X180000Y108000D01*
X172476Y105165D02*
X177165D01*
X24679Y131321D02*
Y152525D01*
X32000Y124000D02*
X65000D01*
X24679Y131321D02*
X32000Y124000D01*
X75717Y60740D02*
X86587D01*
X75000Y61457D02*
X75717Y60740D01*
X97413Y57000D02*
X105000D01*
X110173Y51827D02*
X112827D01*
X105000Y57000D02*
X110173Y51827D01*
X112827D02*
X129433D01*
X24791Y98000D02*
X51000D01*
X24679Y97888D02*
X24791Y98000D01*
X51000D02*
X59000Y90000D01*
Y33000D02*
Y90000D01*
Y33000D02*
X69500Y22500D01*
X82272D01*
X24679Y31321D02*
Y48996D01*
X38500Y17500D02*
X82272D01*
X24679Y31321D02*
X38500Y17500D01*
X154000Y19000D02*
X160000D01*
X100347Y151000D02*
Y155805D01*
X73000Y163087D02*
Y169457D01*
X73043Y169414D01*
X78878D01*
X79815Y170350D02*
X86236D01*
X78878Y169414D02*
X79815Y170350D01*
X103728Y22500D02*
X110500D01*
X112000Y24000D01*
Y51000D01*
X112827Y51827D01*
X143913Y48087D02*
X145000Y47000D01*
X139276Y48087D02*
X143913D01*
X148293Y104480D02*
X148978Y105165D01*
X139134Y104480D02*
X148293D01*
X148978Y105165D02*
X151020D01*
X139134Y111173D02*
X147970D01*
X148978Y110165D01*
X151020D01*
X135311Y170350D02*
X147118D01*
X135000Y162000D02*
Y170661D01*
D51*
X194000Y61543D02*
Y66000D01*
X221898Y46102D02*
X258577D01*
X213543Y54457D02*
X221898Y46102D01*
X194000Y54457D02*
X213543D01*
X188823D02*
X194000D01*
X181000Y46634D02*
X188823Y54457D01*
X175614Y46634D02*
X181000D01*
X234000Y129000D02*
X243342D01*
X231378Y97000D02*
Y126378D01*
X234000Y129000D01*
X183063Y25346D02*
X183343Y25067D01*
X175000Y25346D02*
X183063D01*
X183343Y25000D02*
Y25067D01*
X175000Y32000D02*
Y36467D01*
Y25346D02*
Y32000D01*
X175457Y32457D01*
X186000D01*
X175167Y36634D02*
X175614D01*
X175000Y36467D02*
X175167Y36634D01*
X175650Y170350D02*
X176443Y171143D01*
X170346Y170350D02*
X175650D01*
X166191D02*
X170346D01*
X139000Y52102D02*
Y56000D01*
X166807Y123146D02*
X169431Y120522D01*
X169824D02*
X172305D01*
X169431D02*
X169824D01*
X172486Y115175D02*
X172535Y115126D01*
X172486Y120321D02*
X172496Y120331D01*
X172476Y115165D02*
X172486Y115175D01*
Y120321D01*
X172535Y115126D02*
X183961D01*
X172516D02*
X172535D01*
X172476Y115165D02*
X172516Y115126D01*
X183961D02*
X184000Y115087D01*
X151010Y100155D02*
X151020Y100165D01*
X151010Y95010D02*
Y100155D01*
X151000Y95000D02*
X151010Y95010D01*
X86587Y47461D02*
Y53260D01*
X138000Y28000D02*
Y28541D01*
X137346Y29195D02*
X138000Y28541D01*
X137346Y29195D02*
Y35000D01*
X166096Y110096D02*
X172407D01*
X166000Y110000D02*
X166096Y110096D01*
X130000Y28000D02*
Y34347D01*
X172407Y110096D02*
X172476Y110165D01*
X166807Y123146D02*
X167201D01*
X169824Y120522D01*
X172305D02*
X172496Y120331D01*
X96778Y38955D02*
X97000Y39178D01*
Y43347D01*
X95346Y45000D02*
X97000Y43347D01*
X86587Y47461D02*
X88653Y45394D01*
Y45000D02*
Y45394D01*
X130000Y34347D02*
X130654Y35000D01*
X129819Y44346D02*
X130500Y43665D01*
Y38153D02*
X130654Y38000D01*
X129433Y44346D02*
X129819D01*
X130500Y38153D02*
Y43665D01*
X165000Y171000D02*
X165541D01*
X166191Y170350D01*
X165000Y166000D02*
X165650Y165350D01*
X170346D01*
X170378Y165319D01*
X176098D01*
X176130Y165288D01*
X95000Y45347D02*
X95346Y45000D01*
D52*
X256000Y133686D02*
Y155928D01*
X252314Y130000D02*
X256000Y133686D01*
X251000Y130000D02*
X252314D01*
X251314Y160614D02*
X256000Y155928D01*
X241055Y160614D02*
X251314D01*
D53*
X241055Y152291D02*
Y160614D01*
X222226Y151543D02*
X222945Y152262D01*
X222000Y151543D02*
X222226D01*
X222945Y152262D02*
Y160614D01*
X197494Y150459D02*
Y150852D01*
X196000Y152347D02*
X197494Y150852D01*
X196000Y152347D02*
Y160614D01*
X198606Y149346D02*
X199000D01*
X197494Y150459D02*
X198606Y149346D01*
X197841Y187386D02*
X199346Y188892D01*
X196000Y187386D02*
X197841D01*
X153961Y36634D02*
X154000Y36595D01*
Y32000D02*
Y36595D01*
Y25693D02*
Y32000D01*
X160654Y151500D02*
X165307D01*
X108683Y17431D02*
X113569D01*
X103797D02*
X108683D01*
X122346Y17000D02*
X128654D01*
X104000Y32772D02*
Y40000D01*
X103728Y17500D02*
X103797Y17431D01*
X113569D02*
X114000Y17000D01*
X73000Y151000D02*
Y156000D01*
X141000Y177000D02*
Y182000D01*
X145000Y186000D01*
X151094D01*
X135000Y177748D02*
X135748Y177000D01*
X141000D01*
X142650Y175350D02*
X147118D01*
X141000Y177000D02*
X142650Y175350D01*
D54*
X139000Y52102D02*
X139276Y51827D01*
X175000Y18654D02*
X175347Y19000D01*
X203000Y32000D02*
X203197Y32197D01*
X147730Y51730D02*
X148000Y52000D01*
X153864Y51730D02*
X153961Y51634D01*
X102740Y60740D02*
X103000Y61000D01*
X151000Y115185D02*
X151020Y115165D01*
X103728Y32500D02*
X104000Y32772D01*
X195000Y32457D02*
X195260Y32197D01*
X203197D01*
X101000Y156459D02*
Y157000D01*
X100347Y155805D02*
X101000Y156459D01*
X104350Y170350D02*
X109465D01*
X104000Y170000D02*
X104350Y170350D01*
X109289Y165175D02*
X109465Y165350D01*
X104175Y165175D02*
X109289D01*
X104000Y165000D02*
X104175Y165175D01*
X102905Y187524D02*
Y189000D01*
X162669Y188567D02*
Y190043D01*
X135000Y170661D02*
X135311Y170350D01*
D55*
X24679Y48996D02*
D03*
X258577Y46102D02*
D03*
X24679Y152525D02*
D03*
Y97888D02*
D03*
D56*
X14679Y58996D02*
D03*
Y38996D02*
D03*
X34679D02*
D03*
Y58996D02*
D03*
X268577Y36102D02*
D03*
Y56102D02*
D03*
X248577D02*
D03*
Y36102D02*
D03*
X14679Y162525D02*
D03*
Y142525D02*
D03*
X34679D02*
D03*
Y162525D02*
D03*
Y107888D02*
D03*
Y87888D02*
D03*
X14679D02*
D03*
Y107888D02*
D03*
D57*
X11811Y193189D02*
D03*
Y11811D02*
D03*
X269189Y193189D02*
D03*
Y11811D02*
D03*
D58*
X231378Y97000D02*
D03*
D59*
X255000D02*
D03*
D60*
X258937Y79283D02*
D03*
Y114716D02*
D03*
D61*
X266811Y97000D02*
D03*
D62*
X175000Y79000D02*
D03*
X166000D02*
D03*
X194000Y66000D02*
D03*
X204606Y24394D02*
D03*
X177000Y97000D02*
D03*
X195000Y22000D02*
D03*
X272075Y141000D02*
D03*
X272439Y154000D02*
D03*
X199000Y137000D02*
D03*
X222000Y139000D02*
D03*
X232000D02*
D03*
X139000Y56000D02*
D03*
X135000Y150000D02*
D03*
X190000Y137000D02*
D03*
X181000D02*
D03*
X242000Y139000D02*
D03*
X182000Y19000D02*
D03*
X148000Y52000D02*
D03*
X236000Y177000D02*
D03*
X228000D02*
D03*
X154000Y32000D02*
D03*
X103000Y61000D02*
D03*
X80000Y175000D02*
D03*
X86495Y49439D02*
D03*
X138000Y28000D02*
D03*
X151000Y95000D02*
D03*
X165307Y151500D02*
D03*
X177000Y160000D02*
D03*
X166000Y110000D02*
D03*
X154000Y173000D02*
D03*
X128654Y17000D02*
D03*
X154000Y178000D02*
D03*
X130000Y28000D02*
D03*
X108683Y17431D02*
D03*
X172496Y120331D02*
D03*
X151000Y121000D02*
D03*
X96778Y38955D02*
D03*
X160000Y19000D02*
D03*
X101000Y157000D02*
D03*
X73000Y151000D02*
D03*
X104000Y170000D02*
D03*
Y165000D02*
D03*
X165000Y166000D02*
D03*
Y171000D02*
D03*
X176109Y170589D02*
D03*
X104000Y40000D02*
D03*
X176130Y165288D02*
D03*
M02*
