G04*
G04 #@! TF.GenerationSoftware,Altium Limited,Altium Designer,21.9.2 (33)*
G04*
G04 Layer_Color=8388736*
%FSLAX25Y25*%
%MOIN*%
G70*
G04*
G04 #@! TF.SameCoordinates,BDB69366-DB8A-4EDD-9E17-6FFE98707952*
G04*
G04*
G04 #@! TF.FilePolarity,Negative*
G04*
G01*
G75*
%ADD15R,0.02559X0.02756*%
%ADD16R,0.03642X0.06693*%
%ADD17R,0.06693X0.03642*%
%ADD29R,0.06312X0.05524*%
%ADD30R,0.05524X0.06312*%
%ADD31R,0.06115X0.04737*%
%ADD32R,0.04737X0.06312*%
%ADD33R,0.13595X0.06312*%
%ADD34O,0.06509X0.03162*%
%ADD35R,0.04737X0.03162*%
%ADD36R,0.05721X0.03162*%
%ADD37O,0.06706X0.03162*%
%ADD38R,0.05721X0.08674*%
%ADD39O,0.05918X0.03162*%
%ADD40R,0.09658X0.09658*%
%ADD41C,0.10839*%
%ADD42C,0.20485*%
%ADD43O,0.09658X0.18517*%
%ADD44O,0.08674X0.16548*%
%ADD45O,0.16548X0.08674*%
%ADD46C,0.07099*%
%ADD47C,0.03800*%
D15*
X248657Y129000D02*
D03*
X243342D02*
D03*
X183343Y25000D02*
D03*
X188657D02*
D03*
D16*
X268000Y141000D02*
D03*
X257272D02*
D03*
X156636Y126000D02*
D03*
X167364D02*
D03*
X268364Y154000D02*
D03*
X257636D02*
D03*
D17*
X166000Y82636D02*
D03*
Y93364D02*
D03*
X175000Y82636D02*
D03*
Y93364D02*
D03*
D29*
X242000Y151347D02*
D03*
Y144653D02*
D03*
X203197Y38890D02*
D03*
Y32197D02*
D03*
X154000Y25693D02*
D03*
Y19000D02*
D03*
X175000Y25346D02*
D03*
Y18654D02*
D03*
X139134Y111173D02*
D03*
Y104480D02*
D03*
X199000Y149346D02*
D03*
Y142654D02*
D03*
X190000Y149346D02*
D03*
Y142654D02*
D03*
X232000Y151347D02*
D03*
Y144653D02*
D03*
D30*
X100347Y151000D02*
D03*
X93654D02*
D03*
X153961Y151500D02*
D03*
X160654D02*
D03*
X115654Y17000D02*
D03*
X122346D02*
D03*
X95346Y45000D02*
D03*
X88653D02*
D03*
X130654Y35000D02*
D03*
X137346D02*
D03*
D31*
X73000Y163087D02*
D03*
Y156000D02*
D03*
X135000Y162000D02*
D03*
Y154913D02*
D03*
X73000Y176543D02*
D03*
Y169457D02*
D03*
X135000Y177748D02*
D03*
Y170661D02*
D03*
X195000Y39543D02*
D03*
Y32457D02*
D03*
X75000Y68543D02*
D03*
Y61457D02*
D03*
X222000Y151543D02*
D03*
Y144457D02*
D03*
X181000Y142457D02*
D03*
Y149543D02*
D03*
X194000Y61543D02*
D03*
Y54457D02*
D03*
X186000Y39543D02*
D03*
Y32457D02*
D03*
X184000Y108000D02*
D03*
Y115087D02*
D03*
Y94457D02*
D03*
Y101543D02*
D03*
D32*
X186945Y160614D02*
D03*
X196000D02*
D03*
X205055D02*
D03*
X222945D02*
D03*
X232000D02*
D03*
X241055D02*
D03*
D33*
X196000Y187386D02*
D03*
X232000D02*
D03*
D34*
X82272Y32500D02*
D03*
Y27500D02*
D03*
Y22500D02*
D03*
Y17500D02*
D03*
X103728Y32500D02*
D03*
Y27500D02*
D03*
Y22500D02*
D03*
Y17500D02*
D03*
X151020Y115165D02*
D03*
Y110165D02*
D03*
Y105165D02*
D03*
Y100165D02*
D03*
X172476Y115165D02*
D03*
Y110165D02*
D03*
Y105165D02*
D03*
Y100165D02*
D03*
D35*
X86587Y53260D02*
D03*
Y60740D02*
D03*
X97413D02*
D03*
Y57000D02*
D03*
Y53260D02*
D03*
D36*
X139276Y44346D02*
D03*
Y48087D02*
D03*
Y51827D02*
D03*
X129433D02*
D03*
Y44346D02*
D03*
D37*
X175614Y36634D02*
D03*
Y41634D02*
D03*
Y46634D02*
D03*
Y51634D02*
D03*
X153961Y36634D02*
D03*
Y41634D02*
D03*
Y46634D02*
D03*
Y51634D02*
D03*
D38*
X163906Y189000D02*
D03*
X152094D02*
D03*
X91094D02*
D03*
X102905D02*
D03*
D39*
X170346Y160350D02*
D03*
Y165350D02*
D03*
Y170350D02*
D03*
Y175350D02*
D03*
X147118Y160350D02*
D03*
Y165350D02*
D03*
Y170350D02*
D03*
Y175350D02*
D03*
X109465Y160350D02*
D03*
Y165350D02*
D03*
Y170350D02*
D03*
Y175350D02*
D03*
X86236Y160350D02*
D03*
Y165350D02*
D03*
Y170350D02*
D03*
Y175350D02*
D03*
D40*
X258577Y46102D02*
D03*
X24679Y152525D02*
D03*
Y97888D02*
D03*
Y48996D02*
D03*
D41*
X268577Y36102D02*
D03*
Y56102D02*
D03*
X248577D02*
D03*
Y36102D02*
D03*
X14679Y162525D02*
D03*
Y142525D02*
D03*
X34679D02*
D03*
Y162525D02*
D03*
Y107888D02*
D03*
Y87888D02*
D03*
X14679D02*
D03*
Y107888D02*
D03*
Y58996D02*
D03*
Y38996D02*
D03*
X34679D02*
D03*
Y58996D02*
D03*
D42*
X11811Y193189D02*
D03*
Y11811D02*
D03*
X269189Y193189D02*
D03*
Y11811D02*
D03*
D43*
X231378Y97000D02*
D03*
D44*
X255000D02*
D03*
D45*
X258937Y79283D02*
D03*
Y114716D02*
D03*
D46*
X266811Y97000D02*
D03*
D47*
X177000D02*
D03*
X195000Y22000D02*
D03*
X189900Y66000D02*
D03*
X272075Y141000D02*
D03*
X272439Y154000D02*
D03*
X199000Y137000D02*
D03*
X222000Y139000D02*
D03*
X232000D02*
D03*
X139000Y56000D02*
D03*
X135000Y150000D02*
D03*
X190000Y137000D02*
D03*
X181000D02*
D03*
X242000Y139000D02*
D03*
X182000Y19000D02*
D03*
X203000Y26000D02*
D03*
X148000Y52000D02*
D03*
X236000Y177000D02*
D03*
X228000D02*
D03*
X154000Y32000D02*
D03*
X103000Y61000D02*
D03*
X80000Y175000D02*
D03*
X86495Y49439D02*
D03*
X138000Y28000D02*
D03*
X151000Y95000D02*
D03*
X165307Y151500D02*
D03*
X177000Y160000D02*
D03*
X166000Y110000D02*
D03*
X154000Y173000D02*
D03*
X128654Y17000D02*
D03*
X154000Y178000D02*
D03*
X130000Y28000D02*
D03*
X108683Y17431D02*
D03*
X159535Y85367D02*
D03*
X172496Y120331D02*
D03*
X151000Y121000D02*
D03*
X96778Y38955D02*
D03*
X160000Y19000D02*
D03*
X101000Y157000D02*
D03*
X73000Y151000D02*
D03*
X104000Y170000D02*
D03*
Y165000D02*
D03*
X165000Y166000D02*
D03*
Y171000D02*
D03*
X176109Y170589D02*
D03*
X104000Y40000D02*
D03*
X176130Y165288D02*
D03*
M02*
